<svg width="14642" height="14642" viewBox="0 0 14642 14642" fill="none" xmlns="http://www.w3.org/2000/svg">
<path d="M13817 7321C13817 10908.6 10908.6 13817 7321 13817C3733.36 13817 825 10908.6 825 7321C825 3733.36 3733.36 825 7321 825C10908.6 825 13817 3733.36 13817 7321Z" fill="url(#paint0_linear_90_1722)"/>
<path fill-rule="evenodd" clip-rule="evenodd" d="M14642 7321C14642 11364.3 11364.3 14642 7321 14642C3277.72 14642 0 11364.3 0 7321C0 3277.72 3277.72 0 7321 0C11364.3 0 14642 3277.72 14642 7321ZM7321 13817C10908.6 13817 13817 10908.6 13817 7321C13817 3733.36 10908.6 825 7321 825C3733.36 825 825 3733.36 825 7321C825 10908.6 3733.36 13817 7321 13817Z" fill="url(#paint1_linear_90_1722)"/>
<path opacity="0.5" fill-rule="evenodd" clip-rule="evenodd" d="M12703.4 3682.77C12738 3733.9 12771.9 3785.54 12805.1 3837.7C12844.6 4089.89 12881.8 4353.87 12915 4626.43L11896.1 5664.55L12703.4 3682.77ZM9657.83 1258C9726.8 1284.6 9795.19 1312.34 9863 1341.2L9082.63 4087.11L8993.3 1258H9657.83ZM2417.47 3060.17C2674.75 2764.34 2958.36 2492.01 3264.65 2246.84L5300.25 6623.7L2417.47 3060.17ZM10127.4 13181.2C10284 13106.1 10437.1 13024.8 10586.4 12937.8C10271 12240.6 9569.41 11755.8 8754.03 11755.8L8754.12 11755.8C7643.33 11755.8 6743.89 12655.4 6743.89 13766.2C6743.89 13774.8 6743.94 13783.3 6744.05 13791.7C6806.68 13797.2 6869.57 13801.9 6932.7 13805.6C7250.6 13117.5 7944.59 12643.5 8754.09 12643.5C9287 12643.5 9769.36 12846.6 10127.4 13181.2ZM4990.63 13386.5L4122.37 11905L6201.88 12126L4771.16 9086.19L7815.58 11297L7466.3 6175.46L9545.76 10891.7L11641.9 8404.59L11487.3 12015.3C11752.2 11651.2 11983.2 11249.6 12259.2 10752.7C12410.9 10479.5 12537.1 10184.9 12640.9 9874.54L12554.2 9876.75L12836.8 9157.75C13073.2 8076.84 13096.8 6870.89 13020.5 5733.17L10875 6926.46L10535.9 3064.06L8727.47 6944.32L6431.55 1258H6335.91L6289.25 7552.23L1582.3 6356.18C1582.2 6359.4 1582.1 6362.62 1582 6365.83L4642.26 11039.1L2463.4 10912.1C2583.05 11125.7 2695.41 11321.4 2807.56 11504.4L4515.66 13181.7C4670.68 13256 4829.1 13324.4 4990.63 13386.5Z" fill="url(#paint2_linear_90_1722)"/>
<mask id="path-4-outside-1_90_1722" maskUnits="userSpaceOnUse" x="1272.27" y="664.294" width="12876.4" height="13190.4" fill="black">
<rect fill="white" x="1272.27" y="664.294" width="12876.4" height="13190.4"/>
<path fill-rule="evenodd" clip-rule="evenodd" d="M9990.89 2984.62C10317.8 2910.74 11006.8 2759.77 11148.1 2746.99L11141.2 2843.15C11149.7 2815.49 11157.8 2788.54 11165.5 2762.34L11282 3363.18C11228.2 3531.66 11105.8 3792.44 10968.4 4084.9C10797.7 4448.63 10603.9 4861.37 10490.5 5206.54C10390 5512.73 10358 5896.71 10321.2 6339.33C10264.4 7021.87 10196 7843.86 9846.5 8735.1C9385.62 9910.46 8638.96 11097.7 7998 11513C8001.25 11352.3 7995.6 11182.8 7985.33 11006.6L7720.18 11635.1L3099.54 10741.7C3176.02 10070.2 3388.2 8507.29 3625.04 7628.07C3878.31 6687.88 5391.95 5536.37 6140.25 4967.1C6266.68 4870.92 6371.26 4791.36 6444.22 4732.25C6848.1 4405.05 6921.88 3811.74 6908.29 3555.99L7044.69 3534.4C7038.49 3546.39 7033.19 3558.8 7028.78 3571.59C7125.96 3508.09 7321.74 3485.64 7495.66 3465.7C7580.44 3455.98 7660.02 3446.85 7720.45 3433.85L7909.21 3671.89C7871.57 3812.32 7848.37 4066.29 7822.2 4352.76L7822.2 4352.76C7817.07 4408.92 7811.82 4466.33 7806.33 4524.38C7991.2 4601.65 8203.75 4656.58 8439.03 4675.8C9427.13 4756.53 9885.31 3581.99 9990.89 2984.62Z"/>
</mask>
<path fill-rule="evenodd" clip-rule="evenodd" d="M9990.89 2984.62C10317.8 2910.74 11006.8 2759.77 11148.1 2746.99L11141.2 2843.15C11149.7 2815.49 11157.8 2788.54 11165.5 2762.34L11282 3363.18C11228.2 3531.66 11105.8 3792.44 10968.4 4084.9C10797.7 4448.63 10603.9 4861.37 10490.5 5206.54C10390 5512.73 10358 5896.71 10321.2 6339.33C10264.4 7021.87 10196 7843.86 9846.5 8735.1C9385.62 9910.46 8638.96 11097.7 7998 11513C8001.25 11352.3 7995.6 11182.8 7985.33 11006.6L7720.18 11635.1L3099.54 10741.7C3176.02 10070.2 3388.2 8507.29 3625.04 7628.07C3878.31 6687.88 5391.95 5536.37 6140.25 4967.1C6266.68 4870.92 6371.26 4791.36 6444.22 4732.25C6848.1 4405.05 6921.88 3811.74 6908.29 3555.99L7044.69 3534.4C7038.49 3546.39 7033.19 3558.8 7028.78 3571.59C7125.96 3508.09 7321.74 3485.64 7495.66 3465.7C7580.44 3455.98 7660.02 3446.85 7720.45 3433.85L7909.21 3671.89C7871.57 3812.32 7848.37 4066.29 7822.2 4352.76L7822.2 4352.76C7817.07 4408.92 7811.82 4466.33 7806.33 4524.38C7991.2 4601.65 8203.75 4656.58 8439.03 4675.8C9427.13 4756.53 9885.31 3581.99 9990.89 2984.62Z" fill="#F9BC15"/>
<path d="M11148.1 2746.99L11133.1 2581.67L11327.6 2564.07L11313.6 2758.85L11148.1 2746.99ZM9990.89 2984.62L9827.42 2955.73L9846.63 2847.04L9954.29 2822.71L9990.89 2984.62ZM11141.2 2843.15L11299.8 2892.15L10975.6 2831.29L11141.2 2843.15ZM11165.5 2762.34L11006.2 2715.65L11328.5 2730.76L11165.5 2762.34ZM11282 3363.18L11444.9 3331.6L11453 3373.25L11440.1 3413.67L11282 3363.18ZM10968.4 4084.9L11118.7 4155.45L10968.4 4084.9ZM10490.5 5206.54L10648.3 5258.33L10490.5 5206.54ZM10321.2 6339.33L10486.6 6353.1L10321.2 6339.33ZM9846.5 8735.1L9691.95 8674.5L9846.5 8735.1ZM7998 11513L8088.26 11652.3L7825.7 11822.4L7832.03 11509.6L7998 11513ZM7985.33 11006.6L7832.39 10942L8151.05 10996.9L7985.33 11006.6ZM7720.18 11635.1L7873.13 11699.6L7820.81 11823.6L7688.67 11798L7720.18 11635.1ZM3099.54 10741.7L3068.03 10904.7L2917.22 10875.5L2934.6 10722.9L3099.54 10741.7ZM3625.04 7628.07L3464.76 7584.89L3464.76 7584.89L3625.04 7628.07ZM6140.25 4967.1L6039.75 4834.98L6140.25 4967.1ZM6444.22 4732.25L6339.73 4603.27L6444.22 4732.25ZM6908.29 3555.99L6742.53 3564.8L6734.59 3415.42L6882.34 3392.03L6908.29 3555.99ZM7044.69 3534.4L7018.73 3370.44L7342.81 3319.13L7192.15 3610.62L7044.69 3534.4ZM7028.78 3571.59L7119.58 3710.56L6713.92 3975.63L6871.84 3517.49L7028.78 3571.59ZM7495.66 3465.7L7476.74 3300.78L7476.74 3300.78L7495.66 3465.7ZM7720.45 3433.85L7685.55 3271.56L7786.42 3249.87L7850.52 3330.71L7720.45 3433.85ZM7909.21 3671.89L8039.28 3568.75L8091.17 3634.19L8069.55 3714.86L7909.21 3671.89ZM7822.2 4352.76L7987.51 4367.86L7987.45 4368.51L7987.39 4369.16L7822.2 4352.76ZM7822.2 4352.76L7656.89 4337.66L7656.95 4337.01L7657.01 4336.36L7822.2 4352.76ZM7806.33 4524.38L7742.32 4677.54L7629.57 4630.41L7641.07 4508.75L7806.33 4524.38ZM8439.03 4675.8L8452.55 4510.35L8439.03 4675.8ZM11163 2912.31C11104.7 2917.6 10909.3 2955.66 10673.3 3005.33C10443.5 3053.69 10190.4 3109.72 10027.5 3146.54L9954.29 2822.71C10118.3 2785.64 10373.1 2729.24 10604.9 2680.45C10830.4 2632.98 11050.2 2589.17 11133.1 2581.67L11163 2912.31ZM10975.6 2831.29L10982.5 2735.13L11313.6 2758.85L11306.8 2855.01L10975.6 2831.29ZM10982.6 2794.15C10990.9 2767.22 10998.8 2741.03 11006.2 2715.65L11324.8 2809.03C11316.9 2836.04 11308.6 2863.76 11299.8 2892.15L10982.6 2794.15ZM11328.5 2730.76L11444.9 3331.6L11119 3394.77L11002.6 2793.93L11328.5 2730.76ZM11440.1 3413.67C11382.2 3595.12 11253.6 3868.17 11118.7 4155.45L10818.2 4014.35C10957.9 3716.7 11074.2 3468.2 11123.8 3312.7L11440.1 3413.67ZM11118.7 4155.45C10946.6 4521.96 10757.8 4924.77 10648.3 5258.33L10332.8 5154.74C10450 4797.97 10648.7 4375.29 10818.2 4014.35L11118.7 4155.45ZM10648.3 5258.33C10555.1 5541.95 10524 5903.88 10486.6 6353.1L10155.8 6325.56C10192.1 5889.54 10224.9 5483.52 10332.8 5154.74L10648.3 5258.33ZM10486.6 6353.1C10429.8 7035.22 10360.3 7879.39 10001 8795.7L9691.95 8674.5C10031.6 7808.33 10098.9 7008.52 10155.8 6325.56L10486.6 6353.1ZM10001 8795.7C9766.75 9393.21 9459.76 9994.12 9128.68 10500C8800.2 11001.9 8438 11425.7 8088.26 11652.3L7907.74 11373.7C8198.97 11185 8530.58 10807.6 8850.89 10318.2C9168.59 9832.75 9465.37 9252.35 9691.95 8674.5L10001 8795.7ZM7832.03 11509.6C7835.17 11354.9 7829.75 11190.1 7819.61 11016.2L8151.05 10996.9C8161.46 11175.5 8167.34 11349.7 8163.96 11516.4L7832.03 11509.6ZM7567.24 11570.5L7832.39 10942L8138.28 11071.1L7873.13 11699.6L7567.24 11570.5ZM3131.05 10578.7L7751.69 11472.1L7688.67 11798L3068.03 10904.7L3131.05 10578.7ZM3785.33 7671.24C3552.09 8537.09 3340.99 10088.7 3264.47 10760.5L2934.6 10722.9C3011.06 10051.6 3224.31 8477.48 3464.76 7584.89L3785.33 7671.24ZM6240.76 5099.21C5865.93 5384.37 5307.31 5809.51 4811.11 6279.06C4563.14 6513.71 4333.7 6756.74 4151.84 6996.12C3968.87 7236.97 3840.76 7465.48 3785.33 7671.24L3464.76 7584.89C3535.96 7320.56 3692.03 7052.56 3887.48 6795.29C4084.04 6536.55 4327.27 6279.83 4582.91 6037.92C5093.92 5554.35 5666.28 5119.1 6039.75 4834.98L6240.76 5099.21ZM6548.72 4861.23C6473.3 4922.33 6366.28 5003.73 6240.76 5099.21L6039.75 4834.98C6167.08 4738.11 6269.21 4660.39 6339.73 4603.27L6548.72 4861.23ZM7074.06 3547.18C7081.83 3693.32 7064.77 3924.97 6991.63 4165.6C6918.49 4406.23 6784.86 4669.92 6548.72 4861.23L6339.73 4603.27C6507.46 4467.38 6612.66 4270.81 6673.98 4069.05C6735.31 3867.29 6748.35 3674.41 6742.53 3564.8L7074.06 3547.18ZM7070.64 3698.35L6934.25 3719.95L6882.34 3392.03L7018.73 3370.44L7070.64 3698.35ZM6871.84 3517.49C6878.83 3497.24 6887.27 3477.43 6897.22 3458.18L7192.15 3610.62C7189.71 3615.34 7187.56 3620.35 7185.72 3625.69L6871.84 3517.49ZM7514.57 3630.62C7426.18 3640.75 7340.39 3650.68 7265.01 3665.28C7185.23 3680.73 7139.4 3697.61 7119.58 3710.56L6937.98 3432.63C7015.34 3382.08 7115.99 3355.98 7201.88 3339.34C7292.17 3321.85 7391.22 3310.59 7476.74 3300.78L7514.57 3630.62ZM7755.35 3596.14C7685.21 3611.23 7596.37 3621.24 7514.57 3630.62L7476.74 3300.78C7564.51 3290.71 7634.84 3282.47 7685.55 3271.56L7755.35 3596.14ZM7779.14 3775.03L7590.38 3536.99L7850.52 3330.71L8039.28 3568.75L7779.14 3775.03ZM7656.89 4337.65C7682.31 4059.36 7706.56 3786.78 7748.86 3628.92L8069.55 3714.86C8036.58 3837.86 8014.43 4073.22 7987.51 4367.86L7656.89 4337.65ZM7657.01 4336.36L7657.01 4336.35L7987.39 4369.16L7987.39 4369.16L7657.01 4336.36ZM7641.07 4508.75C7646.53 4451.01 7651.75 4393.86 7656.89 4337.66L7987.51 4367.86C7982.38 4423.98 7977.12 4481.65 7971.6 4540.01L7641.07 4508.75ZM8425.51 4841.25C8172.69 4820.6 7943.11 4761.47 7742.32 4677.54L7870.35 4371.22C8039.28 4441.83 8234.8 4492.56 8452.55 4510.35L8425.51 4841.25ZM10154.4 3013.51C10098.6 3328.85 9950.68 3796.49 9681.81 4179.82C9411.5 4565.2 9000.06 4888.19 8425.51 4841.25L8452.55 4510.35C8866.09 4544.14 9177.8 4320.22 9410 3989.17C9643.64 3656.07 9777.58 3237.76 9827.42 2955.73L10154.4 3013.51Z" fill="#F9BC15" mask="url(#path-4-outside-1_90_1722)"/>
<path d="M5997.64 6634.82C6813.76 6053.1 7329.65 4278.81 7727.77 3516.7L7891.3 3666.75C7801.65 3990.36 7782.58 4918.4 7629.58 5451.02C7438.34 6116.79 7306.55 7427.47 6858.43 8676.67C6499.93 9676.02 5638.68 10776.6 5066.87 11091.5C5006.98 9812.39 4463.23 7728.55 5997.64 6634.82Z" fill="#E9E9E9"/>
<path d="M9956.87 2964.7C10280.9 2888.18 10963.8 2731.6 11103.6 2717.5L11029.2 3628.27L7623.27 11557.4L3063 10719.4C3145.48 10053.4 3371.22 8502.99 3614.38 7629.58C3918.34 6537.81 5928.36 5142.43 6431.76 4732.11C6834.49 4403.86 6913.5 3815.34 6902.66 3562.12L7732.24 3522.3C7549.7 3871.03 7428.69 4585.97 8405.01 4655.88C9381.32 4725.79 9846.38 3557.55 9956.87 2964.7Z" fill="white"/>
<path d="M9007.31 6446.14C9929.18 5700.12 10829.5 3696.97 11120.7 2732.54L11229.8 3326.57C11106.6 3702.29 10636.9 4541.8 10428.3 5160.76C10167.6 5934.47 10340.2 7201.58 9755.51 8662.91C9287.78 9831.98 9005.09 10925.6 7635.78 11587.6C7679.69 10147.2 7274.08 7848.77 9007.31 6446.14Z" fill="url(#paint3_linear_90_1722)"/>
<path d="M5426.09 9253.22C4523.39 9199.06 3962.32 8576.44 4172.9 7862.57C4383.49 7148.71 5285.99 6613.91 6188.69 6668.08C7091.39 6722.25 7652.47 7344.86 7441.88 8058.73C7231.3 8772.6 6328.8 9307.39 5426.09 9253.22Z" fill="#F9BC15"/>
<path d="M6755.51 7674.38L6628.51 7533.44C6585.03 7485.2 6492.78 7479.66 6422.85 7521.1L6218.56 7642.16C6197.17 7654.83 6172.42 7660.33 6149.68 7658.96C6126.95 7657.6 6106.24 7649.37 6092.94 7634.62C6066.34 7605.1 6079.46 7560.62 6122.24 7535.27L6326.52 7414.21C6481.88 7322.15 6686.84 7334.46 6783.43 7441.63L6910.42 7582.56C6937.02 7612.08 6923.9 7656.56 6881.12 7681.91C6838.35 7707.25 6782.11 7703.89 6755.51 7674.38Z" fill="#41464A"/>
<path d="M5595.17 7604.74L5468.16 7463.81C5424.69 7415.57 5332.43 7410.03 5262.51 7451.47L5058.22 7572.52C5036.84 7585.19 5012.07 7590.69 4989.35 7589.33C4966.61 7587.96 4945.9 7579.74 4932.6 7564.98C4906.01 7535.47 4919.13 7490.99 4961.92 7465.64L5166.2 7344.58C5321.55 7252.52 5526.51 7264.83 5623.1 7372L5750.09 7512.93C5776.7 7542.44 5763.57 7586.92 5720.79 7612.28C5678.01 7637.62 5621.77 7634.25 5595.17 7604.74Z" fill="#41464A"/>
<path d="M5085.79 7995.79C5128.58 7970.42 5184.82 7973.81 5211.42 8003.32C5238.02 8032.84 5224.9 8077.32 5182.11 8102.67L5072.59 8167.57C5133.25 8375.01 5353.68 8522.28 5636.71 8539.26C5919.74 8556.25 6217.88 8440.1 6396.68 8247.03L6328.59 8171.47C6302 8141.95 6315.12 8097.47 6357.9 8072.12C6400.68 8046.78 6456.92 8050.15 6483.53 8079.66L6684.67 8302.86C6711.27 8332.38 6698.15 8376.86 6655.36 8402.21C6633.97 8414.88 6609.21 8420.38 6586.48 8419.02C6563.75 8417.65 6543.04 8409.43 6529.73 8394.67L6497.8 8359.24C6403.68 8449.24 6287.39 8524.81 6155.7 8580.85C5977.14 8656.84 5783.34 8691.05 5595.26 8679.77C5407.18 8668.48 5239.95 8612.61 5111.66 8518.21C5017.05 8448.59 4948.6 8361.93 4909.94 8263.96L4858.57 8294.39C4837.17 8307.07 4812.43 8312.56 4789.68 8311.2C4766.95 8309.84 4746.24 8301.61 4732.94 8286.86C4706.35 8257.34 4719.47 8212.86 4762.25 8187.51L5085.79 7995.79Z" fill="#41464A"/>
<defs>
<linearGradient id="paint0_linear_90_1722" x1="7321" y1="825" x2="7321" y2="13817" gradientUnits="userSpaceOnUse">
<stop stop-color="#F6BA15"/>
<stop offset="1" stop-color="#846203"/>
</linearGradient>
<linearGradient id="paint1_linear_90_1722" x1="7321" y1="825" x2="7321" y2="13817" gradientUnits="userSpaceOnUse">
<stop stop-color="#886403"/>
<stop offset="1" stop-color="#FFE8AA"/>
</linearGradient>
<linearGradient id="paint2_linear_90_1722" x1="7320.68" y1="1258" x2="7320.68" y2="14210" gradientUnits="userSpaceOnUse">
<stop stop-color="white"/>
<stop offset="1" stop-color="white" stop-opacity="0.47"/>
</linearGradient>
<linearGradient id="paint3_linear_90_1722" x1="10166.9" y1="6542.51" x2="6659.94" y2="11141" gradientUnits="userSpaceOnUse">
<stop stop-color="#F4F4F4"/>
<stop offset="1" stop-color="#E5E5E5"/>
</linearGradient>
</defs>
</svg>
