<svg width="527" height="527" viewBox="0 0 527 527" fill="none" xmlns="http://www.w3.org/2000/svg">
<g style="mix-blend-mode:luminosity">
<circle cx="263" cy="263" r="263" fill="#D9D9D9"/>
<g opacity="0.5">
<path d="M496.716 263.186C496.716 392.161 392.161 496.716 263.186 496.716C134.211 496.716 29.6562 392.161 29.6562 263.186C29.6562 134.211 134.211 29.6562 263.186 29.6562C392.161 29.6562 496.716 134.211 496.716 263.186Z" fill="url(#paint0_linear_180_621)"/>
<path fill-rule="evenodd" clip-rule="evenodd" d="M526.377 263.188C526.377 408.543 408.543 526.377 263.188 526.377C117.833 526.377 0 408.543 0 263.188C0 117.833 117.833 0 263.188 0C408.543 0 526.377 117.833 526.377 263.188ZM263.188 496.718C392.163 496.718 496.718 392.163 496.718 263.188C496.718 134.213 392.163 29.6586 263.188 29.6586C134.213 29.6586 29.6586 134.213 29.6586 263.188C29.6586 392.163 134.213 496.718 263.188 496.718Z" fill="url(#paint1_linear_180_621)"/>
<path opacity="0.5" fill-rule="evenodd" clip-rule="evenodd" d="M456.685 132.404C457.93 134.242 459.15 136.099 460.343 137.974C461.761 147.04 463.101 156.53 464.295 166.329L427.665 203.649L456.685 132.404ZM347.197 45.2344C349.677 46.1908 352.137 47.1883 354.575 48.2261L326.521 146.94L323.31 45.2344H347.197ZM86.9107 110.023C96.1598 99.388 106.355 89.5979 117.366 80.7841L190.545 238.13L86.9107 110.023ZM364.08 473.872C369.71 471.171 375.215 468.251 380.583 465.123C369.243 440.056 344.021 422.628 314.708 422.628L314.711 422.627C274.779 422.627 242.444 454.969 242.444 494.901C242.444 495.21 242.446 495.516 242.449 495.82C244.701 496.018 246.962 496.185 249.231 496.318C260.659 471.58 285.608 454.54 314.71 454.54C333.869 454.54 351.21 461.841 364.08 473.872ZM179.415 481.252L148.201 427.991L222.959 435.937L171.524 326.656L280.971 406.133L268.415 222.016L343.171 391.564L418.527 302.153L412.968 431.958C422.49 418.868 430.796 404.431 440.718 386.566C446.173 376.746 450.708 366.156 454.44 354.997L451.324 355.077L461.483 329.229C469.98 290.37 470.831 247.017 468.085 206.116L390.956 249.014L378.766 110.162L313.753 249.657L231.215 45.2344H227.777L226.1 271.511L56.8858 228.513L56.875 228.86L166.891 396.863L88.5612 392.297C92.8626 399.975 96.9019 407.011 100.933 413.592L162.341 473.89C167.914 476.562 173.609 479.02 179.415 481.252Z" fill="url(#paint2_linear_180_621)"/>
<path fill-rule="evenodd" clip-rule="evenodd" d="M359.176 107.291C370.927 104.635 395.698 99.2081 400.777 98.7486L400.529 102.206C400.836 101.211 401.128 100.242 401.404 99.3006L405.59 120.901C403.657 126.957 399.255 136.332 394.319 146.846C388.18 159.922 381.214 174.76 377.139 187.169C373.524 198.177 372.375 211.98 371.05 227.892C369.008 252.43 366.549 281.98 353.985 314.02C337.417 356.274 310.575 398.956 287.532 413.885C287.649 408.107 287.446 402.014 287.077 395.678L277.545 418.273L111.434 386.156C114.183 362.015 121.811 305.83 130.325 274.222C139.43 240.423 193.845 199.026 220.747 178.561C225.292 175.103 229.051 172.243 231.674 170.118C246.193 158.355 248.846 137.026 248.358 127.832L253.261 127.056C253.038 127.487 252.848 127.933 252.689 128.393C256.183 126.11 263.221 125.303 269.473 124.586C272.521 124.236 275.382 123.908 277.554 123.441L284.34 131.998C282.987 137.047 282.153 146.177 281.212 156.475L281.212 156.475C281.028 158.494 280.839 160.558 280.642 162.645C287.288 165.423 294.929 167.398 303.387 168.089C338.909 170.991 355.381 128.767 359.176 107.291Z" fill="#F9BC15"/>
<path fill-rule="evenodd" clip-rule="evenodd" d="M412.868 86.4313L399.77 87.6166C396.404 87.9211 388.121 89.5864 380.176 91.2585C371.811 93.0193 362.624 95.0527 356.712 96.389L349.461 98.028L348.167 105.348C346.468 114.964 341.873 129.228 334.027 140.414C326.278 151.462 316.637 157.957 304.298 156.949C300.127 156.608 296.213 155.906 292.582 154.931C293.462 145.403 294.185 138.458 295.14 134.895L296.596 129.462L281.998 111.052L275.204 112.514C274.636 112.636 273.968 112.75 273.183 112.864L273.34 112.56L265.647 113.778C263.188 114.073 260.477 114.434 257.922 114.929C257.443 115.021 256.935 115.125 256.405 115.241L236.659 118.367L237.194 128.428C237.373 131.795 236.967 138.12 234.948 144.763C232.929 151.406 229.593 157.419 224.637 161.434C222.179 163.425 218.584 166.162 213.978 169.666L213.845 169.767C200.436 179.968 179.72 195.727 161.179 213.273C151.868 222.084 142.907 231.528 135.61 241.133C128.388 250.64 122.338 260.895 119.531 271.317C110.774 303.825 103.074 360.77 100.326 384.893L99.1553 395.172L276.037 429.371L275.928 434.727L282.32 430.586L284.323 430.973L285.301 428.655L293.612 423.27C307.103 414.529 320.605 398.563 332.542 380.324C344.654 361.818 355.851 339.893 364.395 318.104C377.556 284.539 380.128 253.632 382.163 229.178L382.193 228.822C383.554 212.466 384.646 200.147 387.761 190.66C391.58 179.033 398.213 164.864 404.44 151.6L404.796 150.843C409.45 140.931 414.084 131.062 416.241 124.303L417.11 121.581L412.381 97.176L412.1 97.1628L412.868 86.4313ZM405.591 120.903C403.657 126.96 399.256 136.335 394.32 146.849C388.181 159.925 381.215 174.763 377.139 187.171C373.524 198.179 372.376 211.983 371.051 227.895C369.009 252.432 366.549 281.982 353.986 314.022C340.032 349.61 318.79 385.501 298.668 404.859C296.878 406.581 295.097 408.172 293.331 409.621C291.378 411.223 289.442 412.65 287.533 413.887C287.622 409.461 287.524 404.85 287.307 400.086C287.241 398.631 287.164 397.163 287.078 395.681L277.545 418.276L111.434 386.159C114.184 362.017 121.812 305.833 130.326 274.225C139.431 240.425 193.846 199.029 220.747 178.564C225.292 175.106 229.052 172.246 231.675 170.121C239.559 163.734 243.944 154.527 246.227 145.973C248.149 138.773 248.582 132.037 248.358 127.835L253.262 127.058C253.172 127.232 253.087 127.409 253.008 127.587C252.89 127.852 252.784 128.121 252.69 128.395C252.914 128.249 253.154 128.108 253.406 127.973C253.672 127.831 253.952 127.696 254.245 127.567C254.284 127.55 254.324 127.532 254.363 127.515C257.568 126.137 262.328 125.436 266.973 124.88C267.813 124.779 268.65 124.683 269.474 124.589C272.522 124.239 275.383 123.911 277.555 123.444L284.341 132.001C282.988 137.05 282.154 146.18 281.213 156.478C281.028 158.497 280.84 160.561 280.642 162.648C287.288 165.426 294.929 167.401 303.388 168.092C338.91 170.994 355.381 128.769 359.177 107.294C366.766 105.579 379.786 102.707 389.424 100.765C390.812 100.485 392.129 100.225 393.35 99.9901C396.128 99.4558 398.407 99.0532 399.878 98.8556C400.224 98.8091 400.525 98.774 400.777 98.7512L400.53 102.208C400.677 101.73 400.821 101.258 400.962 100.792C401.114 100.289 401.261 99.7922 401.405 99.3031L405.591 120.903Z" fill="#F9BC15"/>
<path d="M215.623 238.51C244.962 217.597 263.508 153.812 277.82 126.414L283.699 131.808C280.476 143.442 279.791 176.805 274.29 195.953C267.415 219.887 262.677 267.006 246.567 311.914C233.68 347.84 202.718 387.404 182.161 398.727C180.008 352.743 160.461 277.829 215.623 238.51Z" fill="#E9E9E9"/>
<path d="M357.956 106.576C369.604 103.825 394.155 98.1966 399.182 97.6896L396.507 130.432L274.064 415.483L110.123 385.358C113.088 361.414 121.204 305.677 129.945 274.278C140.873 235.029 213.132 184.865 231.23 170.114C245.708 158.314 248.548 137.157 248.158 128.053L277.982 126.622C271.419 139.159 267.069 164.861 302.167 167.374C337.266 169.887 353.984 127.889 357.956 106.576Z" fill="white"/>
<path d="M323.82 231.73C356.961 204.911 389.328 132.898 399.797 98.2266L403.717 119.582C399.288 133.089 382.404 163.269 374.906 185.521C365.534 213.335 371.736 258.888 350.718 311.422C333.903 353.45 323.74 392.764 274.514 416.565C276.093 364.784 261.511 282.154 323.82 231.73Z" fill="url(#paint3_linear_180_621)"/>
<path d="M195.067 332.644C162.616 330.697 142.445 308.314 150.016 282.65C157.586 256.987 190.031 237.761 222.483 239.709C254.935 241.656 275.105 264.039 267.535 289.702C259.964 315.365 227.519 334.591 195.067 332.644Z" fill="#F9BC15"/>
<path d="M242.861 275.882L238.295 270.815C236.732 269.081 233.416 268.882 230.902 270.372L223.558 274.724C222.789 275.179 221.899 275.377 221.081 275.328C220.264 275.279 219.52 274.983 219.041 274.453C218.085 273.391 218.557 271.792 220.095 270.881L227.439 266.529C233.024 263.219 240.392 263.662 243.864 267.515L248.43 272.581C249.386 273.642 248.915 275.241 247.376 276.153C245.839 277.064 243.817 276.943 242.861 275.882Z" fill="#41464A"/>
<path d="M201.142 273.382L196.576 268.315C195.013 266.581 191.696 266.382 189.183 267.872L181.839 272.223C181.07 272.679 180.179 272.877 179.362 272.828C178.545 272.779 177.801 272.483 177.322 271.952C176.366 270.891 176.838 269.292 178.376 268.381L185.72 264.029C191.305 260.719 198.674 261.162 202.146 265.015L206.711 270.081C207.668 271.142 207.196 272.741 205.658 273.653C204.12 274.564 202.098 274.443 201.142 273.382Z" fill="#41464A"/>
<path d="M182.831 287.439C184.369 286.527 186.391 286.648 187.347 287.71C188.303 288.771 187.832 290.37 186.294 291.281L182.356 293.614C184.537 301.072 192.462 306.366 202.636 306.977C212.811 307.587 223.529 303.412 229.957 296.471L227.509 293.754C226.553 292.693 227.025 291.094 228.563 290.183C230.101 289.272 232.123 289.393 233.079 290.454L240.31 298.478C241.267 299.539 240.795 301.138 239.257 302.05C238.488 302.505 237.598 302.703 236.78 302.654C235.963 302.605 235.219 302.309 234.74 301.779L233.592 300.505C230.209 303.74 226.028 306.457 221.294 308.472C214.875 311.204 207.908 312.433 201.146 312.028C194.385 311.622 188.373 309.613 183.761 306.22C180.36 303.717 177.899 300.602 176.509 297.079L174.662 298.174C173.893 298.629 173.003 298.827 172.186 298.778C171.369 298.729 170.624 298.433 170.146 297.903C169.19 296.841 169.662 295.243 171.2 294.331L182.831 287.439Z" fill="#41464A"/>
</g>
</g>
<path d="M509 425C509 458.689 481.689 486 448 486C414.311 486 387 458.689 387 425C387 391.311 414.311 364 448 364C481.689 364 509 391.311 509 425Z" fill="white"/>
<path fill-rule="evenodd" clip-rule="evenodd" d="M526 425C526 468.078 491.078 503 448 503C404.922 503 370 468.078 370 425C370 381.922 404.922 347 448 347C491.078 347 526 381.922 526 425ZM448 486C481.689 486 509 458.689 509 425C509 391.311 481.689 364 448 364C414.311 364 387 391.311 387 425C387 458.689 414.311 486 448 486Z" fill="#7C7C7C"/>
<path d="M426.896 416.044V409.017C426.896 403.427 429.12 398.065 433.078 394.112C437.036 390.158 442.404 387.938 448.002 387.938C453.6 387.938 458.968 390.158 462.926 394.112C466.884 398.065 469.107 403.427 469.107 409.017V416.044H472.625C474.491 416.044 476.28 416.784 477.6 418.102C478.919 419.42 479.66 421.207 479.66 423.07V451.177C479.66 453.04 478.919 454.828 477.6 456.145C476.28 457.463 474.491 458.203 472.625 458.203H423.379C421.513 458.203 419.724 457.463 418.404 456.145C417.085 454.828 416.344 453.04 416.344 451.177V423.07C416.344 419.206 419.51 416.044 423.379 416.044H426.896ZM444.484 439.688V447.663H451.52V439.688C452.861 438.915 453.909 437.721 454.502 436.292C455.094 434.863 455.198 433.279 454.797 431.784C454.397 430.29 453.513 428.97 452.285 428.029C451.056 427.087 449.551 426.576 448.002 426.576C446.453 426.576 444.948 427.087 443.719 428.029C442.491 428.97 441.607 430.29 441.207 431.784C440.806 433.279 440.91 434.863 441.502 436.292C442.095 437.721 443.143 438.915 444.484 439.688ZM437.449 409.017V416.044H458.555V409.017C458.555 406.222 457.443 403.541 455.464 401.564C453.485 399.588 450.801 398.477 448.002 398.477C445.203 398.477 442.519 399.588 440.54 401.564C438.561 403.541 437.449 406.222 437.449 409.017Z" fill="#7C7C7C"/>
<defs>
<linearGradient id="paint0_linear_180_621" x1="263.186" y1="29.6562" x2="263.186" y2="496.716" gradientUnits="userSpaceOnUse">
<stop stop-color="#F6BA15"/>
<stop offset="1" stop-color="#846203"/>
</linearGradient>
<linearGradient id="paint1_linear_180_621" x1="263.188" y1="29.6586" x2="263.188" y2="496.718" gradientUnits="userSpaceOnUse">
<stop stop-color="#886403"/>
<stop offset="1" stop-color="#FFE8AA"/>
</linearGradient>
<linearGradient id="paint2_linear_180_621" x1="263.179" y1="45.2344" x2="263.179" y2="510.856" gradientUnits="userSpaceOnUse">
<stop stop-color="white"/>
<stop offset="1" stop-color="white" stop-opacity="0.47"/>
</linearGradient>
<linearGradient id="paint3_linear_180_621" x1="365.508" y1="235.194" x2="239.433" y2="400.51" gradientUnits="userSpaceOnUse">
<stop stop-color="#F4F4F4"/>
<stop offset="1" stop-color="#E5E5E5"/>
</linearGradient>
</defs>
</svg>
