<svg width="2928" height="1793" viewBox="0 0 2928 1793" fill="none" xmlns="http://www.w3.org/2000/svg">
<path opacity="0.25" fill-rule="evenodd" clip-rule="evenodd" d="M1459.62 1428.41C940.173 1428.41 519.079 1331.56 519.079 1212.08C519.079 1092.61 940.173 995.762 1459.62 995.762C1979.07 995.762 2400.16 1092.61 2400.16 1212.08C2400.16 1246.3 2365.62 1278.66 2304.13 1307.42C2448.11 1326.6 2544.96 1362.41 2544.96 1403.44C2544.96 1464.67 2329.14 1514.31 2062.92 1514.31C1830.78 1514.31 1636.97 1476.57 1591.14 1426.31C1548.16 1427.69 1504.26 1428.41 1459.62 1428.41ZM447.29 1546.82C447.29 1589.8 598.825 1624.65 785.752 1624.65C972.679 1624.65 1124.21 1589.8 1124.21 1546.82C1124.21 1503.83 972.679 1468.99 785.752 1468.99C598.825 1468.99 447.29 1503.83 447.29 1546.82ZM486.577 1415.65C378.011 1415.65 290.001 1395.39 290.001 1370.39C290.001 1345.4 378.011 1325.13 486.577 1325.13C595.143 1325.13 683.154 1345.4 683.154 1370.39C683.154 1395.39 595.143 1415.65 486.577 1415.65Z" fill="#906A00"/>
<path fill-rule="evenodd" clip-rule="evenodd" d="M2319.89 1098.11L2366.79 1121.7L2321.98 1138.79L2322.39 1139.68L2267.21 1176.2L2262.67 1177.17C2239.41 1182.12 2200.57 1187.4 2158.7 1193.1L2158.7 1193.1L2157.43 1193.27C2103.85 1200.56 2044.32 1208.67 1999.25 1218.03C1960.54 1226.06 1919.8 1241.16 1870.22 1259.59L1869.93 1259.7C1794.1 1287.89 1701.16 1322.45 1574.67 1344.42C1411.25 1372.79 1255.59 1391.47 1148.99 1374.38L1069.28 1361.61L1067.41 1361.91L696.002 1032.24L733.474 1019.21C809.908 992.631 991.865 932.33 1105.77 904.782C1170.03 889.238 1268.2 889.987 1363.66 895.921C1459.97 901.909 1557.06 913.461 1620.88 921.054L1621.07 921.076C1642.74 923.655 1660.35 925.75 1672.93 927.041C1738.04 933.724 1801.4 912.21 1823.72 901.147L1834.05 896.025L1934.74 940.512L1940.07 939.897L1938.42 1000.73L1920.73 1005.02C1906.62 1008.45 1884.66 1016.2 1857.78 1025.98C1862.54 1030.21 1867.96 1034.52 1874.13 1038.86C1908.66 1063.17 1963.25 1070.92 2022.02 1068.42C2079.77 1065.96 2136.45 1053.87 2170.53 1043.58L2178.68 1041.12L2186.59 1044.19C2223.47 1058.51 2304.19 1090.22 2319.89 1098.11ZM2154.1 1170.21C2196.95 1164.38 2235.17 1159.18 2257.52 1154.42L2308.85 1120.45C2308.84 1120.45 2308.83 1120.45 2308.83 1120.45L2257.51 1154.42C2235.15 1159.18 2196.94 1164.38 2154.08 1170.21C2100.78 1177.46 2040.3 1185.69 1994.21 1195.26C1953.32 1203.75 1910.72 1219.59 1861.61 1237.85C1785.88 1266.01 1694.68 1299.92 1570.43 1321.49C1406.58 1349.94 1254.85 1367.74 1152.91 1351.41C1152.91 1351.41 1152.91 1351.41 1152.91 1351.41C1166.97 1353.66 1181.97 1355.27 1197.82 1356.28C1296.93 1362.63 1429.18 1346.02 1570.44 1321.49C1694.69 1299.92 1785.89 1266.01 1861.62 1237.85L1861.62 1237.85L1861.62 1237.85C1910.73 1219.59 1953.33 1203.75 1994.22 1195.26C2040.31 1185.69 2100.79 1177.46 2154.09 1170.21L2154.09 1170.21L2154.1 1170.21L2154.1 1170.21ZM1229.34 1312.61L1075.02 1337.1L1075.02 1337.1L1229.35 1312.6C1229.35 1312.6 1229.34 1312.6 1229.34 1312.61ZM1834.65 921.88C1834.65 921.88 1834.65 921.879 1834.65 921.879L1849.45 928.416C1845.86 928.828 1842.42 929.512 1839.17 930.447C1835.42 931.522 1831.9 932.931 1828.65 934.641C1818.84 939.802 1811.46 947.709 1807.4 957.5C1807.19 958.005 1806.99 958.515 1806.79 959.03C1804.12 966.199 1803.19 974.316 1804.33 983.062C1804.33 983.062 1804.33 983.063 1804.32 983.063C1800.53 953.968 1819.65 931.833 1849.44 928.414L1834.65 921.88ZM1915.33 966.198C1915.33 966.198 1915.33 966.198 1915.34 966.197L1914.9 982.434C1904.31 985.003 1890.12 989.654 1873.7 995.432C1863.39 999.06 1852.21 1003.13 1840.48 1007.41L1836.56 1008.85C1830.28 1011.14 1823.87 1013.48 1817.37 1015.84C1821.53 1022.16 1826.71 1028.58 1833.01 1035.02C1840.43 1042.6 1849.38 1050.21 1860.02 1057.7C1875.53 1068.62 1893.88 1076.49 1913.93 1081.92C1893.87 1076.49 1875.52 1068.62 1860.01 1057.7C1840.32 1043.83 1826.41 1029.58 1817.36 1015.84C1823.86 1013.48 1830.27 1011.14 1836.55 1008.85C1868.55 997.156 1896.91 986.793 1914.89 982.431L1915.33 966.198ZM2177.67 1065.81C2177.67 1065.81 2177.67 1065.81 2177.67 1065.81C2205.07 1076.45 2254.24 1095.75 2284.62 1108.29C2287.54 1109.5 2290.29 1110.64 2292.83 1111.71C2293.21 1111.87 2293.59 1112.03 2293.96 1112.19C2294.66 1112.48 2295.34 1112.77 2296 1113.05C2300.68 1115.04 2304.47 1116.7 2307.08 1117.93C2307.56 1118.16 2308 1118.37 2308.39 1118.56C2308.54 1118.64 2308.69 1118.71 2308.83 1118.78L2298.3 1122.8C2298.28 1122.8 2298.27 1122.8 2298.26 1122.81L2308.82 1118.78C2294.49 1111.57 2215.42 1080.47 2177.67 1065.81ZM1852.27 951.54C1850.63 951.728 1849.09 951.997 1847.65 952.337C1849.69 952.012 1851.71 951.69 1853.72 951.373L1852.27 951.54Z" fill="url(#paint0_linear_119_210)" fill-opacity="0.45"/>
<path fill-rule="evenodd" clip-rule="evenodd" d="M2169.2 745.467C2207.46 767.819 2287.63 815.318 2302.23 826.494L2291.88 833.512C2295.47 832.06 2298.96 830.626 2302.32 829.215L2252.69 886.831C2230.62 895.53 2192.78 905.613 2150.33 916.921C2097.55 930.984 2037.65 946.943 1992.15 964.49C1951.78 980.056 1910.04 1007.7 1861.91 1039.56C1787.71 1088.7 1698.34 1147.88 1575.5 1188.28C1413.49 1241.58 1263.1 1276.96 1160.8 1254.54C1186.29 1235.34 1210.73 1212.49 1235.26 1187.98L1082.56 1234.42L737.23 765.025C812.181 718.458 989.836 613.03 1100.85 563.855C1219.56 511.27 1478.37 550.699 1606.32 570.192C1627.94 573.485 1645.82 576.21 1658.66 577.825C1729.73 586.766 1796.53 546.159 1821.05 524.738L1836.09 534.796C1806.56 541.62 1788.49 578.563 1793.56 625.914C1835.5 612.608 1873.36 600.711 1903.41 593.742L1903.69 620.273C1885.98 628.144 1858.17 646.249 1826.81 666.671C1820.66 670.675 1814.37 674.768 1808 678.89C1817.62 700.957 1832.11 723.645 1852.35 745.467C1937.32 837.111 2098.99 783.652 2169.2 745.467Z" fill="#B1B1B1"/>
<path fill-rule="evenodd" clip-rule="evenodd" d="M2348.17 827.968L2318.72 805.431C2309.88 798.668 2284.48 783.018 2258.56 767.393C2231.77 751.244 2202.05 733.714 2182.85 722.495L2169.44 714.662L2155.92 722.017C2123.09 739.87 2068.5 761.377 2012.99 767.579C1957.19 773.812 1906.25 764.167 1872.28 727.532C1860.24 714.544 1850.57 701.347 1842.98 688.351C1874.85 667.604 1899.99 651.38 1915.05 644.688L1931 637.6L1930.18 559.997L1896.95 567.705C1875.19 572.749 1849.75 580.209 1822.28 588.721C1823.38 584.193 1824.81 580.165 1826.45 576.684C1831.54 565.944 1837.79 561.948 1842.54 560.851L1902.41 547.011L1818.63 490.949L1802.96 504.64C1792.9 513.42 1772.6 527.362 1746.71 537.946C1720.86 548.514 1691.25 554.999 1661.82 551.297C1649.42 549.737 1631.97 547.08 1610.19 543.763L1609.85 543.71C1545.98 533.98 1448.28 519.096 1351.49 513.3C1256.06 507.585 1155.54 510.198 1089.53 539.44C976.618 589.454 797.547 695.795 722.607 742.355L698.312 757.45L1072.2 1265.66L1120.74 1250.89L1097.9 1268.1L1155.18 1280.66C1211.51 1293 1278.84 1289.09 1350.9 1276.13C1423.34 1263.1 1502.8 1240.49 1584.32 1213.68C1710.61 1172.13 1802.47 1111.31 1876.61 1062.21L1877.19 1061.83C1926.09 1029.45 1965.2 1003.71 2002.25 989.423C2046.11 972.512 2104.44 956.938 2157.66 942.757L2159.6 942.242C2200.52 931.339 2239.45 920.968 2262.98 911.692L2269.14 909.262L2323.07 846.665L2322.24 845.553L2348.17 827.968ZM2252.69 886.838C2230.62 895.536 2192.78 905.619 2150.34 916.927L2150.34 916.927C2097.55 930.991 2037.65 946.949 1992.15 964.496C1951.79 980.062 1910.04 1007.71 1861.92 1039.57C1787.71 1088.71 1698.34 1147.88 1575.5 1188.29C1431.85 1235.54 1297.33 1268.72 1197.37 1260C1184.6 1258.88 1172.39 1257.09 1160.8 1254.54C1170.1 1247.54 1179.26 1240.05 1188.34 1232.17C1189.41 1231.24 1190.49 1230.3 1191.56 1229.36C1206.25 1216.42 1220.74 1202.5 1235.26 1187.99L1082.57 1234.43L737.233 765.031C744.071 760.783 751.764 756.044 760.183 750.903C844.046 699.695 999.968 608.55 1100.85 563.861C1219.57 511.277 1478.38 550.706 1606.33 570.199C1627.94 573.492 1645.82 576.216 1658.66 577.831C1702.94 583.402 1745.57 569.739 1777.34 553.466C1796.56 543.62 1811.81 532.819 1821.06 524.745L1836.09 534.803C1834.48 535.175 1832.9 535.638 1831.36 536.186C1823.7 538.912 1816.93 543.774 1811.29 550.377C1806.13 556.414 1801.9 563.907 1798.79 572.556C1796.06 580.153 1794.19 588.641 1793.3 597.818C1792.45 606.613 1792.5 616.04 1793.56 625.92C1802.59 623.056 1811.43 620.257 1820.04 617.558C1840.22 611.237 1859.15 605.467 1876.37 600.698C1880.86 599.453 1885.24 598.276 1889.49 597.175C1890.53 596.907 1891.56 596.643 1892.58 596.384C1896.29 595.442 1899.91 594.562 1903.41 593.748L1903.69 620.279C1902.25 620.92 1900.74 621.63 1899.16 622.403C1881.42 631.116 1855.62 647.92 1826.81 666.678C1820.66 670.681 1814.37 674.774 1808 678.896C1817.63 700.964 1832.12 723.652 1852.35 745.473C1937.33 837.117 2098.99 783.658 2169.2 745.473C2197.01 761.72 2246.96 791.25 2277.78 810.463C2278.87 811.145 2279.94 811.814 2280.99 812.469C2281.9 813.044 2282.8 813.608 2283.67 814.16C2284.71 814.814 2285.72 815.452 2286.69 816.073C2292.7 819.901 2297.5 823.067 2300.6 825.296C2301.21 825.734 2301.76 826.136 2302.23 826.5L2291.88 833.519C2294.32 832.536 2296.7 831.562 2299.02 830.598C2300.14 830.137 2301.24 829.678 2302.33 829.222L2252.69 886.838Z" fill="#F9BC15"/>
<path d="M1424.66 689.925C1560.25 714.283 1787.86 618.321 1902.26 592.332L1902.53 618.321C1861.44 636.206 1766.02 708.036 1697.87 737.004C1612.69 773.214 1468.05 865.612 1299.8 925.849C1165.2 974.039 973.017 986.862 887.357 962.462C1010.75 856.025 1169.72 644.129 1424.66 689.925Z" fill="#E9E9E9"/>
<path d="M2168 740.955C2206.26 762.85 2286.41 809.377 2301.01 820.325L2202.12 886.011L1081.26 1219.91L736.027 760.113C810.988 714.498 988.665 611.225 1099.69 563.055C1238.47 502.843 1568.66 565.792 1657.5 576.74C1728.56 585.498 1795.38 545.721 1819.9 524.738L1902.1 593.161C1849.72 605.021 1766.19 651.184 1851.15 740.955C1936.11 830.725 2097.78 778.359 2168 740.955Z" fill="white"/>
<path d="M1727.32 934.666C1889.45 955.14 2176.38 874.227 2301.11 822.996L2251.46 879.435C2201.95 898.552 2073 924.496 1990.9 955.505C1888.28 994.267 1776.72 1109.47 1574.2 1174.72C1412.19 1226.93 1275.23 1289.12 1079.4 1223.39C1228.84 1113.14 1422.48 896.172 1727.32 934.666Z" fill="url(#paint1_linear_119_210)"/>
<path d="M1106.65 847.922C1027.04 765.749 1036.97 668.046 1128.83 629.697C1220.69 591.348 1359.69 626.875 1439.3 709.048C1518.91 791.221 1508.98 888.924 1417.12 927.273C1325.26 965.622 1186.26 930.095 1106.65 847.922Z" fill="#F9BC15"/>
<path d="M1391.2 837.62L1393.45 815.504C1394.22 807.934 1386.08 799.536 1375.31 796.784L1343.85 788.742C1340.56 787.9 1337.67 786.199 1335.66 784.129C1333.66 782.06 1332.54 779.622 1332.77 777.306C1333.24 772.675 1338.97 770.285 1345.55 771.969L1377.02 780.01C1400.95 786.125 1419.02 804.784 1417.31 821.602L1415.06 843.717C1414.59 848.349 1408.87 850.738 1402.28 849.054C1395.69 847.371 1390.73 842.252 1391.2 837.62Z" fill="#41464A"/>
<path d="M1288.87 731.986L1291.12 709.87C1291.89 702.3 1283.75 693.902 1272.98 691.15L1241.52 683.108C1238.23 682.266 1235.34 680.565 1233.33 678.496C1231.33 676.426 1230.21 673.988 1230.44 671.673C1230.91 667.041 1236.64 664.652 1243.23 666.336L1274.69 674.377C1298.62 680.492 1316.69 699.151 1314.98 715.969L1312.74 738.084C1312.27 742.716 1306.54 745.106 1299.95 743.421C1293.36 741.737 1288.4 736.618 1288.87 731.986Z" fill="#41464A"/>
<path d="M1201.42 718.999C1208.01 720.682 1212.97 725.802 1212.5 730.434C1212.03 735.067 1206.31 737.456 1199.72 735.771L1182.85 731.46C1167.64 753.117 1173.56 783.796 1198.52 809.56C1223.48 835.324 1263.29 851.852 1299.62 851.993L1300.82 840.136C1301.3 835.504 1307.02 833.115 1313.61 834.799C1320.2 836.484 1325.16 841.603 1324.69 846.235L1321.13 881.261C1320.66 885.893 1314.93 888.282 1308.34 886.598C1305.05 885.755 1302.16 884.055 1300.16 881.985C1298.15 879.916 1297.03 877.478 1297.26 875.162L1297.83 869.601C1279.88 868.606 1261.3 864.556 1243.23 857.631C1218.74 848.241 1197.02 834.229 1180.44 817.108C1163.85 799.986 1153.73 781.135 1151.16 762.591C1149.27 748.916 1151.56 736.151 1157.8 725.058L1149.89 723.035C1146.59 722.193 1143.7 720.493 1141.7 718.423C1139.69 716.353 1138.57 713.915 1138.81 711.599C1139.28 706.968 1145 704.579 1151.59 706.262L1201.42 718.999Z" fill="#41464A"/>
<defs>
<linearGradient id="paint0_linear_119_210" x1="855.875" y1="1265.36" x2="2226.54" y2="1188.14" gradientUnits="userSpaceOnUse">
<stop/>
<stop offset="1" stop-opacity="0"/>
</linearGradient>
<linearGradient id="paint1_linear_119_210" x1="1826.88" y1="1042.35" x2="1036.24" y2="1135.66" gradientUnits="userSpaceOnUse">
<stop stop-color="#F4F4F4"/>
<stop offset="1" stop-color="#E5E5E5"/>
</linearGradient>
</defs>
</svg>
