<svg width="2928" height="1792" viewBox="0 0 2928 1792" fill="none" xmlns="http://www.w3.org/2000/svg">
<path fill-rule="evenodd" clip-rule="evenodd" d="M1507.65 1453.77C975.761 1453.77 544.576 1332.46 544.576 1182.83C544.576 1033.2 975.761 911.895 1507.65 911.895C2039.55 911.895 2470.73 1033.2 2470.73 1182.83C2470.73 1225.68 2435.37 1266.21 2372.4 1302.24C2519.83 1326.26 2619 1371.12 2619 1422.49C2619 1499.19 2398.01 1561.36 2125.41 1561.36C1887.7 1561.36 1689.25 1514.09 1642.32 1451.14C1598.32 1452.87 1553.36 1453.77 1507.65 1453.77ZM471.06 1602.07C471.06 1655.91 626.226 1699.55 817.632 1699.55C1009.04 1699.55 1164.2 1655.91 1164.2 1602.07C1164.2 1548.23 1009.04 1504.59 817.632 1504.59C626.226 1504.59 471.06 1548.23 471.06 1602.07ZM511.288 1437.79C400.12 1437.79 310.001 1412.41 310.001 1381.11C310.001 1349.8 400.12 1324.42 511.288 1324.42C622.455 1324.42 712.575 1349.8 712.575 1381.11C712.575 1412.41 622.455 1437.79 511.288 1437.79Z" fill="#920000" fill-opacity="0.25"/>
<path fill-rule="evenodd" clip-rule="evenodd" d="M1961.78 1331.56C1994.96 1334.92 2032.91 1328.63 2071.03 1315.49C2132.29 1304.23 2202.08 1271.82 2247.61 1230.53C2293.14 1189.25 2301.65 1150.62 2275.07 1130.45C2270.68 1112.99 2252.84 1101.04 2219.66 1097.67C2215.6 1097.26 2211.39 1096.99 2207.04 1096.84L1174.94 992.118L1172.43 994.399C1164.18 991.899 1155.12 990.107 1145.35 989.116C1123.35 986.883 1100.03 988.943 1076.31 994.452C1075.49 994.355 1074.66 994.263 1073.82 994.178C1001.72 986.862 891.207 1028.14 826.99 1086.39C762.772 1144.63 769.166 1197.77 841.271 1205.09C842.109 1205.17 842.953 1205.25 843.801 1205.32C851.821 1214.05 866.358 1219.95 888.364 1222.19C898.136 1223.18 908.926 1223.4 920.469 1222.91L917.954 1225.19L1950.05 1329.92C1953.81 1330.59 1957.72 1331.14 1961.78 1331.56Z" fill="url(#paint0_linear_119_209)" fill-opacity="0.25"/>
<path fill-rule="evenodd" clip-rule="evenodd" d="M1896.2 1236.85C1926.13 1240.26 1954.2 1218.48 1978.25 1179.34C2022.89 1141.37 2061.85 1048.57 2075 937.011C2088.16 825.45 2071.83 726.351 2037.21 679.356C2022.91 635.845 2000.65 608.332 1970.72 604.922C1967.05 604.504 1963.34 604.456 1959.6 604.763L1028.42 498.684L1027.69 504.847C1019.24 499.788 1010.54 496.647 1001.72 495.643C981.867 493.381 963.522 502.192 946.936 519.796C946.188 519.676 945.435 519.573 944.679 519.487C879.625 512.076 811.844 633.636 793.287 791C774.73 948.363 812.424 1081.94 877.479 1089.35C878.235 1089.44 878.991 1089.5 879.748 1089.56C891.797 1110.42 907.605 1123.12 927.459 1125.38C936.275 1126.39 945.48 1125.29 954.883 1122.26L954.156 1128.43L1885.34 1234.51C1888.91 1235.65 1892.53 1236.43 1896.2 1236.85Z" fill="#920000"/>
<path fill-rule="evenodd" clip-rule="evenodd" d="M903.386 1116.4C910.632 1121.32 918.65 1124.38 927.466 1125.39C936.282 1126.39 945.487 1125.29 954.889 1122.26L954.163 1128.43L1885.34 1234.51C1888.92 1235.65 1892.54 1236.43 1896.2 1236.85C1926.14 1240.26 1954.21 1218.48 1978.26 1179.34C2022.9 1141.37 2061.85 1048.57 2075.01 937.011C2088.17 825.451 2071.84 726.352 2037.22 679.356C2022.92 635.845 2000.66 608.333 1970.72 604.922C1967.06 604.505 1963.35 604.457 1959.61 604.764L1028.42 498.685L1027.7 504.848C1019.25 499.789 1010.54 496.648 1001.73 495.644C992.912 494.64 984.394 495.818 976.195 498.981C965.929 502.941 956.164 510.01 946.943 519.797C946.195 519.677 945.442 519.574 944.686 519.488C879.631 512.077 811.851 633.637 793.294 791C774.737 948.363 812.43 1081.94 877.485 1089.35C878.241 1089.44 878.998 1089.51 879.755 1089.56C886.454 1101.16 894.314 1110.23 903.386 1116.4ZM896.489 1170.59C876.442 1163.17 860.433 1150.19 848.004 1134.99C824.605 1126.56 806.206 1110.47 792.598 1092.87C774.849 1069.92 762.274 1040.94 753.588 1010.16C736.139 948.325 731.432 868.68 741.291 785.076C751.15 701.472 774.268 624.997 805.644 568.725C821.264 540.713 840.25 515.326 862.869 496.975C880.211 482.905 901.868 471.375 926.608 468.431C942.243 456.431 960.85 447.388 982.093 444.67L982.449 441.649L1961.28 553.156C1966.39 553.012 1971.56 553.219 1976.75 553.81C2036.27 560.591 2068.13 610.724 2084.49 656.159C2105.88 688.458 2118.96 731.243 2125.81 776.384C2133.33 825.974 2134.06 883.216 2127.01 942.936C2119.97 1002.66 2105.94 1058.22 2087.08 1104.8C2069.91 1147.21 2047.22 1185.92 2018.88 1212.55C1992.37 1253.1 1949.7 1294.74 1890.18 1287.96C1884.98 1287.37 1879.91 1286.41 1874.96 1285.12L896.132 1173.61L896.489 1170.59Z" fill="#920000"/>
<path fill-rule="evenodd" clip-rule="evenodd" d="M1788.36 615.545L1803.97 617.323L1803.68 619.802C1859.18 644.843 1889.6 769.355 1872.55 913.949C1855.5 1058.54 1796.91 1172.91 1737.05 1184.81L1736.76 1187.29L1721.15 1185.51L880.994 1089.8L881.015 1089.63C879.834 1089.58 878.655 1089.48 877.476 1089.35C812.421 1081.94 774.727 948.363 793.284 791C811.841 633.637 879.622 512.077 944.676 519.488C945.855 519.622 947.025 519.798 948.186 520.014L948.207 519.836L1788.36 615.545Z" fill="url(#paint1_linear_119_209)"/>
<path fill-rule="evenodd" clip-rule="evenodd" d="M950.267 1127.98C951.569 1128.13 952.872 1128.23 954.176 1128.29L954.16 1128.43L1882.42 1234.17L1899.67 1236.14L1899.99 1233.4C1966.12 1220.25 2030.86 1093.88 2049.7 934.127C2068.54 774.37 2034.93 636.8 1973.6 609.133L1973.93 606.394L1956.69 604.43L1028.42 498.684L1028.41 498.822C1027.12 498.583 1025.83 498.388 1024.53 498.24C952.651 490.052 877.759 624.387 857.252 798.285C836.745 972.183 878.389 1119.79 950.267 1127.98Z" fill="url(#paint2_linear_119_209)"/>
<path d="M2075.02 937.011C2057.22 1087.96 1992.18 1204.57 1929.74 1197.46C1867.31 1190.35 1831.13 1062.21 1848.93 911.255C1866.73 760.302 1931.78 643.695 1994.21 650.807C2056.64 657.92 2092.82 786.057 2075.02 937.011Z" fill="url(#paint3_radial_119_209)"/>
<path fill-rule="evenodd" clip-rule="evenodd" d="M1905.24 1156.63C1954.82 1145.14 2003.04 1050.17 2017.16 930.419C2031.29 810.664 2006.44 707.376 1960.85 685.042C1965.77 683.902 1970.7 683.584 1975.61 684.143C2030.05 690.346 2061.61 802.082 2046.09 933.714C2030.56 1065.34 1973.84 1167.03 1919.4 1160.82C1914.48 1160.26 1909.76 1158.84 1905.24 1156.63Z" fill="#B9B8B8"/>
<defs>
<linearGradient id="paint0_linear_119_209" x1="1139.66" y1="1158.45" x2="1058.96" y2="956.602" gradientUnits="userSpaceOnUse">
<stop/>
<stop offset="1" stop-opacity="0"/>
</linearGradient>
<linearGradient id="paint1_linear_119_209" x1="1366.52" y1="567.49" x2="1301.56" y2="1137.72" gradientUnits="userSpaceOnUse">
<stop offset="0.0684102" stop-color="#D9D9D9"/>
<stop offset="0.160483" stop-color="#A2A2A2"/>
<stop offset="0.325446" stop-color="#F4F4F4"/>
<stop offset="0.695654" stop-color="#D9D9D9"/>
<stop offset="0.785" stop-color="#B4B4B4"/>
</linearGradient>
<linearGradient id="paint2_linear_119_209" x1="1490.61" y1="551.335" x2="1418.84" y2="1181.36" gradientUnits="userSpaceOnUse">
<stop stop-color="#E15D5D"/>
<stop offset="0.355" stop-color="#FF8D8D"/>
<stop offset="0.555" stop-color="#E15D5D"/>
<stop offset="0.76" stop-color="#FF8282"/>
<stop offset="1" stop-color="#E15D5D"/>
</linearGradient>
<radialGradient id="paint3_radial_119_209" cx="0" cy="0" r="1" gradientUnits="userSpaceOnUse" gradientTransform="translate(1823.35 908.341) rotate(4.65271) scale(205.011 356.094)">
<stop stop-color="#A5A5A5"/>
<stop offset="1" stop-color="#D9D9D9"/>
</radialGradient>
</defs>
</svg>
