<svg width="2928" height="1792" viewBox="0 0 2928 1792" fill="none" xmlns="http://www.w3.org/2000/svg">
<path fill-rule="evenodd" clip-rule="evenodd" d="M1362.18 1448.13C1954.77 1448.13 2435.17 1337.64 2435.17 1201.35C2435.17 1065.05 1954.77 954.562 1362.18 954.562C769.586 954.562 289.193 1065.05 289.193 1201.35C289.193 1240.38 328.59 1277.29 398.738 1310.1C234.489 1331.98 124 1372.84 124 1419.64C124 1489.5 370.21 1546.13 673.924 1546.13C938.744 1546.13 1159.84 1503.07 1212.13 1445.74C1261.16 1447.32 1311.26 1448.13 1362.18 1448.13ZM2517.07 1583.21C2517.07 1632.25 2344.2 1672 2130.95 1672C1917.7 1672 1744.83 1632.25 1744.83 1583.21C1744.83 1534.17 1917.7 1494.42 2130.95 1494.42C2344.2 1494.42 2517.07 1534.17 2517.07 1583.21ZM2472.25 1433.58C2596.1 1433.58 2696.51 1410.46 2696.51 1381.95C2696.51 1353.43 2596.1 1330.31 2472.25 1330.31C2348.39 1330.31 2247.99 1353.43 2247.99 1381.95C2247.99 1410.46 2348.39 1433.58 2472.25 1433.58Z" fill="#55C5DC" fill-opacity="0.5"/>
<path fill-rule="evenodd" clip-rule="evenodd" d="M776.142 1116.55C799.371 1103.79 840.275 1087.92 891.063 1088.44L1078.09 1090.35C1102.89 1090.6 1120.94 1094.7 1133.89 1100.29C1220.09 1057.56 1352.3 1029.5 1484.85 1030.85L1552.31 1031.54C1630.07 1032.33 1696.38 1043.16 1745.3 1060.86L1859 1062.02C1919.5 1045.57 1990.57 1036.02 2061.64 1036.74L2254.2 1038.71C2416.76 1040.37 2518.19 1095.05 2480.77 1160.84L2450.33 1214.34C2412.9 1280.14 2250.78 1332.13 2088.23 1330.47L1895.67 1328.5C1824.68 1327.78 1765.29 1316.92 1724.1 1299.46L1610.02 1298.3C1541.71 1314.77 1464 1324.09 1386.34 1323.3L1318.87 1322.61C1183.3 1321.23 1082.88 1289.44 1048.08 1243.81C1030.06 1248.37 1009.29 1251.43 986.585 1251.2L799.56 1249.29C748.771 1248.77 726.284 1232.26 717.761 1219.18C708.378 1204.77 709.41 1186.5 720.169 1167.59C730.929 1148.67 750.571 1130.6 776.142 1116.55ZM1037.21 1223.26C1024.37 1227.67 1011.15 1230.12 998.652 1229.99L811.627 1228.08C797.819 1227.94 786.691 1224.67 778.789 1219.12C786.691 1224.67 797.817 1227.94 811.622 1228.08L998.647 1229.99C1017.63 1230.18 1038.29 1224.44 1056.76 1214.87L1090.21 1215.21L1090.21 1215.21L1056.76 1214.87C1052.61 1217.02 1048.35 1218.98 1044.02 1220.72C1041.77 1221.62 1039.5 1222.47 1037.21 1223.26ZM1106.35 1127.68C1104.86 1125.7 1103.1 1123.87 1101.08 1122.22C1103.1 1123.87 1104.86 1125.7 1106.36 1127.68L1106.35 1127.68ZM1768.29 1284.08C1763.96 1282.29 1759.86 1280.41 1756.01 1278.45L1604.45 1276.9C1590.43 1280.63 1575.89 1284 1560.94 1286.97L1560.83 1287C1575.82 1284.02 1590.4 1280.64 1604.45 1276.9L1756.02 1278.45C1759.87 1280.41 1763.96 1282.29 1768.29 1284.08C1768.29 1284.08 1768.29 1284.08 1768.29 1284.08ZM1803.48 1295.4C1832.66 1302.62 1867.98 1306.88 1907.74 1307.29L2100.29 1309.26C2139.86 1309.66 2179.4 1306.2 2216.25 1299.72L2216.23 1299.72C2179.38 1306.19 2139.85 1309.66 2100.29 1309.25L1907.73 1307.29C1867.98 1306.88 1832.67 1302.62 1803.49 1295.4C1803.49 1295.4 1803.48 1295.4 1803.48 1295.4ZM1537.51 1291.25L1537.61 1291.24C1493.16 1298.65 1445.8 1302.57 1398.41 1302.09L1330.94 1301.4C1286.74 1300.95 1246.91 1296.71 1212.91 1289.47L1212.92 1289.47C1246.92 1296.71 1286.74 1300.94 1330.93 1301.4L1398.4 1302.08C1445.77 1302.57 1493.09 1298.65 1537.51 1291.25ZM1137.08 1263.59L1137.08 1263.59C1136.1 1263.07 1135.14 1262.54 1134.18 1262.01C1135.13 1262.54 1136.1 1263.07 1137.08 1263.59Z" fill="url(#paint0_linear_119_208)" fill-opacity="0.25"/>
<ellipse cx="277.952" cy="152.678" rx="277.952" ry="152.678" transform="matrix(0.132283 -0.991212 0.992124 0.125262 2085.37 1251.78)" fill="#FCFCFC"/>
<ellipse cx="199.391" cy="94.8457" rx="199.391" ry="94.8457" transform="matrix(0.132283 -0.991212 0.992124 0.125262 1115.32 1044.68)" fill="#FCFCFC" fill-opacity="0.5"/>
<path fill-rule="evenodd" clip-rule="evenodd" d="M1755.7 731.845C1748.03 725.5 1739.55 721.546 1730.39 720.389C1678.42 713.828 1624.12 799.679 1609.11 912.143C1594.1 1024.61 1624.07 1121.1 1676.04 1127.66C1685.2 1128.81 1694.43 1127.1 1703.51 1122.87C1667.68 1093.24 1649.54 1011.45 1661.9 918.814C1674.26 826.175 1713.28 751.593 1755.7 731.845Z" fill="#FCFCFC" fill-opacity="0.75"/>
<path fill-rule="evenodd" clip-rule="evenodd" d="M1847.63 743.454C1839.96 737.109 1831.48 733.156 1822.32 731.999C1770.35 725.437 1716.05 811.288 1701.04 923.753C1686.03 1036.22 1716 1132.71 1767.97 1139.27C1777.13 1140.42 1786.36 1138.71 1795.44 1134.48C1759.61 1104.85 1741.47 1023.05 1753.83 930.423C1766.19 837.784 1805.21 763.202 1847.63 743.454Z" fill="#FCFCFC" fill-opacity="0.75"/>
<path fill-rule="evenodd" clip-rule="evenodd" d="M2188.56 723.538C2181.11 715.537 2172.75 710.695 2163.58 709.538C2111.61 702.976 2053.5 817.407 2033.79 965.125C2014.08 1112.84 2040.22 1237.91 2092.19 1244.47C2101.35 1245.63 2110.71 1243.03 2120.01 1237.14C2085.21 1199.77 2070.34 1093.47 2086.58 971.796C2102.81 850.118 2145.11 751.026 2188.56 723.538Z" fill="#FCFCFC" fill-opacity="0.75"/>
<path fill-rule="evenodd" clip-rule="evenodd" d="M2096.88 711.968C2089.44 703.966 2081.07 699.124 2071.91 697.967C2019.94 691.406 1961.83 805.836 1942.12 953.555C1922.4 1101.27 1948.55 1226.34 2000.52 1232.9C2009.68 1234.06 2019.03 1231.46 2028.33 1225.57C1993.54 1188.2 1978.67 1081.9 1994.9 960.226C2011.14 838.548 2053.43 739.456 2096.88 711.968Z" fill="#FCFCFC" fill-opacity="0.75"/>
<path fill-rule="evenodd" clip-rule="evenodd" d="M1489.24 635.264C1481.79 627.263 1473.43 622.421 1464.26 621.264C1412.29 614.703 1354.18 729.133 1334.47 876.852C1314.75 1024.57 1340.9 1149.64 1392.87 1156.2C1402.03 1157.36 1411.39 1154.75 1420.68 1148.87C1385.89 1111.5 1371.02 1005.19 1387.26 883.523C1403.49 761.845 1445.78 662.753 1489.24 635.264Z" fill="#FCFCFC" fill-opacity="0.75"/>
<ellipse cx="129.014" cy="50.8928" rx="129.014" ry="50.8928" transform="matrix(0.132283 -0.991212 0.992124 0.125262 970.883 955.441)" fill="#FCFCFC" fill-opacity="0.5"/>
<ellipse cx="129.014" cy="50.8928" rx="129.014" ry="50.8928" transform="matrix(0.132283 -0.991212 0.992124 0.125262 778.086 931.098)" fill="#4BADC2"/>
<path fill-rule="evenodd" clip-rule="evenodd" d="M779.492 802.529C789.999 723.801 830.779 664.052 870.578 669.077L1055.88 692.472C1074.69 694.847 1089.91 711.265 1099.63 736.233L1136.64 740.906C1195.04 635.285 1315.19 570.289 1443.54 586.495L1510.39 594.934C1581.95 603.97 1644.43 636.779 1690.68 684.257L1840.52 703.175C1888.99 668.065 1950.71 650.527 2015.02 658.647L2205.8 682.734C2338.18 699.448 2431.41 818.536 2414.04 948.724L2396.85 1077.52C2379.47 1207.71 2258.07 1299.7 2125.69 1282.99L1934.92 1258.9C1870.68 1250.79 1815.66 1218.57 1778.02 1172.67L1627.85 1153.71C1570.7 1188.05 1501.77 1204.21 1430.28 1195.19L1363.44 1186.75C1231.1 1170.04 1129.85 1072.04 1104.76 950.312L1071.62 946.127C1055.67 967.855 1036.64 979.949 1017.83 977.574L832.529 954.179C792.731 949.154 768.985 881.258 779.492 802.529Z" fill="#0097B8" fill-opacity="0.25"/>
<path fill-rule="evenodd" clip-rule="evenodd" d="M770.587 675.792C790.469 646.662 827.072 611.657 877.392 618.01L1062.69 641.405C1087.26 644.507 1106.09 656.398 1120.23 671.472C1195.14 574.781 1319.04 518.848 1450.36 535.428L1517.2 543.867C1594.24 553.594 1662.39 586.89 1715 635.399L1827.65 649.622C1883.48 615.124 1951.42 598.69 2021.84 607.58L2212.62 631.667C2373.67 652.002 2487.1 796.888 2465.96 955.281L2448.77 1084.08C2427.63 1242.47 2279.94 1354.39 2118.88 1334.05L1928.1 1309.97C1857.77 1301.09 1796.45 1268.39 1751.54 1221.26L1638.51 1206.99C1574.96 1240.75 1500.41 1255.97 1423.47 1246.25L1356.62 1237.81C1222.3 1220.86 1115.4 1132.48 1070.01 1016.56C1053.29 1026 1033.51 1031.48 1011.01 1028.64L825.713 1005.25C775.394 998.893 749.191 955.958 737.614 922.856C724.87 886.416 721.489 841.507 727.565 795.974C733.642 750.441 748.699 707.86 770.587 675.792ZM1054.31 964.837C1042.68 974.432 1030.21 979.137 1017.83 977.574L832.528 954.179C792.73 949.154 768.985 881.259 779.492 802.53C789.999 723.801 830.779 664.052 870.577 669.077L1055.88 692.472C1074.69 694.847 1089.91 711.265 1099.63 736.233L1136.64 740.906C1195.04 635.285 1315.19 570.29 1443.54 586.495L1510.39 594.935C1581.95 603.97 1644.43 636.779 1690.68 684.257L1840.52 703.175C1888.99 668.065 1950.71 650.528 2015.02 658.648L2205.8 682.735C2338.18 699.448 2431.41 818.536 2414.04 948.725L2396.85 1077.52C2379.47 1207.71 2258.07 1299.7 2125.69 1282.99L1934.91 1258.9C1870.68 1250.79 1815.65 1218.57 1778.02 1172.67L1627.85 1153.71C1570.7 1188.05 1501.76 1204.21 1430.28 1195.19L1363.44 1186.75C1241.58 1171.36 1146.08 1087.05 1112.13 978.75C1111.61 977.085 1111.1 975.413 1110.61 973.736C1108.34 966.039 1106.39 958.226 1104.76 950.312L1071.61 946.128C1068.03 951.01 1064.29 955.406 1060.43 959.26C1058.42 961.269 1056.38 963.13 1054.31 964.837Z" fill="#4BADC2"/>
<path fill-rule="evenodd" clip-rule="evenodd" d="M2364.12 1007.98C2379.09 895.786 2350.64 799.713 2300.57 793.392C2281.93 791.038 2262.93 801.455 2245.64 821.247C2258.87 807.336 2272.91 800.236 2286.61 801.966C2329.7 807.407 2353.11 898.188 2338.89 1004.73C2324.67 1111.27 2278.21 1193.23 2235.11 1187.79C2221.03 1186.01 2209.04 1175.11 2199.79 1157.52C2211.38 1181.86 2227.3 1197.27 2246.35 1199.67C2296.42 1205.99 2349.15 1120.17 2364.12 1007.98ZM2180.77 1002.93C2181.34 997.022 2182.02 991.049 2182.83 985.026C2183.51 979.938 2184.26 974.905 2185.08 969.936C2184.25 974.927 2183.49 979.979 2182.81 985.086C2182.01 991.084 2181.33 997.036 2180.77 1002.93Z" fill="#52BCD2"/>
<path fill-rule="evenodd" clip-rule="evenodd" d="M1389.56 1124.63C1241.31 1105.91 1135.31 975.579 1144.78 828.739C1143.49 835.058 1142.41 841.463 1141.55 847.947C1120.92 1002.56 1229.65 1143.75 1384.4 1163.29L1395.45 1164.68C1476.24 1174.88 1553.61 1149.91 1612.04 1101.71C1607.76 1093.91 1603.91 1085.23 1600.55 1075.79C1544.46 1115.56 1473.94 1135.28 1400.6 1126.02L1389.56 1124.63Z" fill="white" fill-opacity="0.5"/>
<path fill-rule="evenodd" clip-rule="evenodd" d="M1932.69 1232.54C1828.77 1219.42 1755.76 1124.63 1769.62 1020.81C1770.2 1016.42 1770.94 1012.09 1771.81 1007.81C1765.39 1106.45 1836.59 1194.02 1936.16 1206.59L2134.47 1231.63C2148.56 1243.74 2164.68 1253.17 2182.33 1259.2C2168.29 1260.61 2153.9 1260.47 2139.33 1258.63L1932.69 1232.54Z" fill="white" fill-opacity="0.5"/>
<defs>
<linearGradient id="paint0_linear_119_208" x1="1321.91" y1="1106.08" x2="563.027" y2="1197.21" gradientUnits="userSpaceOnUse">
<stop stop-color="#1F849A"/>
<stop offset="1" stop-color="#1F849A" stop-opacity="0"/>
</linearGradient>
</defs>
</svg>
