<svg width="527" height="527" viewBox="0 0 527 527" fill="none" xmlns="http://www.w3.org/2000/svg">
<g style="mix-blend-mode:luminosity">
<circle cx="263" cy="263" r="263" fill="#D9D9D9"/>
<g opacity="0.5">
<path d="M496.716 263.186C496.716 392.161 392.161 496.716 263.186 496.716C134.211 496.716 29.6562 392.161 29.6562 263.186C29.6562 134.211 134.211 29.6562 263.186 29.6562C392.161 29.6562 496.716 134.211 496.716 263.186Z" fill="url(#paint0_linear_180_622)"/>
<path fill-rule="evenodd" clip-rule="evenodd" d="M526.377 263.188C526.377 408.543 408.543 526.377 263.188 526.377C117.833 526.377 0 408.543 0 263.188C0 117.833 117.833 0 263.188 0C408.543 0 526.377 117.833 526.377 263.188ZM263.188 496.718C392.163 496.718 496.718 392.163 496.718 263.188C496.718 134.213 392.163 29.6586 263.188 29.6586C134.213 29.6586 29.6586 134.213 29.6586 263.188C29.6586 392.163 134.213 496.718 263.188 496.718Z" fill="url(#paint1_linear_180_622)"/>
<path opacity="0.5" fill-rule="evenodd" clip-rule="evenodd" d="M456.685 132.397C457.93 134.235 459.15 136.091 460.343 137.966C461.761 147.032 463.101 156.522 464.295 166.321L427.665 203.641L456.685 132.397ZM347.197 45.2266C349.677 46.183 352.137 47.1805 354.575 48.2183L326.521 146.932L323.31 45.2266H347.197ZM86.9107 110.015C96.1598 99.3802 106.355 89.5901 117.366 80.7763L190.545 238.122L86.9107 110.015ZM364.08 473.864C369.71 471.163 375.215 468.243 380.583 465.115C369.243 440.048 344.021 422.62 314.708 422.62L314.711 422.619C274.779 422.619 242.444 454.961 242.444 494.893C242.444 495.202 242.446 495.508 242.449 495.812C244.701 496.011 246.962 496.177 249.231 496.311C260.659 471.572 285.608 454.532 314.71 454.532C333.869 454.532 351.21 461.833 364.08 473.864ZM179.415 481.244L148.201 427.983L222.959 435.929L171.524 326.648L280.971 406.125L268.415 222.008L343.171 391.556L418.527 302.145L412.968 431.95C422.49 418.861 430.796 404.423 440.718 386.559C446.173 376.738 450.708 366.148 454.44 354.989L451.324 355.069L461.483 329.221C469.98 290.363 470.831 247.009 468.085 206.108L390.956 249.007L378.766 110.154L313.753 249.649L231.215 45.2266H227.777L226.1 271.503L56.8858 228.505L56.875 228.852L166.891 396.855L88.5612 392.289C92.8626 399.967 96.9019 407.003 100.933 413.584L162.341 473.882C167.914 476.554 173.609 479.012 179.415 481.244Z" fill="url(#paint2_linear_180_622)"/>
<path fill-rule="evenodd" clip-rule="evenodd" d="M299.096 397.015C304.199 401.595 312.324 401.171 322.025 396.937C335.391 395.633 355.037 383.222 372.401 363.876C389.764 344.53 399.987 323.662 399.845 310.233C403.009 300.133 402.556 292.009 397.453 287.429C396.828 286.868 396.146 286.372 395.41 285.938L236.695 143.487L235.736 144.556C234.844 142.489 233.647 140.752 232.145 139.403C228.761 136.366 224.176 135.619 218.742 136.764C218.619 136.643 218.493 136.525 218.364 136.409C207.276 126.457 178.432 140.512 153.939 167.801C129.446 195.09 118.579 225.28 129.668 235.232C129.797 235.348 129.928 235.46 130.062 235.57C129.508 241.095 130.744 245.573 134.129 248.61C135.631 249.959 137.487 250.961 139.638 251.626L138.679 252.694L297.394 395.145C297.904 395.83 298.472 396.455 299.096 397.015Z" fill="#920000"/>
<path fill-rule="evenodd" clip-rule="evenodd" d="M130.862 243.745C131.549 245.628 132.628 247.26 134.131 248.609C135.633 249.958 137.49 250.96 139.64 251.624L138.681 252.693L297.396 395.144C297.906 395.829 298.474 396.453 299.098 397.014C304.201 401.594 312.326 401.17 322.027 396.936C335.393 395.631 355.039 383.221 372.403 363.875C389.766 344.528 399.989 323.66 399.847 310.231C403.011 300.131 402.558 292.008 397.455 287.428C396.83 286.867 396.148 286.37 395.412 285.937L236.697 143.486L235.738 144.555C234.846 142.488 233.649 140.75 232.147 139.402C230.644 138.053 228.905 137.156 226.959 136.676C224.524 136.074 221.765 136.126 218.744 136.763C218.621 136.642 218.495 136.523 218.366 136.408C207.278 126.456 178.434 140.51 153.941 167.8C129.448 195.089 118.582 225.279 129.67 235.231C129.799 235.346 129.93 235.459 130.064 235.568C129.756 238.64 130.001 241.388 130.862 243.745ZM122.332 253.077C119.602 249.04 118.367 244.482 118.092 239.977C114.874 235.309 113.61 229.85 113.437 224.737C113.211 218.068 114.752 210.94 117.256 203.983C122.286 190.008 132.065 174.343 145.077 159.844C158.09 145.346 172.611 133.938 185.963 127.431C192.61 124.193 199.531 121.893 206.185 121.399C211.287 121.021 216.851 121.69 221.838 124.386C226.346 124.174 231.011 124.912 235.319 127.191L235.789 126.667L402.625 276.406C403.594 277.052 404.525 277.77 405.41 278.564C415.556 287.67 414.765 301.328 411.727 312.063C411.378 320.976 408.085 330.779 403.319 340.207C398.083 350.564 390.561 361.474 381.266 371.83C371.971 382.186 361.935 390.839 352.202 397.16C343.342 402.913 333.951 407.243 325.128 408.55C314.782 412.726 301.289 414.984 291.143 405.878C290.258 405.084 289.444 404.235 288.698 403.341L121.862 253.601L122.332 253.077Z" fill="#920000"/>
<path fill-rule="evenodd" clip-rule="evenodd" d="M362.175 265.46L364.835 267.847L364.449 268.277C371.405 280.304 360.401 307.826 337.896 332.9C315.39 357.975 289.213 371.879 276.508 366.259L276.122 366.689L273.462 364.301L130.262 235.775L130.29 235.745C130.077 235.58 129.87 235.407 129.669 235.227C118.581 225.275 129.448 195.085 153.94 167.796C178.433 140.507 207.277 126.452 218.366 136.404C218.567 136.584 218.76 136.771 218.947 136.965L218.975 136.934L362.175 265.46Z" fill="url(#paint3_linear_180_622)"/>
<path fill-rule="evenodd" clip-rule="evenodd" d="M138.018 252.093C138.24 252.292 138.468 252.483 138.703 252.665L138.682 252.689L296.899 394.693L299.838 397.331L300.264 396.856C314.303 403.066 343.225 387.704 368.09 359.999C392.955 332.295 405.114 301.887 397.428 288.599L397.854 288.124L394.915 285.486L236.698 143.482L236.676 143.506C236.47 143.292 236.256 143.085 236.034 142.886C223.783 131.89 191.91 147.423 164.843 177.58C137.777 207.737 125.767 241.097 138.018 252.093Z" fill="url(#paint4_linear_180_622)"/>
<path d="M372.4 363.876C348.905 390.054 321.232 403.533 310.59 393.982C299.949 384.431 310.369 355.467 333.864 329.29C357.36 303.112 385.033 289.633 395.674 299.184C406.315 308.735 395.895 337.698 372.4 363.876Z" fill="url(#paint5_radial_180_622)"/>
<path fill-rule="evenodd" clip-rule="evenodd" d="M311.508 383.05C322.252 387.398 343.907 375.796 362.546 355.029C381.186 334.262 390.388 311.483 384.908 301.27C385.974 301.701 386.932 302.289 387.769 303.04C397.049 311.369 387.964 336.626 367.476 359.453C346.988 382.28 322.857 394.033 313.577 385.704C312.739 384.953 312.052 384.063 311.508 383.05Z" fill="#B9B8B8"/>
</g>
</g>
<path d="M509 425C509 458.689 481.689 486 448 486C414.311 486 387 458.689 387 425C387 391.311 414.311 364 448 364C481.689 364 509 391.311 509 425Z" fill="white"/>
<path fill-rule="evenodd" clip-rule="evenodd" d="M526 425C526 468.078 491.078 503 448 503C404.922 503 370 468.078 370 425C370 381.922 404.922 347 448 347C491.078 347 526 381.922 526 425ZM448 486C481.689 486 509 458.689 509 425C509 391.311 481.689 364 448 364C414.311 364 387 391.311 387 425C387 458.689 414.311 486 448 486Z" fill="#7C7C7C"/>
<path d="M426.896 416.044V409.017C426.896 403.427 429.12 398.065 433.078 394.112C437.036 390.158 442.404 387.938 448.002 387.938C453.6 387.938 458.968 390.158 462.926 394.112C466.884 398.065 469.107 403.427 469.107 409.017V416.044H472.625C474.491 416.044 476.28 416.784 477.6 418.102C478.919 419.42 479.66 421.207 479.66 423.07V451.177C479.66 453.04 478.919 454.828 477.6 456.145C476.28 457.463 474.491 458.203 472.625 458.203H423.379C421.513 458.203 419.724 457.463 418.404 456.145C417.085 454.828 416.344 453.04 416.344 451.177V423.07C416.344 419.206 419.51 416.044 423.379 416.044H426.896ZM444.484 439.688V447.663H451.52V439.688C452.861 438.915 453.909 437.721 454.502 436.292C455.094 434.863 455.198 433.279 454.797 431.784C454.397 430.29 453.513 428.97 452.285 428.029C451.056 427.087 449.551 426.576 448.002 426.576C446.453 426.576 444.948 427.087 443.719 428.029C442.491 428.97 441.607 430.29 441.207 431.784C440.806 433.279 440.91 434.863 441.502 436.292C442.095 437.721 443.143 438.915 444.484 439.688ZM437.449 409.017V416.044H458.555V409.017C458.555 406.222 457.443 403.541 455.464 401.564C453.485 399.588 450.801 398.477 448.002 398.477C445.203 398.477 442.519 399.588 440.54 401.564C438.561 403.541 437.449 406.222 437.449 409.017Z" fill="#7C7C7C"/>
<defs>
<linearGradient id="paint0_linear_180_622" x1="263.186" y1="29.6563" x2="263.186" y2="496.716" gradientUnits="userSpaceOnUse">
<stop stop-color="#FDA7A7"/>
<stop offset="1" stop-color="#A61616"/>
</linearGradient>
<linearGradient id="paint1_linear_180_622" x1="263.188" y1="29.6586" x2="263.188" y2="496.718" gradientUnits="userSpaceOnUse">
<stop stop-color="#9B0606"/>
<stop offset="1" stop-color="#EE7272"/>
</linearGradient>
<linearGradient id="paint2_linear_180_622" x1="263.179" y1="45.2266" x2="263.179" y2="510.848" gradientUnits="userSpaceOnUse">
<stop stop-color="white"/>
<stop offset="1" stop-color="white" stop-opacity="0.47"/>
</linearGradient>
<linearGradient id="paint3_linear_180_622" x1="290.274" y1="200.927" x2="201.562" y2="299.769" gradientUnits="userSpaceOnUse">
<stop offset="0.0684102" stop-color="#D9D9D9"/>
<stop offset="0.160483" stop-color="#A2A2A2"/>
<stop offset="0.325446" stop-color="#F4F4F4"/>
<stop offset="0.695654" stop-color="#D9D9D9"/>
<stop offset="0.785" stop-color="#B4B4B4"/>
</linearGradient>
<linearGradient id="paint4_linear_180_622" x1="315.475" y1="214.186" x2="217.459" y2="323.393" gradientUnits="userSpaceOnUse">
<stop stop-color="#E15D5D"/>
<stop offset="0.355" stop-color="#FF8D8D"/>
<stop offset="0.555" stop-color="#E15D5D"/>
<stop offset="0.76" stop-color="#FF8282"/>
<stop offset="1" stop-color="#E15D5D"/>
</linearGradient>
<radialGradient id="paint5_radial_180_622" cx="0" cy="0" r="1" gradientUnits="userSpaceOnUse" gradientTransform="translate(329.504 325.376) rotate(40.0309) scale(46.6464 82.4157)">
<stop stop-color="#A5A5A5"/>
<stop offset="1" stop-color="#D9D9D9"/>
</radialGradient>
</defs>
</svg>
