<svg width="14642" height="14642" viewBox="0 0 14642 14642" fill="none" xmlns="http://www.w3.org/2000/svg">
<path d="M13817 7321C13817 10908.6 10908.6 13817 7321 13817C3733.36 13817 825 10908.6 825 7321C825 3733.36 3733.36 825 7321 825C10908.6 825 13817 3733.36 13817 7321Z" fill="url(#paint0_linear_160_7)"/>
<path fill-rule="evenodd" clip-rule="evenodd" d="M14642 7321C14642 11364.3 11364.3 14642 7321 14642C3277.72 14642 0 11364.3 0 7321C0 3277.72 3277.72 0 7321 0C11364.3 0 14642 3277.72 14642 7321ZM7321 13817C10908.6 13817 13817 10908.6 13817 7321C13817 3733.36 10908.6 825 7321 825C3733.36 825 825 3733.36 825 7321C825 10908.6 3733.36 13817 7321 13817Z" fill="url(#paint1_linear_160_7)"/>
<path opacity="0.5" fill-rule="evenodd" clip-rule="evenodd" d="M12703.4 3682.77C12738 3733.9 12771.9 3785.54 12805.1 3837.7C12844.6 4089.89 12881.8 4353.87 12915 4626.43L11896.1 5664.55L12703.4 3682.77ZM9657.83 1258C9726.8 1284.6 9795.19 1312.34 9863 1341.2L9082.63 4087.11L8993.3 1258H9657.83ZM2417.47 3060.17C2674.75 2764.34 2958.36 2492.01 3264.65 2246.84L5300.25 6623.7L2417.47 3060.17ZM10127.4 13181.2C10284 13106.1 10437.1 13024.8 10586.4 12937.8C10271 12240.6 9569.41 11755.8 8754.03 11755.8L8754.12 11755.8C7643.33 11755.8 6743.89 12655.4 6743.89 13766.2C6743.89 13774.8 6743.94 13783.3 6744.05 13791.7C6806.68 13797.2 6869.57 13801.9 6932.7 13805.6C7250.6 13117.5 7944.59 12643.5 8754.09 12643.5C9287 12643.5 9769.36 12846.6 10127.4 13181.2ZM4990.63 13386.5L4122.37 11905L6201.88 12126L4771.16 9086.19L7815.58 11297L7466.3 6175.46L9545.76 10891.7L11641.9 8404.59L11487.3 12015.3C11752.2 11651.2 11983.2 11249.6 12259.2 10752.7C12410.9 10479.5 12537.1 10184.9 12640.9 9874.54L12554.2 9876.75L12836.8 9157.75C13073.2 8076.84 13096.8 6870.89 13020.5 5733.17L10875 6926.46L10535.9 3064.06L8727.47 6944.32L6431.55 1258H6335.91L6289.25 7552.23L1582.3 6356.18C1582.2 6359.4 1582.1 6362.62 1582 6365.83L4642.26 11039.1L2463.4 10912.1C2583.05 11125.7 2695.41 11321.4 2807.56 11504.4L4515.66 13181.7C4670.68 13256 4829.1 13324.4 4990.63 13386.5Z" fill="url(#paint2_linear_160_7)"/>
<path fill-rule="evenodd" clip-rule="evenodd" d="M8319.9 11043.5C8461.84 11170.9 8687.85 11159.1 8957.69 11041.4C9329.49 11005.1 9875.97 10659.9 10359 10121.7C10842 9583.57 11126.3 9003.09 11122.4 8629.54C11210.4 8348.59 11197.8 8122.62 11055.8 7995.22C11038.5 7979.63 11019.5 7965.81 10999 7953.75L6584.11 3991.25L6557.43 4020.98C6532.61 3963.5 6499.34 3915.17 6457.54 3877.65C6363.4 3793.16 6235.87 3772.38 6084.71 3804.24C6081.29 3800.88 6077.79 3797.58 6074.21 3794.37C5765.77 3517.54 4963.42 3908.49 4282.12 4667.58C3600.81 5426.67 3298.54 6266.46 3606.98 6543.29C3610.56 6546.5 3614.21 6549.63 3617.93 6552.67C3602.54 6706.38 3636.93 6830.93 3731.06 6915.42C3772.86 6952.93 3824.5 6980.81 3884.32 6999.29L3857.63 7029.02L8272.54 10991.5C8286.74 11010.6 8302.52 11027.9 8319.9 11043.5Z" fill="#920000"/>
<path fill-rule="evenodd" clip-rule="evenodd" d="M3640.13 6780.13C3659.25 6832.49 3689.27 6877.9 3731.06 6915.42C3772.86 6952.93 3824.5 6980.81 3884.32 6999.29L3857.64 7029.02L8272.54 10991.5C8286.75 11010.6 8302.53 11027.9 8319.9 11043.5C8461.84 11170.9 8687.86 11159.1 8957.69 11041.4C9329.5 11005.1 9875.97 10659.9 10359 10121.7C10842 9583.57 11126.3 9003.09 11122.4 8629.54C11210.4 8348.59 11197.8 8122.62 11055.8 7995.23C11038.5 7979.63 11019.5 7965.81 10999 7953.75L6584.11 3991.25L6557.43 4020.98C6532.61 3963.5 6499.34 3915.17 6457.54 3877.65C6415.74 3840.13 6367.36 3815.18 6313.25 3801.82C6245.49 3785.09 6168.76 3786.53 6084.72 3804.25C6081.3 3800.88 6077.79 3797.58 6074.21 3794.37C5765.77 3517.54 4963.43 3908.49 4282.12 4667.58C3600.81 5426.68 3298.54 6266.46 3606.98 6543.29C3610.57 6546.5 3614.22 6549.63 3617.93 6552.67C3609.38 6638.13 3616.21 6714.57 3640.13 6780.13ZM3402.87 7039.72C3326.94 6927.41 3292.57 6800.62 3284.92 6675.32C3195.41 6545.47 3160.26 6393.62 3155.43 6251.39C3149.14 6065.89 3192.02 5867.6 3261.68 5674.08C3401.6 5285.34 3673.6 4849.58 4035.57 4446.29C4397.53 4043 4801.46 3725.66 5172.87 3544.68C5357.76 3454.59 5550.28 3390.61 5735.38 3376.88C5877.3 3366.36 6032.05 3384.96 6170.79 3459.95C6296.19 3454.07 6425.94 3474.59 6545.77 3537.98L6558.85 3523.41L11199.7 7688.65C11226.6 7706.6 11252.5 7726.58 11277.1 7748.67C11559.4 8001.97 11537.3 8381.89 11452.9 8680.51C11443.1 8928.43 11351.5 9201.11 11219 9463.37C11073.3 9751.47 10864.1 10054.9 10605.5 10343C10347 10631.1 10067.8 10871.8 9797.07 11047.6C9550.61 11207.6 9289.39 11328.1 9043.95 11364.4C8756.17 11480.6 8380.83 11543.4 8098.61 11290.1C8074 11268 8051.35 11244.4 8030.6 11219.5L3389.79 7054.29L3402.87 7039.72Z" fill="#920000"/>
<path fill-rule="evenodd" clip-rule="evenodd" d="M10074.5 7384.25L10148.5 7450.66L10137.7 7462.62C10331.2 7797.16 10025.1 8562.73 9399.12 9260.22C8773.11 9957.72 8044.95 10344.5 7691.52 10188.1L7680.79 10200.1L7606.8 10133.7L3623.46 6558.54L3624.23 6557.68C3618.32 6553.1 3612.57 6548.3 3606.98 6543.28C3298.54 6266.45 3600.81 5426.67 4282.12 4667.58C4963.43 3908.48 5765.77 3517.53 6074.21 3794.36C6079.8 3799.38 6085.19 3804.58 6090.38 3809.96L6091.15 3809.1L10074.5 7384.25Z" fill="url(#paint3_linear_160_7)"/>
<path fill-rule="evenodd" clip-rule="evenodd" d="M3839.18 7012.46C3845.35 7018 3851.71 7023.3 3858.24 7028.36L3857.64 7029.02L8258.71 10979.1L8340.46 11052.5L8352.31 11039.3C8742.81 11212 9547.33 10784.7 10239 10014C10930.7 9243.39 11268.9 8397.53 11055.1 8027.91L11066.9 8014.7L10985.2 7941.33L6584.11 3991.25L6583.52 3991.92C6577.78 3985.97 6571.83 3980.23 6565.66 3974.69C6224.87 3668.82 5338.27 4100.9 4585.37 4939.76C3832.48 5778.61 3498.39 6706.59 3839.18 7012.46Z" fill="url(#paint4_linear_160_7)"/>
<path d="M10359 10121.7C9705.42 10849.9 8935.66 11224.8 8639.65 10959.2C8343.65 10693.5 8633.5 9887.81 9287.06 9159.64C9940.61 8431.47 10710.4 8056.53 11006.4 8322.2C11302.4 8587.87 11012.5 9393.54 10359 10121.7Z" fill="url(#paint5_radial_160_7)"/>
<path fill-rule="evenodd" clip-rule="evenodd" d="M8665.02 10655C8963.88 10776 9566.26 10453.3 10084.7 9875.58C10603.2 9297.9 10859.2 8664.28 10706.8 8380.18C10736.4 8392.17 10763.1 8408.53 10786.4 8429.43C11044.5 8661.12 10791.8 9363.68 10221.9 9998.65C9651.96 10633.6 8980.7 10960.5 8722.56 10728.9C8699.27 10708 8680.14 10683.2 8665.02 10655Z" fill="#B9B8B8"/>
<defs>
<linearGradient id="paint0_linear_160_7" x1="7321" y1="825" x2="7321" y2="13817" gradientUnits="userSpaceOnUse">
<stop stop-color="#FDA7A7"/>
<stop offset="1" stop-color="#A61616"/>
</linearGradient>
<linearGradient id="paint1_linear_160_7" x1="7321" y1="825" x2="7321" y2="13817" gradientUnits="userSpaceOnUse">
<stop stop-color="#9B0606"/>
<stop offset="1" stop-color="#EE7272"/>
</linearGradient>
<linearGradient id="paint2_linear_160_7" x1="7320.68" y1="1258" x2="7320.68" y2="14210" gradientUnits="userSpaceOnUse">
<stop stop-color="white"/>
<stop offset="1" stop-color="white" stop-opacity="0.47"/>
</linearGradient>
<linearGradient id="paint3_linear_160_7" x1="8074.47" y1="5589.18" x2="5606.78" y2="8338.62" gradientUnits="userSpaceOnUse">
<stop offset="0.0684102" stop-color="#D9D9D9"/>
<stop offset="0.160483" stop-color="#A2A2A2"/>
<stop offset="0.325446" stop-color="#F4F4F4"/>
<stop offset="0.695654" stop-color="#D9D9D9"/>
<stop offset="0.785" stop-color="#B4B4B4"/>
</linearGradient>
<linearGradient id="paint4_linear_160_7" x1="8775.42" y1="5958.01" x2="6048.95" y2="8995.78" gradientUnits="userSpaceOnUse">
<stop stop-color="#E15D5D"/>
<stop offset="0.355" stop-color="#FF8D8D"/>
<stop offset="0.555" stop-color="#E15D5D"/>
<stop offset="0.76" stop-color="#FF8282"/>
<stop offset="1" stop-color="#E15D5D"/>
</linearGradient>
<radialGradient id="paint5_radial_160_7" cx="0" cy="0" r="1" gradientUnits="userSpaceOnUse" gradientTransform="translate(9165.76 9050.77) rotate(40.0309) scale(1297.54 2292.52)">
<stop stop-color="#A5A5A5"/>
<stop offset="1" stop-color="#D9D9D9"/>
</radialGradient>
</defs>
</svg>
