<svg width="32768" height="15234" viewBox="0 0 32768 15234" fill="none" xmlns="http://www.w3.org/2000/svg">
<path fill-rule="evenodd" clip-rule="evenodd" d="M2971.69 14074.5L2971.69 15232.9L3497.47 15224.5L3969.61 14798.2L4474.36 14473.4L4890.04 14835.9L5929.25 15043.8L6790.3 14949.9L6938.76 14347.5L8185.81 14379.6V14736.7L9878.23 14948.7C10175.1 14892.8 10739.3 14761.7 10620.5 14684.7C10501.8 14607.7 10808.6 14371.9 10976.8 14263.7L12016 14518.1L12223.9 14885.6L13352.1 14902.8L13886.6 14628.3L14569.5 14356.8L15786.9 14633.6L16291.6 14929.7L17776.2 14960.5V14525.8L18221.6 14317.7L19112.3 14475.9L18993.5 14787.1L19290.5 14824.3L20181.2 14563.3L20923.5 14796.1L21368.9 14712.2L21903.3 14608.4L22586.2 14693.9L23209.7 14601.3L23358.2 14325L23833.3 14244.8L24456.8 14462.6V14757.6L24642.9 14887.9L25423.7 14875.5L25429.7 14769.2L25827.8 14613.7L26078.6 14728.7L26003.3 14866.3L26699.5 14855.2L26477.4 14459.3L26741.9 14296.5L27190.3 14745.6L27142.8 14848.1L27501.4 14842.4L27241.8 14379.8L27933.6 14293.8L28234.8 14830.8L29796.2 14805.9V14074.5H32768L32750 13826.2L31833 13603.3L31134.2 13365L31914.1 13168.8L32361.2 12678.2L32159.2 12271.6L30863.5 12201.5L30932.5 11612.8H31700.6L32156.8 10813.8C32036.5 10673.6 31754.5 10407.3 31588.9 10463.3C31423.3 10519.4 30916 10374.6 30683.1 10295.1L31230.4 9804.5L32021.1 9706.37L32058.1 9173.69L31467.5 8921.37L30883.5 8598.96L31478.9 8024.23L32115.8 7785.92L32182.1 7085.03H31247.1L30799.4 6874.76L31139.7 6454.23L31809 6510.3L31889 6370.12L31327.7 5949.59L31828.4 5599.14L31647.9 5388.87L31424.6 5136.55L31608.7 4814.14L31409.5 4519.77L30815 4449.68L30642.5 4225.39L31111.2 3931.02H31745.6L32026 3843.17L31999.3 3474.52L31770.5 3471.69L31436.1 3283.75L31683.5 3165.33L31979.4 3200.9L31955.6 2872.2L31104 2977.04L30753.9 2852.2L31719.7 2640.49L31940.4 2662.9L31928.1 2493.62L30932.9 2616.14L30748 2289.54L31903 2147.35L31849.5 1410.21H29796.2L29796.2 426.961L28234.8 402.109L27933.6 939.064L27241.8 853.107L27501.4 390.435L27142.8 384.728L27190.3 487.311L26741.8 936.316L26477.4 773.556L26699.5 377.672L26003.3 366.59L26078.6 504.137L25827.8 619.139L25429.7 463.689L25423.7 357.365L24642.8 344.936L24456.8 475.259V770.209L23833.3 988.059L23358.2 907.879L23209.7 631.534L22586.2 538.912L21903.3 624.491L21368.9 520.706L20923.5 436.805L20181.2 669.539L19290.5 408.596L18993.5 445.805L19112.3 756.918L18221.6 915.113L17776.2 707.024V272.362L16291.6 303.167L15786.8 599.276L14569.5 876.019L13886.6 604.554L13352.1 330.009L12223.9 347.211L12016 714.777L10976.8 969.196C10808.6 860.917 10501.7 625.114 10620.5 548.136C10739.3 471.158 10175.1 340.047 9878.22 284.113L8185.8 496.201V853.244L6938.76 885.33L6790.3 282.988L5929.24 189.085L4890.04 396.932L4474.36 759.496L3969.6 434.66L3497.47 8.36864L2971.68 0V1410.21L918.452 1410.21L864.992 2147.34L2020.06 2289.54L1835.15 2616.14L839.88 2493.61L827.603 2662.9L1048.27 2640.49L2014.14 2852.2L1664.02 2977.04L812.425 2872.2L788.587 3200.89L1084.47 3165.33L1331.85 3283.75L997.457 3471.69L768.742 3474.52L742.005 3843.18L1022.34 3931.02H1656.81L2125.44 4225.39L1952.96 4449.68L1358.51 4519.77L1159.26 4814.14L1343.35 5136.55L1120.1 5388.87L939.616 5599.14L1440.26 5949.59L878.934 6370.12L958.974 6510.3L1628.22 6454.23L1968.52 6874.76L1520.89 7085.03H585.876L652.142 7785.92L1289.11 8024.23L1884.43 8598.96L1300.47 8921.37L709.882 9173.69L746.887 9706.37L1537.57 9804.5L2084.86 10295.1C1851.94 10374.6 1344.69 10519.4 1179.1 10463.3C1013.51 10407.3 731.475 10673.6 611.153 10813.8L1067.38 11612.8H1835.43L1904.45 12201.5L608.733 12271.6L406.735 12678.2L853.842 13168.8L1633.77 13365L935 13603.3L18.0026 13826.2L0 14074.5H2971.69Z" fill="white"/>
</svg>
