<svg width="1865" height="884" viewBox="0 0 1865 884" fill="none" xmlns="http://www.w3.org/2000/svg">
<path fill-rule="evenodd" clip-rule="evenodd" d="M1150.77 622.427C1179.49 622.427 1205.39 613.791 1228.5 596.518V495.797H1184.78V571.581C1173.98 576.331 1162.64 578.706 1150.77 578.706C1126.59 578.706 1106.08 570.393 1089.24 553.768C1072.4 536.928 1063.98 516.416 1063.98 492.235C1063.98 467.837 1072.29 447.326 1088.91 430.701C1105.75 413.86 1126.37 405.44 1150.77 405.44C1166.1 405.44 1180.46 409.326 1193.84 417.099V369.168C1180.03 364.202 1165.67 361.719 1150.77 361.719C1114.28 361.719 1083.41 374.349 1058.15 399.61C1032.88 424.872 1020.25 455.746 1020.25 492.235C1020.25 528.723 1032.88 559.598 1058.15 584.859C1083.41 609.904 1114.28 622.427 1150.77 622.427ZM1424.4 618.217H1380.04L1380.36 516.524H1294.54V618.217H1250.81V448.513C1250.81 424.116 1259.13 403.605 1275.75 386.98C1292.59 370.139 1313.21 361.719 1337.61 361.719C1361.79 361.719 1382.3 370.139 1399.14 386.98C1415.98 403.821 1424.4 424.332 1424.4 448.513V618.217ZM1380.36 478.956V448.513C1380.36 436.639 1376.15 426.491 1367.73 418.071C1359.52 409.65 1349.48 405.44 1337.61 405.44C1325.73 405.44 1315.59 409.65 1307.17 418.071C1298.75 426.491 1294.54 436.639 1294.54 448.513V478.956H1380.36ZM1744.51 618.217H1864.02V580.649H1788.56V495.797H1864.02V450.133H1788.56V399.287H1864.02V361.719H1744.51V618.217ZM1678.14 618.217H1732.87L1668.42 363.014L1583.57 529.479L1501.96 362.69L1435.57 618.217H1489.98L1515.88 485.434L1583.57 624.046L1653.53 487.053L1678.14 618.217ZM1864.14 787.299C1864.14 814.24 1854.75 837.093 1835.99 855.856C1817.23 874.619 1794.38 884 1767.43 884C1740.33 884 1717.4 874.699 1698.64 856.096C1679.87 837.333 1670.49 814.401 1670.49 787.299C1670.49 760.197 1679.87 737.264 1698.64 718.501C1717.4 699.738 1740.33 690.357 1767.43 690.357C1794.54 690.357 1817.39 699.738 1835.99 718.501C1854.75 737.264 1864.14 760.197 1864.14 787.299ZM1831.66 787.299C1831.66 769.338 1825.41 754.103 1812.9 741.594C1800.55 729.086 1785.4 722.831 1767.43 722.831C1749.31 722.831 1734 729.086 1721.49 741.594C1709.14 753.942 1702.97 769.177 1702.97 787.299C1702.97 805.26 1709.22 820.495 1721.73 833.003C1734.24 845.352 1749.47 851.526 1767.43 851.526C1785.4 851.526 1800.55 845.352 1812.9 833.003C1825.41 820.495 1831.66 805.26 1831.66 787.299ZM1621.4 880.873H1653.87V690.357H1621.4V880.873ZM1604.82 785.374C1605.14 811.995 1596.08 834.607 1577.63 853.21C1559.19 871.652 1536.58 880.953 1509.8 881.113L1450.14 881.595V690.357H1509.32C1535.78 690.357 1558.23 699.578 1576.67 718.02C1595.11 736.462 1604.5 758.914 1604.82 785.374ZM1572.34 785.615C1572.18 767.975 1566.01 753.141 1553.82 741.113C1541.79 728.925 1526.96 722.831 1509.32 722.831H1482.62V848.88L1509.56 848.639C1527.2 848.479 1542.11 842.385 1554.3 830.357C1566.49 818.169 1572.5 803.255 1572.34 785.615ZM1414.67 862.351C1427.18 849.842 1433.43 834.607 1433.43 816.646V690.357H1400.96V816.646C1400.96 825.466 1397.83 833.003 1391.58 839.258C1385.32 845.352 1377.79 848.399 1368.97 848.399C1360.15 848.399 1352.61 845.352 1346.35 839.258C1340.26 833.003 1337.21 825.466 1337.21 816.646L1336.97 690.357H1304.5V816.646C1304.5 834.607 1310.75 849.842 1323.26 862.351C1335.77 874.699 1351 880.873 1368.97 880.873C1386.93 880.873 1402.16 874.699 1414.67 862.351ZM1288.11 718.261H1239.28V880.873H1206.57V718.261H1157.73V690.357H1288.11V718.261ZM1131.87 855.856C1136.68 847.838 1138.93 838.376 1138.6 827.471C1138.12 812.236 1134.68 800.289 1128.26 791.629C1122.01 782.969 1111.66 776.474 1097.23 772.144C1088.73 769.579 1083.04 767.815 1080.15 766.852C1064.11 762.041 1056.1 754.183 1056.1 743.278C1056.1 735.26 1059.54 729.166 1066.44 724.997C1070.93 722.27 1075.82 720.907 1081.11 720.907C1095.55 720.907 1107.17 724.756 1115.99 732.454V698.055C1103.97 692.602 1091.14 690.037 1077.5 690.357C1067.4 690.678 1057.94 693.244 1049.12 698.055C1040.46 702.706 1033.48 709.281 1028.19 717.78C1022.9 726.119 1020.25 735.1 1020.25 744.722V746.165C1020.25 767.173 1030.12 783.21 1049.84 794.275C1055.45 796.36 1060.67 798.124 1065.48 799.567C1077.67 803.095 1086 806.142 1090.49 808.708C1098.83 813.519 1103 819.693 1103 827.231V827.712C1103 844.069 1091.54 852.248 1068.6 852.248C1059.94 852.248 1052.17 849.922 1045.27 845.272C1041.42 842.706 1038.3 840.461 1035.89 838.536L1035.41 874.859C1050 881.274 1063.39 884.241 1075.58 883.76C1102.36 882.798 1121.12 873.496 1131.87 855.856Z" fill="white"/>
<path fill-rule="evenodd" clip-rule="evenodd" d="M0 193C0 86.409 86.409 0 193 0H691C797.591 0 884 86.409 884 193V691C884 797.591 797.591 884 691 884H193C86.409 884 0 797.591 0 691V193ZM340 223.5C340 296.125 281.125 355 208.5 355C135.875 355 77 296.125 77 223.5C77 150.875 135.875 92 208.5 92C281.125 92 340 150.875 340 223.5ZM225.5 787C301.991 787 364 724.991 364 648.5C364 572.009 301.991 510 225.5 510C149.009 510 87 572.009 87 648.5C87 724.991 149.009 787 225.5 787ZM804 224C804 301.872 740.872 365 663 365C585.128 365 522 301.872 522 224C522 146.128 585.128 83 663 83C740.872 83 804 146.128 804 224ZM490 582.835C490 560.451 508.01 542.273 530.33 542.003V542H530.736L530.835 542H565.232L565.331 542H678.436H678.496C746.153 542 801 596.847 801 664.504C801 732.161 746.153 787.008 678.496 787.008L678.303 787.008H565.349L565.232 787.008H530.835L530.717 787.008H530.33V787.005C508.01 786.735 490 768.557 490 746.174C490 723.79 508.01 705.612 530.33 705.342V705.336C508.01 705.065 490 686.888 490 664.504C490 642.12 508.01 623.943 530.33 623.673V623.666C508.01 623.396 490 605.219 490 582.835ZM664.748 678.1C671.093 671.755 674.266 663.986 674.266 654.793V622.211H657.792V654.793C657.792 659.267 656.206 663.091 653.033 666.264C649.86 669.436 646.037 671.023 641.562 671.023C637.088 671.023 633.264 669.436 630.091 666.264C627 663.091 625.454 659.267 625.454 654.793L625.332 622.211H608.858V654.793C608.858 663.904 612.031 671.633 618.377 677.978C624.722 684.324 632.451 687.497 641.562 687.497C650.755 687.497 658.484 684.365 664.748 678.1ZM743.27 654.793C743.27 663.986 740.097 671.755 733.751 678.1C727.487 684.365 719.759 687.497 710.566 687.497C701.454 687.497 693.726 684.324 687.38 677.978C681.035 671.633 677.862 663.904 677.862 654.793V622.211H694.336L694.458 654.793C694.458 659.267 696.004 663.091 699.095 666.264C702.268 669.436 706.091 671.023 710.566 671.023C715.04 671.023 718.864 669.436 722.036 666.264C725.209 663.091 726.796 659.267 726.796 654.793V622.211H743.27V654.793ZM692.344 693.052V687.496C697.177 690.828 702.668 692.651 708.818 692.963V693.052C708.818 702.245 705.645 710.014 699.299 716.36C693.035 722.624 685.307 725.756 676.114 725.756C667.002 725.756 659.274 722.583 652.928 716.238C646.583 709.892 643.41 702.164 643.41 693.052V692.976C649.633 692.713 655.159 690.956 659.986 687.706L660.006 693.052C660.006 697.527 661.552 701.35 664.643 704.523C667.816 707.696 671.64 709.282 676.114 709.282C680.588 709.282 684.412 707.696 687.585 704.523C690.757 701.35 692.344 697.527 692.344 693.052Z" fill="white"/>
<path d="M188.427 206H179.25C176.003 206 173.4 208.589 173.4 211.833V223.5C173.4 226.736 176.005 229.005 179.25 229.005L185.1 229.333V231.339C185.1 247.38 183.594 262.911 176.325 276H240.675C233.399 262.911 231.9 247.38 231.9 231.339V229.333L237.75 229.333C240.995 229.333 243.6 226.736 243.6 223.828V212.161C243.6 208.589 241.004 206 237.75 206H228.566C239.322 199.292 246.525 187.479 246.525 173.917C246.525 152.953 229.523 136 208.171 136C186.818 136 170.475 152.953 170.475 173.917C170.475 187.479 177.692 199.292 188.427 206ZM249.45 287.667H167.221C157.857 287.667 150 295.505 150 304.839C150 308.375 152.619 311 155.85 311H261.15C264.381 311 267 308.388 267 305.167C267 295.505 259.139 287.667 249.45 287.667Z" fill="white"/>
<path d="M292.3 624.125H255.936C259.822 633.083 258.116 643.863 250.73 651.165L209 692.416V706.469C209 714.494 215.581 721 223.7 721H292.3C300.419 721 307 714.494 307 706.469V638.656C307 630.631 300.419 624.125 292.3 624.125ZM258 679.828C253.942 679.828 250.65 676.574 250.65 672.562C250.65 668.548 253.942 665.297 258 665.297C262.058 665.297 265.35 668.548 265.35 672.562C265.35 676.574 262.058 679.828 258 679.828ZM243.799 623.308L190.227 570.35C184.359 564.55 174.844 564.55 168.976 570.35L115.401 623.308C109.533 629.108 109.533 638.514 115.401 644.314L168.973 697.275C174.841 703.075 184.356 703.075 190.224 697.275L243.799 644.317C249.667 638.514 249.667 629.108 243.799 623.308ZM140.4 641.078C136.342 641.078 133.05 637.824 133.05 633.812C133.05 629.798 136.342 626.547 140.4 626.547C144.458 626.547 147.75 629.798 147.75 633.812C147.75 637.824 144.458 641.078 140.4 641.078ZM179.6 679.828C175.542 679.828 172.25 676.574 172.25 672.562C172.25 668.548 175.542 665.297 179.6 665.297C183.658 665.297 186.95 668.548 186.95 672.562C186.95 676.574 183.658 679.828 179.6 679.828ZM179.6 641.078C175.542 641.078 172.25 637.824 172.25 633.812C172.25 629.798 175.542 626.547 179.6 626.547C183.658 626.547 186.95 629.798 186.95 633.812C186.95 637.824 183.658 641.078 179.6 641.078ZM179.6 602.328C175.542 602.328 172.25 599.074 172.25 595.062C172.25 591.048 175.542 587.797 179.6 587.797C183.658 587.797 186.95 591.048 186.95 595.062C186.95 599.074 183.658 602.328 179.6 602.328ZM218.8 641.078C214.742 641.078 211.45 637.824 211.45 633.812C211.45 629.798 214.742 626.547 218.8 626.547C222.858 626.547 226.15 629.798 226.15 633.812C226.15 637.824 222.858 641.078 218.8 641.078Z" fill="white"/>
<path d="M620.6 288L705.4 288C740.526 288 769 259.633 769 224C769 188.367 740.526 160 705.4 160L620.6 160C585.488 160 557 188.653 557 224C557 259.347 585.487 288 620.6 288ZM687.148 216L697.748 216L697.748 205.333C697.748 200.933 701.319 197.333 705.692 197.333C710.064 197.333 713.648 200.933 713.648 205.333L713.648 216L723.95 216.3C728.323 216.3 732.198 219.6 732.198 224C732.198 228.4 728.604 232.003 724.232 232.003L713.648 232L713.648 242.667C713.648 247.067 710.064 250.667 705.692 250.667C701.319 250.667 697.748 247.067 697.748 242.667L697.748 232L687.148 232C682.776 232 679.192 228.4 679.192 224C679.198 219.6 682.478 216 687.148 216ZM626.198 194.667C633.525 194.667 639.15 200.623 639.15 207.7C639.15 214.777 633.231 221.033 626.198 221.033C619.166 221.033 613.246 215.073 613.246 207.7C613.246 200.327 618.579 194.667 626.198 194.667ZM604.998 226.667C612.325 226.667 617.95 232.623 617.95 239.7C617.95 246.777 612.031 253.033 604.998 253.033C597.671 253.033 592.046 247.073 592.046 239.7C592.046 232.327 597.379 226.667 604.998 226.667Z" fill="white"/>
<path d="M1864 132.058C1852.51 132.058 1842.69 136.108 1834.54 144.208C1826.39 152.1 1822.31 161.758 1822.31 173.181V252H1780V173.181C1780 149.919 1788.15 130.292 1804.45 114.3C1820.75 98.1 1840.6 90 1864 90V132.058Z" fill="white"/>
<path d="M1759 174.148C1759 197.4 1750.88 217.123 1734.65 233.316C1718.63 249.302 1698.96 257.295 1675.66 257.295C1660.67 257.295 1646.83 253.662 1634.14 246.396V342H1592V174.148C1592 150.688 1600.01 130.965 1616.04 114.979C1632.27 98.993 1652.14 91 1675.66 91C1698.96 91 1718.63 99.0968 1734.65 115.29C1750.88 131.276 1759 150.895 1759 174.148ZM1716.86 174.148C1716.86 162.729 1712.8 153.075 1704.69 145.186C1696.78 137.089 1687.1 133.041 1675.66 133.041C1664.21 133.041 1654.43 137.089 1646.31 145.186C1638.2 153.075 1634.14 162.729 1634.14 174.148C1634.14 185.566 1638.2 195.324 1646.31 203.421C1654.43 211.31 1664.21 215.254 1675.66 215.254C1687.1 215.254 1696.78 211.31 1704.69 203.421C1712.8 195.324 1716.86 185.566 1716.86 174.148Z" fill="white"/>
<path d="M1571 173.845C1571 197.219 1562.9 216.974 1546.7 233.108C1530.7 249.036 1510.97 257 1487.5 257C1464.24 257 1444.5 248.933 1428.3 232.798C1412.1 216.664 1404 197.012 1404 173.845V91H1446.06L1446.37 173.845C1446.37 185.222 1450.32 194.944 1458.21 203.011C1466.31 211.079 1476.08 215.112 1487.5 215.112C1498.92 215.112 1508.69 211.079 1516.79 203.011C1524.89 194.944 1528.94 185.222 1528.94 173.845V91H1571V173.845Z" fill="white"/>
<path d="M1382 173.845C1382 197.219 1373.9 216.974 1357.7 233.108C1341.7 249.036 1321.97 257 1298.5 257C1275.24 257 1255.5 248.933 1239.3 232.798C1223.1 216.664 1215 197.012 1215 173.845V91H1257.06L1257.37 173.845C1257.37 185.222 1261.32 194.944 1269.21 203.011C1277.31 211.079 1287.08 215.112 1298.5 215.112C1309.92 215.112 1319.69 211.079 1327.79 203.011C1335.89 194.944 1339.94 185.222 1339.94 173.845V91H1382V173.845Z" fill="white"/>
<path d="M1194 173.644C1194 196.868 1185.88 216.566 1169.65 232.74C1153.63 248.913 1133.96 257 1110.66 257C1087.14 257 1067.27 249.017 1051.04 233.051C1035.01 216.877 1027 197.075 1027 173.644C1027 150.421 1035.12 130.826 1051.35 114.86C1067.58 98.6865 1087.35 90.5997 1110.66 90.5997C1125.43 90.5997 1139.17 94.2284 1151.86 101.486V6H1194V173.644ZM1151.86 173.644C1151.86 162.447 1147.8 152.805 1139.69 144.719C1131.57 136.632 1121.89 132.589 1110.66 132.589C1099.21 132.589 1089.43 136.632 1081.31 144.719C1073.2 152.598 1069.14 162.24 1069.14 173.644C1069.14 185.049 1073.2 194.794 1081.31 202.881C1089.43 210.968 1099.21 215.011 1110.66 215.011C1122.1 215.011 1131.78 210.968 1139.69 202.881C1147.8 194.794 1151.86 185.049 1151.86 173.644Z" fill="white"/>
</svg>
