<svg width="1563" height="1587" viewBox="0 0 1563 1587" fill="none" xmlns="http://www.w3.org/2000/svg">
<path opacity="0.45" fill-rule="evenodd" clip-rule="evenodd" d="M780.839 114.242C525.292 114.242 302.84 243.073 187.768 433.196C168.586 460.81 152.272 487.811 140.624 511.688C90.8268 613.776 70.1746 722.138 56.8546 792.028L56.8543 792.03L56.8537 792.033L56.8531 792.036C55.0562 801.465 53.3927 810.193 51.809 818.111C41.1512 871.4 12.8289 902.486 0 911.367L3.70532 913.136C2.04785 914.365 0.777556 915.744 0.0512229 917.324C0.0512229 917.324 21.7889 953.058 39.4149 1007.3C57.0409 1061.55 64.9438 1117.04 64.9438 1117.04C65.0063 1116.99 65.0688 1116.93 65.1313 1116.88V1160.05L66.5487 1160.63C66.2991 1161.1 66.1073 1161.57 65.9786 1162.04C65.9786 1162.04 103.105 1187.59 140.526 1230.63C177.947 1273.68 203.749 1320.53 203.749 1320.53C204.111 1320.14 204.471 1319.75 204.83 1319.36L239.898 1358.05C239.488 1359.21 239.243 1360.31 239.194 1361.35C239.194 1361.35 280.262 1376.69 325.209 1411.81C370.157 1446.92 404.674 1490.64 404.674 1490.64C405.056 1489.83 405.432 1489.02 405.803 1488.19L407.071 1490.15L444.046 1509.2C444.268 1510.64 444.501 1512.08 444.747 1513.52C444.747 1513.52 447.481 1513.41 452.392 1513.5L455.919 1515.31L463.043 1513.93C480.341 1514.98 508.176 1518.3 538.959 1528.3C585.654 1543.47 625.568 1569.62 632.203 1574.09L631.332 1576L677.054 1584.85C677.146 1585.36 677.239 1585.86 677.334 1586.36C677.334 1586.36 679.819 1585.49 684.317 1584.16L688.32 1584.89L696.332 1580.88C714.501 1576.3 743.885 1570.53 776.394 1570.53C830.208 1570.53 875.455 1586.36 875.455 1586.36C875.567 1585.77 875.677 1585.17 875.785 1584.58L881.789 1583.49L885.194 1584.89L919.72 1578.2C919.782 1578.53 919.844 1578.86 919.907 1579.19C919.907 1579.19 920.192 1578.99 920.744 1578.62C921.078 1578.39 921.51 1578.1 922.036 1577.75L931.082 1576L929.657 1572.87C932.24 1571.27 935.287 1569.41 938.741 1567.39L963.212 1554.04C977.987 1546.57 995.515 1538.79 1014.12 1532.74C1065.3 1516.11 1108.33 1517.96 1108.33 1517.96C1108.55 1516.66 1108.77 1515.35 1108.97 1514.04L1153.37 1491.16C1153.85 1492.24 1154.33 1493.29 1154.83 1494.34C1154.83 1494.34 1189.34 1450.62 1234.29 1415.51C1279.24 1380.39 1320.3 1365.05 1320.3 1365.05C1320.25 1363.91 1319.96 1362.69 1319.47 1361.41L1357.66 1319.28C1357.83 1319.47 1358.01 1319.66 1358.18 1319.85C1358.39 1320.08 1358.6 1320.3 1358.81 1320.53C1358.81 1320.53 1384.61 1273.68 1422.03 1230.63C1459.46 1187.59 1496.58 1162.04 1496.58 1162.04C1496.45 1161.55 1496.25 1161.07 1495.98 1160.59L1497.28 1160.05V1113.6C1497.46 1113.76 1497.64 1113.91 1497.81 1114.07C1497.81 1114.07 1505.77 1058.41 1523.46 1003.96C1541.15 949.505 1562.95 913.601 1562.95 913.601C1562.64 912.928 1562.23 912.293 1561.74 911.69L1562.41 911.367C1549.58 902.486 1521.26 871.4 1510.6 818.111C1509.02 810.208 1507.36 801.498 1505.57 792.09L1505.56 792.028L1505.56 792.027C1492.24 722.137 1471.59 613.776 1421.79 511.688C1408.96 485.379 1390.46 455.278 1368.7 424.742C1252.2 239.264 1032.58 114.242 780.839 114.242Z" fill="black"/>
<path fill-rule="evenodd" clip-rule="evenodd" d="M931.082 1461.76L885.194 1470.64L881.789 1469.24L874.094 1470.64L822.863 1445.03L781.207 1427.91L739.551 1445.03L688.32 1470.64L680.624 1469.24L677.22 1470.64L631.332 1461.76L632.95 1458.2L509.209 1390.71L455.919 1401.07L407.071 1375.9L336.018 1266.37L244.242 1248.6L201.315 1201.23L140.624 1076.89L65.1313 1045.81V991.037V828.208L0 797.123C12.8289 788.241 41.1512 757.156 51.809 703.867C53.3931 695.946 55.0571 687.215 56.8546 677.784C70.1746 607.894 90.8268 499.532 140.624 397.444C225.103 224.258 555.096 -113.24 444.077 342.678L781.207 1131.25L1118.34 342.678C1007.32 -113.24 1337.31 224.258 1421.79 397.444C1471.59 499.531 1492.24 607.893 1505.56 677.783C1507.36 687.215 1509.02 695.946 1510.6 703.867C1521.26 757.156 1549.58 788.241 1562.41 797.123L1497.28 828.208V991.037V1045.81L1421.79 1076.89L1361.1 1201.23L1318.17 1248.6L1226.4 1266.37L1155.34 1375.9L1106.49 1401.07L1053.21 1390.71L929.464 1458.2L931.082 1461.76Z" fill="url(#paint0_linear_105_6581)"/>
<path fill-rule="evenodd" clip-rule="evenodd" d="M875.454 1472.12C877.941 1459.02 879.271 1445.21 879.271 1430.95C879.271 1347 833.211 1278.94 776.394 1278.94C719.576 1278.94 673.516 1347 673.516 1430.95C673.516 1445.21 674.846 1459.02 677.333 1472.12C677.333 1472.12 722.58 1456.28 776.394 1456.28C830.207 1456.28 875.454 1472.12 875.454 1472.12Z" fill="#358921"/>
<path fill-rule="evenodd" clip-rule="evenodd" d="M633.172 1460.51C635.537 1448.18 636.803 1434.78 636.803 1420.52C636.803 1336.57 592.997 1254.28 538.96 1236.72C484.923 1219.16 441.117 1272.98 441.117 1356.94C441.117 1371.2 442.382 1385.42 444.748 1399.28C444.748 1399.28 487.781 1397.43 538.96 1414.06C590.139 1430.69 633.172 1460.51 633.172 1460.51Z" fill="#358921"/>
<path fill-rule="evenodd" clip-rule="evenodd" d="M404.676 1376.4C409.462 1366.29 413.43 1354.79 416.381 1342C433.746 1266.79 409.352 1175.75 361.895 1138.68C314.438 1101.6 293.111 1121.61 275.746 1196.83C272.795 1209.61 239.827 1233.76 239.197 1247.11C239.197 1247.11 280.265 1262.45 325.212 1297.57C370.159 1332.68 404.676 1376.4 404.676 1376.4Z" fill="#358921"/>
<path fill-rule="evenodd" clip-rule="evenodd" d="M203.751 1206.28C210.162 1199.47 216.024 1191.25 221.126 1181.65C251.145 1125.2 243.45 1042.58 203.94 997.131C164.43 951.68 140.246 961.446 110.227 1017.9C105.126 1027.5 68.9323 1037 65.9802 1047.8C65.9802 1047.8 103.106 1073.35 140.527 1116.39C177.948 1159.44 203.751 1206.28 203.751 1206.28Z" fill="#358921"/>
<path fill-rule="evenodd" clip-rule="evenodd" d="M64.9429 1002.8C71.4776 997.139 77.9456 989.865 84.1785 980.963C120.854 928.585 135.499 839.693 116.889 782.417C98.2783 725.14 77.5782 729.695 40.9028 782.073C34.6699 790.974 4.95556 792.405 0.0503456 803.081C0.0503456 803.081 21.788 838.815 39.414 893.062C57.04 947.309 64.9429 1002.8 64.9429 1002.8Z" fill="#358921"/>
<path fill-rule="evenodd" clip-rule="evenodd" d="M1497.81 999.825C1491.28 994.173 1484.81 986.904 1478.57 978.002C1441.9 925.624 1427.31 836.559 1445.99 779.068C1464.67 721.578 1485.39 726.068 1522.07 778.446C1528.3 787.348 1558.05 788.674 1562.95 799.359C1562.95 799.359 1541.16 835.263 1523.46 889.713C1505.77 944.163 1497.81 999.825 1497.81 999.825Z" fill="#358921"/>
<path fill-rule="evenodd" clip-rule="evenodd" d="M1358.81 1206.28C1352.4 1199.47 1346.54 1191.25 1341.44 1181.65C1311.42 1125.2 1319.11 1042.58 1358.62 997.131C1398.13 951.68 1422.32 961.446 1452.34 1017.9C1457.44 1027.5 1493.63 1037 1496.58 1047.8C1496.58 1047.8 1459.46 1073.35 1422.04 1116.39C1384.61 1159.44 1358.81 1206.28 1358.81 1206.28Z" fill="#358921"/>
<path fill-rule="evenodd" clip-rule="evenodd" d="M1154.82 1380.09C1150.04 1369.99 1146.07 1358.48 1143.12 1345.7C1125.75 1270.48 1150.15 1179.45 1197.61 1142.37C1245.06 1105.29 1266.39 1125.31 1283.75 1200.52C1286.71 1213.31 1319.67 1237.45 1320.3 1250.81C1320.3 1250.81 1279.24 1266.15 1234.29 1301.26C1189.34 1336.38 1154.82 1380.09 1154.82 1380.09Z" fill="#358921"/>
<path fill-rule="evenodd" clip-rule="evenodd" d="M919.906 1464.95C917.541 1452.62 916.276 1439.23 916.276 1424.96C916.276 1341.01 960.081 1258.72 1014.12 1241.16C1068.16 1223.6 1111.96 1277.43 1111.96 1361.38C1111.96 1375.64 1110.7 1389.86 1108.33 1403.72C1108.33 1403.72 1065.3 1401.87 1014.12 1418.5C962.939 1435.13 919.906 1464.95 919.906 1464.95Z" fill="#358921"/>
<ellipse cx="780.837" cy="615.047" rx="676.478" ry="615.047" fill="url(#paint1_linear_105_6581)"/>
<path d="M674.633 561.763C678.904 580.226 658.614 594.259 642.831 584.409L589.005 550.832L521.792 658.208C504.24 686.246 524.527 722.82 557.63 722.82H626.324C635.08 722.82 642.18 729.907 642.18 738.649V791.413C642.18 800.154 635.08 807.242 626.324 807.242H557.766C458.224 807.242 397.485 697.694 450.198 613.494L517.351 506.136L463.54 472.568C447.577 462.612 451.693 438.323 469.987 434.106L615.647 400.535C627.025 397.912 638.375 404.995 641.002 416.351L674.633 561.763ZM804.866 320.482L859.422 407.642L805.591 441.222C789.667 451.152 793.699 475.456 812.038 479.684L957.698 513.255C969.157 515.892 980.445 508.72 983.054 497.439L1016.68 352.027C1020.91 333.765 1000.84 319.42 984.88 329.381L931.118 362.917L876.596 275.749C827.018 196.56 711.152 196.378 661.461 275.749L637.725 313.694C633.087 321.107 635.347 330.87 642.773 335.502L687.591 363.461C695.017 368.093 704.801 365.839 709.441 358.426L733.174 320.511C749.971 293.679 788.634 294.557 804.866 320.482ZM1087.85 613.494L1051.49 555.368C1046.86 547.951 1037.07 545.694 1029.64 550.328L984.901 578.239C977.475 582.871 975.215 592.636 979.856 600.051L1016.28 658.239C1033.79 686.218 1013.56 722.821 980.421 722.821H853.594V659.53C853.594 640.782 830.811 631.324 817.504 644.607L711.797 750.109C703.54 758.351 703.54 771.715 711.797 779.956L817.504 885.469C830.72 898.665 853.594 889.421 853.594 870.543V807.242H980.284C1079.75 807.242 1140.61 697.761 1087.85 613.494Z" fill="white"/>
<ellipse cx="781.21" cy="629.112" rx="630.96" ry="597.284" fill="url(#paint2_linear_105_6581)" fill-opacity="0.5"/>
<path fill-rule="evenodd" clip-rule="evenodd" d="M761.591 1143.49C1109.45 1143.49 1391.44 894.637 1391.44 587.657C1391.44 283.707 1114.99 36.7393 771.874 31.8929C775.236 31.8446 778.605 31.8203 781.979 31.8203C1129.84 31.8203 1411.83 289.458 1411.83 607.27C1411.83 925.083 1129.84 1182.72 781.979 1182.72C547.68 1182.72 343.261 1065.84 234.766 892.41C347.324 1043.64 541.244 1143.49 761.591 1143.49Z" fill="white" fill-opacity="0.5"/>
<defs>
<linearGradient id="paint0_linear_105_6581" x1="781.577" y1="857.808" x2="781.207" y2="1470.64" gradientUnits="userSpaceOnUse">
<stop stop-color="#147202"/>
<stop offset="1" stop-color="#224500"/>
</linearGradient>
<linearGradient id="paint1_linear_105_6581" x1="780.837" y1="0" x2="780.837" y2="1230.09" gradientUnits="userSpaceOnUse">
<stop stop-color="#53B00C"/>
<stop offset="0.82" stop-color="#127400"/>
</linearGradient>
<linearGradient id="paint2_linear_105_6581" x1="781.21" y1="31.8281" x2="781.21" y2="1226.4" gradientUnits="userSpaceOnUse">
<stop stop-color="white"/>
<stop offset="1" stop-color="#D9D9D9" stop-opacity="0"/>
</linearGradient>
</defs>
</svg>
