<svg width="1947" height="2302" viewBox="0 0 1947 2302" fill="none" xmlns="http://www.w3.org/2000/svg">
<ellipse cx="973.5" cy="1396.5" rx="973.5" ry="905.5" fill="black" fill-opacity="0.35"/>
<rect x="14.2266" y="198.98" width="1918.29" height="1894.97" rx="947.487" fill="#224500"/>
<rect x="14.2266" width="1918.29" height="1894.97" rx="947.487" fill="url(#paint0_linear_103_6503)"/>
<path d="M836.509 958.006C842.279 982.952 814.866 1001.91 793.541 988.604L720.815 943.237L630.003 1088.31C606.288 1126.2 633.699 1175.61 678.424 1175.61H771.237C783.068 1175.61 792.66 1185.19 792.66 1197V1268.29C792.66 1280.1 783.068 1289.68 771.237 1289.68H678.608C544.115 1289.68 462.049 1141.66 533.271 1027.9L624.003 882.847L551.297 837.493C529.729 824.042 535.29 791.224 560.008 785.526L756.812 740.168C772.185 736.625 787.521 746.194 791.07 761.537L836.509 958.006ZM1012.47 632.007L1086.18 749.771L1013.45 795.141C991.934 808.558 997.381 841.396 1022.16 847.108L1218.96 892.466C1234.44 896.029 1249.7 886.339 1253.22 871.097L1298.66 674.628C1304.36 649.954 1277.25 630.572 1255.69 644.03L1183.05 689.342L1109.38 571.568C1042.4 464.574 885.85 464.328 818.711 571.568L786.642 622.836C780.376 632.852 783.429 646.042 793.462 652.302L854.017 690.076C864.05 696.335 877.269 693.29 883.539 683.273L915.604 632.046C938.299 595.794 990.538 596.979 1012.47 632.007ZM1394.82 1027.9L1345.69 949.366C1339.43 939.344 1326.2 936.295 1316.17 942.556L1255.72 980.266C1245.68 986.526 1242.63 999.719 1248.9 1009.74L1298.11 1088.36C1321.78 1126.16 1294.44 1175.61 1249.66 1175.61H1078.31V1090.1C1078.31 1064.77 1047.52 1051.99 1029.54 1069.94L886.722 1212.48C875.565 1223.62 875.565 1241.68 886.722 1252.81L1029.54 1395.37C1047.4 1413.2 1078.31 1400.71 1078.31 1375.2V1289.68H1249.48C1383.86 1289.68 1466.1 1141.76 1394.82 1027.9Z" fill="white"/>
<defs>
<linearGradient id="paint0_linear_103_6503" x1="550.54" y1="-656.012" x2="973.373" y2="1894.97" gradientUnits="userSpaceOnUse">
<stop stop-color="#6CC90F"/>
<stop offset="1" stop-color="#0F6E00"/>
</linearGradient>
</defs>
</svg>
