<svg width="14625" height="9608" viewBox="0 0 14625 9608" fill="none" xmlns="http://www.w3.org/2000/svg">
<g opacity="0.25">
<path fill-rule="evenodd" clip-rule="evenodd" d="M7652.17 4318.89L5712.25 4743.77L6211.53 5512.63H8342.76L8619.03 4999.05L7652.17 4318.89Z" fill="#B58422"/>
<path fill-rule="evenodd" clip-rule="evenodd" d="M6819.85 2808.54L5136.22 3457.03L5747.57 4572.62L7738.95 4178.3L9143.13 3285.88L6819.85 2808.54Z" fill="#B58422"/>
<path fill-rule="evenodd" clip-rule="evenodd" d="M12666.1 4069.2L10138.8 4551.87L11225.5 5262.93H13356.7L13633 4749.35L12666.1 4069.2Z" fill="#B58422"/>
<path fill-rule="evenodd" clip-rule="evenodd" d="M10537.5 2175.78L7946.9 2038.49L7100.67 2663.26L10770 3481.33L11543 2976.21L10537.5 2175.78Z" fill="#B58422"/>
<path fill-rule="evenodd" clip-rule="evenodd" d="M9485.62 3370L7866.17 4336.59L8673.8 4906.54L10660.7 4279.8L10660.7 3638.69L9485.62 3370Z" fill="#B58422"/>
<path fill-rule="evenodd" clip-rule="evenodd" d="M12492.6 2591.77L10853.7 3597.19L10873.2 4255.85L14096 3700.96L13696.7 2941.53L12492.6 2591.77Z" fill="#B58422"/>
<path fill-rule="evenodd" clip-rule="evenodd" d="M9949.96 4640.96L11185.6 5382.03L10788.3 6168.07L8479.32 5588.95L8752.07 5004.44L9949.96 4640.96Z" fill="#B58422"/>
<path fill-rule="evenodd" clip-rule="evenodd" d="M4236.3 1685.83L3172.73 1918.77L3446.46 2340.3H4614.92L4766.39 2058.73L4236.3 1685.83Z" fill="#B58422"/>
<path fill-rule="evenodd" clip-rule="evenodd" d="M3779.97 857.766L2856.91 1213.3L3192.09 1824.94L4283.88 1608.75L5053.73 1119.47L3779.97 857.766Z" fill="#B58422"/>
<path fill-rule="evenodd" clip-rule="evenodd" d="M6985.21 1548.93L5599.6 1813.56L6195.38 2203.4H7363.84L7515.3 1921.83L6985.21 1548.93Z" fill="#B58422"/>
<path fill-rule="evenodd" clip-rule="evenodd" d="M5818.21 510.856L4397.89 435.582L3933.95 778.115L5945.65 1226.63L6369.47 949.693L5818.21 510.856Z" fill="#B58422"/>
<path fill-rule="evenodd" clip-rule="evenodd" d="M5241.5 1165.59L4353.62 1695.53L4796.41 2008.01L5885.73 1664.39L5885.73 1312.91L5241.5 1165.59Z" fill="#B58422"/>
<path fill-rule="evenodd" clip-rule="evenodd" d="M6890.11 738.923L5991.54 1290.15L6002.24 1651.26L7769.19 1347.04L7550.24 930.68L6890.11 738.923Z" fill="#B58422"/>
<path fill-rule="evenodd" clip-rule="evenodd" d="M5496.08 1862.4L6173.5 2268.7L5955.69 2699.65L4689.79 2382.14L4839.33 2061.68L5496.08 1862.4Z" fill="#B58422"/>
<path fill-rule="evenodd" clip-rule="evenodd" d="M2824.98 7466.21L1052.69 7854.38L1508.83 8556.8H3455.91L3708.31 8087.6L2824.98 7466.21Z" fill="#B58422"/>
<path fill-rule="evenodd" clip-rule="evenodd" d="M2064.59 6086.35L526.43 6678.81L1084.95 7698.02L2904.27 7337.76L4187.12 6522.45L2064.59 6086.35Z" fill="#B58422"/>
<path fill-rule="evenodd" clip-rule="evenodd" d="M7405.68 7238.09L5096.74 7679.05L6089.52 8328.68H8036.6L8289 7859.47L7405.68 7238.09Z" fill="#B58422"/>
<path fill-rule="evenodd" clip-rule="evenodd" d="M5461.04 5508.27L3094.27 5382.84L2321.16 5953.62L5673.41 6701.02L6379.64 6239.54L5461.04 5508.27Z" fill="#B58422"/>
<path fill-rule="evenodd" clip-rule="evenodd" d="M4500.02 6599.3L3020.5 7482.37L3758.34 8003.08L5573.55 7430.49L5573.55 6844.78L4500.02 6599.3Z" fill="#B58422"/>
<path fill-rule="evenodd" clip-rule="evenodd" d="M7247.2 5888.32L5749.85 6806.86L5767.68 7408.61L8712.07 6901.67L8347.23 6207.86L7247.2 5888.32Z" fill="#B58422"/>
<path fill-rule="evenodd" clip-rule="evenodd" d="M4924.24 7760.45L6053.08 8437.49L5690.12 9155.61L3580.68 8626.53L3829.85 8092.52L4924.24 7760.45Z" fill="#B58422"/>
</g>
</svg>
