<svg width="12520" height="10807" viewBox="0 0 12520 10807" fill="none" xmlns="http://www.w3.org/2000/svg">
<mask id="path-1-outside-1_119_2" maskUnits="userSpaceOnUse" x="0.523438" y="2394" width="12519" height="8413" fill="black">
<rect fill="white" x="0.523438" y="2394" width="12519" height="8413"/>
<path fill-rule="evenodd" clip-rule="evenodd" d="M2521.04 2644L11174.5 3684L11154.9 3696.76L11359.3 3724.09L11682.8 3810.01C12020.4 3729.11 12292.8 3961.24 12272 4326.59L12089 7553.05C12070.8 7874.09 11829.6 8186.19 11527.7 8279.35L9372.35 8944.46C9142.56 9015.37 8935.19 8942.24 8825.05 8774.83V8804C8508.41 8636.14 8149.06 8450.44 7769.92 8260.41L6809.04 8446C6662.72 8368.44 6519.69 8274.27 6382.74 8173.67C5953.9 7964.01 5457.12 7753.93 5081.4 7635.54C5074.45 7739.9 5075.8 7860.51 5077.21 7985.8V7985.82C5080.66 8292.76 5084.43 8627.81 4967.11 8821.03C4902.23 8927.88 4826.04 8975 4745.46 8987.72C4707.42 9226.72 4644.84 9440.33 4543.04 9608C4391.4 9857.77 4213.14 9967.13 4024.66 9995.98L2760.78 10437.1C2422.91 10683.1 2014.83 10509.3 1657.05 10356C938.991 10048.3 1115.05 9165.58 1273.05 8660C1621.94 7543.53 1463.63 6629.94 1351.13 5980.67C1308.85 5736.71 1273.05 5530.06 1273.05 5364C1273.05 5364 890.338 5229.11 665.045 5028C237.699 4646.52 130.073 3928.87 377.045 3412C486.546 3182.83 714.744 3075.2 858.314 3028.35L857.045 3028L865.268 3026.1C936.38 3003.42 985.045 2996 985.045 2996L989.868 2997.35L2521.04 2644Z"/>
</mask>
<path fill-rule="evenodd" clip-rule="evenodd" d="M2521.04 2644L11174.5 3684L11154.9 3696.76L11359.3 3724.09L11682.8 3810.01C12020.4 3729.11 12292.8 3961.24 12272 4326.59L12089 7553.05C12070.8 7874.09 11829.6 8186.19 11527.7 8279.35L9372.35 8944.46C9142.56 9015.37 8935.19 8942.24 8825.05 8774.83V8804C8508.41 8636.14 8149.06 8450.44 7769.92 8260.41L6809.04 8446C6662.72 8368.44 6519.69 8274.27 6382.74 8173.67C5953.9 7964.01 5457.12 7753.93 5081.4 7635.54C5074.45 7739.9 5075.8 7860.51 5077.21 7985.8V7985.82C5080.66 8292.76 5084.43 8627.81 4967.11 8821.03C4902.23 8927.88 4826.04 8975 4745.46 8987.72C4707.42 9226.72 4644.84 9440.33 4543.04 9608C4391.4 9857.77 4213.14 9967.13 4024.66 9995.98L2760.78 10437.1C2422.91 10683.1 2014.83 10509.3 1657.05 10356C938.991 10048.3 1115.05 9165.58 1273.05 8660C1621.94 7543.53 1463.63 6629.94 1351.13 5980.67C1308.85 5736.71 1273.05 5530.06 1273.05 5364C1273.05 5364 890.338 5229.11 665.045 5028C237.699 4646.52 130.073 3928.87 377.045 3412C486.546 3182.83 714.744 3075.2 858.314 3028.35L857.045 3028L865.268 3026.1C936.38 3003.42 985.045 2996 985.045 2996L989.868 2997.35L2521.04 2644Z" fill="#363636"/>
<path d="M11174.5 3684L11308.8 3890.13L11876.1 3520.55L11203.9 3439.76L11174.5 3684ZM2521.04 2644L2550.4 2399.76L2507.67 2394.62L2465.73 2404.3L2521.04 2644ZM11154.9 3696.76L11020.7 3490.63L10464.9 3852.67L11122.3 3940.59L11154.9 3696.76ZM11359.3 3724.09L11422.5 3486.34L11407.4 3482.33L11392 3480.27L11359.3 3724.09ZM11682.8 3810.01L11619.7 4047.77L11679.7 4063.72L11740.1 4049.24L11682.8 3810.01ZM12272 4326.59L12517.7 4340.53L12517.7 4340.52L12272 4326.59ZM12089 7553.05L12334.6 7566.99L12334.6 7566.99L12089 7553.05ZM11527.7 8279.35L11600.2 8514.41L11600.2 8514.41L11527.7 8279.35ZM9372.35 8944.46L9444.89 9179.52L9444.89 9179.52L9372.35 8944.46ZM8825.05 8774.83L9030.55 8639.62L8579.05 7953.41V8774.83H8825.05ZM8825.05 8804L8709.83 9021.35L9071.05 9212.84V8804H8825.05ZM7769.92 8260.41L7880.14 8040.49L7805.38 8003.02L7723.27 8018.88L7769.92 8260.41ZM6809.04 8446L6693.83 8663.35L6770.5 8703.99L6855.7 8687.54L6809.04 8446ZM6382.74 8173.67L6528.38 7975.41L6510.6 7962.36L6490.79 7952.67L6382.74 8173.67ZM5081.4 7635.54L5155.33 7400.91L4856.76 7306.83L4835.95 7619.18L5081.4 7635.54ZM5077.21 7985.8H5323.21V7984.42L5323.19 7983.03L5077.21 7985.8ZM5077.21 7985.82H4831.21V7987.2L4831.23 7988.58L5077.21 7985.82ZM4967.11 8821.03L4756.83 8693.36L4756.83 8693.36L4967.11 8821.03ZM4745.46 8987.72L4707.08 8744.73L4530.6 8772.61L4502.52 8949.06L4745.46 8987.72ZM4543.04 9608L4753.32 9735.67L4753.32 9735.67L4543.04 9608ZM4024.66 9995.98L3987.44 9752.81L3965.01 9756.25L3943.59 9763.72L4024.66 9995.98ZM2760.78 10437.1L2679.71 10204.9L2645.39 10216.9L2616.01 10238.3L2760.78 10437.1ZM1657.05 10356L1753.95 10129.9L1753.95 10129.9L1657.05 10356ZM1273.05 8660L1507.85 8733.38L1507.85 8733.38L1273.05 8660ZM1351.13 5980.67L1108.74 6022.68L1108.74 6022.68L1351.13 5980.67ZM1273.05 5364L1519.05 5364L1519.05 5189.87L1354.82 5131.99L1273.05 5364ZM665.045 5028L501.224 5211.52L665.045 5028ZM377.045 3412L155.082 3305.94L377.045 3412ZM858.314 3028.35L934.641 3262.21L1716.09 3007.16L923.002 2791L858.314 3028.35ZM857.045 3028L801.729 2788.3L792.358 3265.34L857.045 3028ZM865.268 3026.1L920.584 3265.8L930.41 3263.53L940.017 3260.47L865.268 3026.1ZM985.045 2996L1051.28 2759.09L1000.3 2744.83L947.956 2752.81L985.045 2996ZM989.868 2997.35L923.629 3234.26L984.051 3251.16L1045.18 3237.05L989.868 2997.35ZM11203.9 3439.76L2550.4 2399.76L2491.69 2888.24L11145.2 3928.24L11203.9 3439.76ZM11289.2 3902.88L11308.8 3890.13L11040.3 3477.87L11020.7 3490.63L11289.2 3902.88ZM11392 3480.27L11187.5 3452.93L11122.3 3940.59L11326.7 3967.92L11392 3480.27ZM11746 3572.26L11422.5 3486.34L11296.2 3961.85L11619.7 4047.77L11746 3572.26ZM12517.7 4340.52C12531.7 4092.79 12446.1 3865.54 12273.1 3715.26C12099.4 3564.32 11863.4 3513.76 11625.5 3570.79L11740.1 4049.24C11839.8 4025.36 11908.7 4050.42 11950.4 4086.65C11992.9 4123.54 12033.1 4195.04 12026.4 4312.66L12517.7 4340.52ZM12334.6 7566.99L12517.7 4340.53L12026.4 4312.66L11843.4 7539.12L12334.6 7566.99ZM11600.2 8514.41C12002.7 8390.22 12310.7 7988.19 12334.6 7566.99L11843.4 7539.12C11830.8 7759.99 11656.5 7982.16 11455.2 8044.28L11600.2 8514.41ZM9444.89 9179.52L11600.2 8514.41L11455.2 8044.28L9299.81 8709.39L9444.89 9179.52ZM8619.54 8910.05C8797.24 9180.11 9123.97 9278.55 9444.89 9179.52L9299.81 8709.39C9161.16 8752.18 9073.15 8704.36 9030.55 8639.62L8619.54 8910.05ZM9071.05 8804V8774.83H8579.05V8804H9071.05ZM7659.69 8480.33C8037.16 8669.53 8394.84 8854.37 8709.83 9021.35L8940.27 8586.65C8621.97 8417.92 8260.96 8231.36 7880.14 8040.49L7659.69 8480.33ZM6855.7 8687.54L7816.57 8501.95L7723.27 8018.88L6762.39 8204.46L6855.7 8687.54ZM6237.11 8371.93C6380.44 8477.22 6533.85 8578.54 6693.83 8663.35L6924.26 8228.65C6791.6 8158.33 6658.93 8071.32 6528.38 7975.41L6237.11 8371.93ZM5007.47 7870.16C5367.43 7983.59 5852.23 8188.13 6274.7 8394.67L6490.79 7952.67C6055.57 7739.89 5546.82 7524.27 5155.33 7400.91L5007.47 7870.16ZM5323.19 7983.03C5321.76 7855.05 5320.67 7744.78 5326.86 7651.9L4835.95 7619.18C4828.23 7735.02 4829.85 7865.96 4831.23 7988.56L5323.19 7983.03ZM5323.21 7985.82V7985.8H4831.21V7985.82H5323.21ZM5177.38 8948.71C5265.81 8803.07 5298.19 8625.15 5312.44 8468.33C5327.07 8307.26 5324.89 8133.73 5323.19 7983.05L4831.23 7988.58C4832.98 8144.85 4834.4 8292.32 4822.46 8423.81C4810.12 8559.56 4785.73 8645.77 4756.83 8693.36L5177.38 8948.71ZM4783.83 9230.71C4946.82 9204.97 5081.11 9107.26 5177.38 8948.71L4756.83 8693.36C4738.24 8723.98 4724.26 8735.85 4718.72 8739.83C4714.17 8743.1 4711.33 8744.06 4707.08 8744.73L4783.83 9230.71ZM4753.32 9735.67C4878.46 9529.56 4947.92 9280.73 4988.4 9026.39L4502.52 8949.06C4466.92 9172.72 4411.22 9351.11 4332.77 9480.33L4753.32 9735.67ZM4061.89 10239.1C4333.17 10197.6 4570.03 10037.6 4753.32 9735.67L4332.77 9480.33C4212.77 9677.97 4093.11 9736.64 3987.44 9752.81L4061.89 10239.1ZM2841.85 10669.4L4105.74 10228.2L3943.59 9763.72L2679.71 10204.9L2841.85 10669.4ZM1560.14 10582.1C1733.43 10656.4 1952.35 10751.3 2175.48 10788.9C2407.65 10828 2667.4 10809.4 2905.55 10636L2616.01 10238.3C2516.29 10310.8 2403.06 10328.3 2257.28 10303.7C2102.45 10277.6 1938.45 10209 1753.95 10129.9L1560.14 10582.1ZM1038.24 8586.62C956.8 8847.25 861.428 9231.22 891.324 9601.96C922.243 9985.4 1092.87 10381.9 1560.14 10582.1L1753.95 10129.9C1503.16 10022.4 1402.8 9823.66 1381.73 9562.42C1359.64 9288.5 1431.3 8978.33 1507.85 8733.38L1038.24 8586.62ZM1108.74 6022.68C1220.56 6667.96 1368.25 7530.61 1038.24 8586.62L1507.85 8733.38C1875.64 7556.44 1706.71 6591.92 1593.52 5938.67L1108.74 6022.68ZM1027.05 5364C1027.05 5556.03 1067.84 5786.62 1108.74 6022.68L1593.52 5938.67C1549.87 5686.79 1519.05 5504.09 1519.05 5364L1027.05 5364ZM501.224 5211.52C640.121 5335.51 817.178 5431.45 947.927 5493.6C1015.42 5525.67 1075.13 5550.86 1118.22 5568.13C1139.83 5576.79 1157.43 5583.52 1169.94 5588.2C1176.19 5590.55 1181.19 5592.38 1184.78 5593.68C1186.58 5594.34 1188.04 5594.86 1189.12 5595.25C1189.66 5595.44 1190.12 5595.6 1190.48 5595.73C1190.66 5595.79 1190.81 5595.85 1190.95 5595.9C1191.01 5595.92 1191.07 5595.94 1191.13 5595.96C1191.15 5595.97 1191.19 5595.98 1191.2 5595.99C1191.24 5596 1191.27 5596.01 1273.05 5364C1354.82 5131.99 1354.85 5132 1354.88 5132.01C1354.89 5132.01 1354.91 5132.02 1354.93 5132.03C1354.96 5132.04 1354.99 5132.05 1355.01 5132.06C1355.05 5132.07 1355.06 5132.08 1355.06 5132.07C1355.05 5132.07 1354.95 5132.03 1354.76 5131.97C1354.39 5131.83 1353.66 5131.57 1352.6 5131.19C1350.48 5130.42 1347.04 5129.16 1342.39 5127.42C1333.08 5123.94 1319.02 5118.56 1301.23 5111.43C1265.53 5097.13 1215.48 5076.02 1159.13 5049.24C1042.21 4993.66 915.261 4921.61 828.866 4844.48L501.224 5211.52ZM155.082 3305.94C-133.61 3910.12 -16.7957 4749.1 501.224 5211.52L828.866 4844.48C492.194 4543.94 393.755 3947.62 599.008 3518.06L155.082 3305.94ZM781.988 2794.49C618.422 2847.87 308.839 2984.15 155.082 3305.94L599.008 3518.06C664.253 3381.51 811.067 3302.54 934.641 3262.21L781.988 2794.49ZM792.358 3265.34L793.627 3265.69L923.002 2791L921.732 2790.66L792.358 3265.34ZM809.953 2786.4L801.729 2788.3L912.36 3267.7L920.584 3265.8L809.953 2786.4ZM985.045 2996C947.956 2752.81 947.927 2752.82 947.899 2752.82C947.889 2752.82 947.86 2752.83 947.841 2752.83C947.801 2752.84 947.761 2752.84 947.721 2752.85C947.639 2752.86 947.555 2752.87 947.467 2752.89C947.292 2752.91 947.104 2752.94 946.904 2752.97C946.504 2753.04 946.055 2753.11 945.558 2753.19C944.564 2753.35 943.376 2753.54 942.001 2753.77C939.253 2754.23 935.753 2754.85 931.555 2755.62C923.166 2757.18 911.947 2759.4 898.333 2762.43C871.186 2768.48 834.049 2777.85 790.52 2791.73L940.017 3260.47C967.599 3251.67 990.351 3245.99 1005.31 3242.66C1012.76 3241 1018.15 3239.95 1021.11 3239.4C1022.58 3239.13 1023.44 3238.99 1023.63 3238.95C1023.72 3238.94 1023.65 3238.95 1023.4 3238.99C1023.28 3239.01 1023.11 3239.04 1022.9 3239.07C1022.8 3239.09 1022.68 3239.1 1022.55 3239.12C1022.49 3239.13 1022.42 3239.14 1022.35 3239.15C1022.32 3239.16 1022.28 3239.17 1022.25 3239.17C1022.23 3239.17 1022.2 3239.18 1022.19 3239.18C1022.16 3239.18 1022.13 3239.19 985.045 2996ZM1056.11 2760.43L1051.28 2759.09L918.806 3232.91L923.629 3234.26L1056.11 2760.43ZM2465.73 2404.3L934.553 2757.65L1045.18 3237.05L2576.36 2883.7L2465.73 2404.3Z" fill="#7B7B7B" mask="url(#path-1-outside-1_119_2)"/>
<path d="M2108.52 4488L2374.52 2692L11990.5 3908L11894.5 7972C10123.9 7033.33 5487.72 5812.8 5052.52 6120C4508.52 6504 5084.52 8712 4540.52 9608C4171.38 10216 3644.52 9992 3196.52 9800C2478.47 9492.26 2654.53 8609.58 2812.52 8104C3292.52 6568 2812.52 5416 2812.52 4808L2108.52 4488Z" fill="#9C9C9C"/>
<path d="M2518.52 2644L11894.5 3796L8838.52 5204L854.523 3028L2518.52 2644Z" fill="#D9D9D9"/>
<path fill-rule="evenodd" clip-rule="evenodd" d="M4012.14 5784L3918.36 6618.54L4221.21 6756.2C4221.21 6827.63 4236.62 6916.52 4254.8 7021.47C4303.2 7300.77 4371.3 7693.77 4221.21 8174.05C4189.96 8274.06 4157.06 8408.36 4160.67 8537.15C4139.23 8727.77 4101.53 9042.02 4080.04 9218.85L4742.06 8987.86C4822.96 8975.34 4899.48 8928.27 4964.58 8821.03C5081.9 8627.81 5078.14 8292.76 5074.69 7985.82C5071.26 7680.48 5068.14 7402.96 5184.84 7320.58C5281.88 7252.09 5509.33 7448.44 5811.99 7709.72C6093.3 7952.56 6439.59 8251.49 6806.52 8446L8214.52 8174.05L8054.52 6618.54L4012.14 5784Z" fill="#8B9700"/>
<path d="M3254.52 6858.11L3433.49 5977.23L6806.36 6920.05V8475.34C6044.6 8071.61 4708.3 7427.93 4521.07 7560.06C4287.03 7725.22 4534.84 8674.92 4300.8 9060.3C4141.99 9321.81 3915.33 9225.47 3722.6 9142.88C3413.68 9010.52 3489.42 8630.87 3557.39 8413.41C3763.9 7752.75 3722.6 7108 3557.39 6995.75L3254.52 6858.11Z" fill="#EFFF3B"/>
<path d="M4182.52 9940L2486.52 10532C2555.86 9961.33 2697.72 8775.2 2710.52 8596C2723.32 8416.8 3697.19 9369.33 4182.52 9476V9940Z" fill="#9C9C9C"/>
<path d="M1270.52 5364C1270.52 5364 887.814 5229.11 662.521 5028C235.176 4646.52 127.549 3928.87 374.521 3412C541.129 3063.32 982.522 2996 982.522 2996L8822.52 5188V8804C7051.86 7865.33 3945.72 6368.8 3510.52 6676C2966.52 7060 3542.52 9268 2998.52 10164C2629.38 10772 2102.52 10548 1654.52 10356C936.468 10048.3 1112.53 9165.58 1270.52 8660C1750.52 7124 1270.52 5972 1270.52 5364Z" fill="#C5C5C5"/>
<path fill-rule="evenodd" clip-rule="evenodd" d="M10311.2 3584.28L11894.5 3796L8838.52 5204L7127.42 4733.2C7127.12 4719.32 7126.82 4705.58 7126.52 4692L10311.2 3584.28Z" fill="#0EDE92"/>
<path fill-rule="evenodd" clip-rule="evenodd" d="M7127 4713.95L8822.52 5188V8804C8354.44 8555.86 7793.03 8268.73 7212.31 7986.25C7183.88 7188.32 7146.74 5623.71 7127 4713.95Z" fill="#01B574"/>
<path d="M9055.91 4795.4L11641.1 3958.71C11921.5 3867.96 12155.4 4052.42 12138.5 4350.89L11956.2 7563.76C11941.7 7818.59 11747.3 8065.37 11507.4 8133.41L9298.68 8759.94C9047.99 8831.05 8835.83 8682.51 8819.13 8424.2L8625.04 5421.49C8607.99 5157.87 8800.57 4878.04 9055.91 4795.4Z" fill="#0EDE92" stroke="#007248" stroke-width="273"/>
<ellipse cx="924.89" cy="882.813" rx="924.89" ry="882.813" transform="matrix(0.978148 -0.207912 -0.0697565 0.997564 9613.69 5000.59)" fill="#007248"/>
<path fill-rule="evenodd" clip-rule="evenodd" d="M10043.2 6366.62C10542.8 6260.42 10975.5 5780.04 11009.5 5293.66C11023.4 5094.7 10968.4 4925.56 10864.4 4802.4C10759.6 4781.1 10642.8 4781.85 10518.4 4808.3C10018.7 4914.5 9586.12 5394.88 9552.11 5881.26C9538.19 6080.21 9593.13 6249.36 9697.13 6372.52C9801.93 6393.82 9918.78 6393.07 10043.2 6366.62Z" fill="#363636"/>
<ellipse cx="626.477" cy="597.976" rx="626.477" ry="597.976" transform="matrix(0.978148 -0.207912 -0.0697565 0.997564 10004.9 6907.5)" fill="#007248"/>
<path fill-rule="evenodd" clip-rule="evenodd" d="M10295.9 7832.79C10634.3 7760.85 10927.3 7435.47 10950.4 7106.02C10959.8 6971.25 10922.6 6856.68 10852.2 6773.26C10781.2 6758.83 10702 6759.34 10617.7 6777.25C10279.3 6849.19 9986.27 7174.57 9963.24 7504.02C9953.81 7638.79 9991.03 7753.36 10061.5 7836.78C10132.5 7851.21 10211.6 7850.7 10295.9 7832.79Z" fill="#363636"/>
<path d="M1284.65 4104.91C1400.83 3836.27 1681.51 3708.37 1967.31 3793.82L6640.67 5191.18C6987.04 5294.74 7261.74 5614.27 7328.27 5990.99V5990.99C7443.99 6646.17 6899.16 7129.35 6307.04 6896.66L1713.45 5091.48C1331.3 4941.31 1126.61 4470.36 1284.65 4104.91V4104.91Z" fill="#8F8F8F"/>
<path fill-rule="evenodd" clip-rule="evenodd" d="M1631.25 3790.73C1598.11 3831.3 1569.87 3877.53 1547.65 3928.91C1389.61 4294.36 1594.3 4765.31 1976.45 4915.48L6570.03 6720.66C6769.22 6798.94 6963.05 6796.2 7128.19 6733.17C7294.91 6557.51 7381.51 6292.46 7328.27 5990.99C7261.74 5614.27 6987.04 5294.74 6640.67 5191.18L1967.31 3793.82C1850.84 3759 1735.23 3759.6 1631.25 3790.73Z" fill="#363636"/>
<path d="M2718.56 4423.48C2755.88 4462.01 2803.15 4501.47 2833.12 4515.82C2703.3 4557.93 2522.25 4667.36 2376.97 4591.55C2320.3 4561.98 2325.32 4429.23 2308.61 4390.69C2361.19 4385.95 2332.89 4396.96 2454.54 4323.61C2606.59 4231.93 2671.91 4375.31 2718.56 4423.48Z" fill="#4C6D21"/>
<path d="M2534.86 4728.11C2589.25 4734.34 2650.56 4748.1 2680.79 4763.53C2634.4 4631.19 2610.81 4414.78 2459.23 4343.92C2400.1 4316.27 2295.59 4403.77 2253.97 4414.34C2282.75 4460.21 2274.12 4430.22 2290.12 4575.51C2310.11 4757.12 2466.86 4720.32 2534.86 4728.11Z" fill="#5E8828"/>
<path d="M2081.13 4583.62C1868.9 4461.09 1754.63 4261.7 1825.89 4138.28C1897.15 4014.85 2126.96 4014.12 2339.18 4136.65C2551.41 4259.18 2665.68 4458.56 2594.42 4581.99C2523.16 4705.41 2293.35 4706.14 2081.13 4583.62Z" fill="url(#paint0_linear_119_2)"/>
<path fill-rule="evenodd" clip-rule="evenodd" d="M1797.55 4389.65C1746.35 4300.31 1726.34 4196.46 1776.34 4109.86C1826.34 4023.25 1926.28 3988.66 2029.25 3988.33C2133.88 3988 2254.18 4021.99 2367.44 4087.38C2480.69 4152.77 2570.28 4239.96 2622.3 4330.73C2673.5 4420.07 2693.52 4523.92 2643.52 4610.53C2593.52 4697.13 2493.57 4731.72 2390.6 4732.05C2285.98 4732.38 2165.68 4698.39 2052.42 4633C1939.16 4567.61 1849.57 4480.43 1797.55 4389.65ZM1825.63 4138.32C1754.36 4261.76 1868.64 4461.17 2080.88 4583.71C2293.12 4706.24 2522.95 4705.51 2594.22 4582.06C2665.49 4458.62 2551.22 4259.21 2338.98 4136.67C2126.74 4014.14 1896.9 4014.87 1825.63 4138.32Z" fill="#BE9951"/>
<path d="M2408.03 4610.71C2432.82 4624.32 2515.56 4597.79 2553.84 4582.82L2435.44 4562.4C2384.99 4553.7 2377.04 4593.7 2408.03 4610.71Z" fill="#BE9951"/>
<path d="M2532.26 4395.49C2556.44 4410.15 2574.84 4495.08 2581.01 4535.7L2504.13 4443.38C2471.37 4404.04 2502.03 4377.15 2532.26 4395.49Z" fill="#BE9951"/>
<path d="M2439.46 4465.72C2467.72 4464.65 2529.83 4525.42 2557.35 4555.94L2442.34 4521.18C2393.34 4506.38 2404.13 4467.05 2439.46 4465.72Z" fill="#BE9951"/>
<path d="M2412.82 4134.12C2490.72 4188.74 2600.53 4243.33 2655.18 4262.65C2468.17 4333.11 2334.96 4497.36 2024.23 4378C1919.73 4337.85 1788.3 4167.44 1743.27 4111.53C1824.89 4101.21 1785 4119.26 1944.07 4003.16C2142.92 3858.02 2315.44 4065.86 2412.82 4134.12Z" fill="url(#paint1_linear_119_2)"/>
<path fill-rule="evenodd" clip-rule="evenodd" d="M2738.37 4261.8L2665.24 4289.36C2621.3 4305.91 2580.23 4327.97 2537.02 4351.18C2536.32 4351.56 2535.61 4351.94 2534.9 4352.32C2491.45 4375.66 2445.85 4400.03 2395.9 4418.3C2294.02 4455.58 2175.92 4466.83 2013.99 4404.63C1955.1 4382.01 1892.25 4324.88 1840.7 4270.26C1794.71 4221.55 1754.52 4171.28 1730.34 4141.03C1726.91 4136.74 1723.8 4132.85 1721.05 4129.43L1689 4089.63L1739.69 4083.22C1750.04 4081.91 1758.51 4081.05 1765.46 4080.33L1765.89 4080.29C1773.12 4079.55 1778.11 4079.03 1782.37 4078.37C1789.57 4077.26 1793.89 4075.93 1800.66 4072.13C1808.82 4067.55 1819.79 4059.78 1840.04 4044.72C1844.9 4041.11 1850.23 4037.13 1856.1 4032.75C1874.09 4019.31 1897.17 4002.07 1927.25 3980.11C1981.49 3940.52 2035.41 3924.1 2087.6 3924.26C2139.3 3924.42 2187.15 3940.84 2229.83 3963.39C2272.43 3985.9 2311.07 4015.16 2344.46 4042.32C2355.9 4051.62 2366.5 4060.48 2376.41 4068.75C2396.44 4085.48 2413.64 4099.85 2429.2 4110.76C2505.11 4163.98 2612.62 4217.34 2664.69 4235.75L2738.37 4261.8ZM2582.66 4263.14C2524.87 4236.25 2452.68 4196.91 2396.44 4157.49C2378.87 4145.17 2358.57 4128.22 2337.34 4110.49C2327.84 4102.57 2318.16 4094.48 2308.46 4086.59C2275.9 4060.11 2240.73 4033.69 2203.17 4013.84C2165.68 3994.04 2127.03 3981.45 2087.42 3981.33C2048.3 3981.2 2006.08 3993.23 1960.9 4026.2C1931.09 4047.96 1908.38 4064.92 1890.41 4078.34C1884.48 4082.77 1879.07 4086.82 1874.09 4090.52C1854.53 4105.06 1840.54 4115.19 1828.59 4121.9C1817.51 4128.11 1808.07 4131.48 1797.61 4133.61C1820.54 4161.83 1849.87 4196.85 1882.19 4231.09C1933.74 4285.7 1988.85 4333.84 2034.46 4351.36C2183.26 4408.52 2287.13 4397.34 2376.29 4364.71C2421.87 4348.04 2464.06 4325.6 2507.89 4302.05C2509.05 4301.43 2510.21 4300.81 2511.37 4300.19C2534.51 4287.75 2558.17 4275.04 2582.66 4263.14Z" fill="#4C6D21"/>
<path d="M2329.66 4523.05C2370.12 4616.73 2424.98 4720.27 2463.92 4768.71C2254.7 4727.25 1943.22 4751.27 1756.9 4506.4C1684.22 4410.87 1743.3 4200.78 1733.46 4124.47C1813.41 4161.16 1767.1 4155.07 1976.32 4139.21C2237.84 4119.4 2279.09 4405.94 2329.66 4523.05Z" fill="#95CF4A"/>
<path fill-rule="evenodd" clip-rule="evenodd" d="M2535.29 4811.94L2458.38 4796.7C2414.62 4788.03 2366.23 4782.29 2314.03 4776.1C2305.45 4775.08 2296.76 4774.06 2287.98 4773C2226.35 4765.58 2160.63 4756.9 2095.32 4741.62C1964.34 4710.97 1832.82 4653.29 1734.2 4523.68C1711.94 4494.43 1700.91 4458.03 1695.71 4421.13C1690.49 4384.08 1690.86 4344.31 1693.14 4306.51C1694.82 4278.61 1697.61 4250.79 1700.15 4225.58C1701.03 4216.77 1701.89 4208.28 1702.65 4200.22C1705.73 4167.68 1707.15 4143.48 1705.16 4128.12L1698.58 4077.07L1745.36 4098.54C1755.49 4103.19 1763.65 4107.17 1770.37 4110.44L1770.78 4110.64C1777.75 4114.04 1782.62 4116.41 1786.92 4118.24C1794.28 4121.38 1799.17 4122.67 1807.67 4123.04C1817.78 4123.49 1832.18 4122.59 1858.95 4120.33C1865.37 4119.78 1872.44 4119.17 1880.22 4118.49C1904.05 4116.42 1934.61 4113.76 1974.16 4110.76C2045.17 4105.38 2102.92 4120.81 2149.87 4150.17C2196.41 4179.26 2230.55 4220.91 2256.69 4265.31C2282.78 4309.65 2301.58 4357.93 2316.82 4401.45C2322.02 4416.29 2326.72 4430.29 2331.12 4443.4C2340.04 4470 2347.74 4492.93 2355.86 4511.74C2396.11 4604.96 2449.75 4705.54 2486.16 4750.84L2535.29 4811.94ZM2402.79 4729.72C2369.08 4674.47 2332.37 4601.29 2303.47 4534.36C2294.39 4513.32 2285.41 4486.59 2275.98 4458.53C2271.75 4445.92 2267.43 4433.05 2262.97 4420.31C2248.08 4377.79 2230.74 4333.72 2207.51 4294.26C2184.32 4254.86 2155.95 4221.27 2119.62 4198.55C2083.71 4176.1 2038.23 4163.14 1978.47 4167.67C1939.27 4170.64 1909.17 4173.25 1885.37 4175.33C1877.51 4176.01 1870.34 4176.63 1863.76 4177.19C1837.86 4179.38 1819.62 4180.69 1805.16 4180.05C1789.1 4179.34 1777.5 4176.26 1764.52 4170.73C1763.8 4170.42 1763.07 4170.1 1762.34 4169.78C1761.66 4181.34 1760.61 4193.42 1759.46 4205.59C1758.64 4214.31 1757.74 4223.21 1756.83 4232.27C1754.33 4257.19 1751.7 4283.28 1750.1 4309.94C1747.92 4346.15 1747.76 4381.58 1752.21 4413.17C1756.69 4444.92 1765.52 4470.61 1779.61 4489.12C1867.31 4604.38 1984.69 4657.13 2108.32 4686.05C2170.33 4700.56 2233.36 4708.95 2294.8 4716.34C2303.36 4717.37 2311.9 4718.38 2320.42 4719.39C2348.39 4722.71 2376.03 4725.98 2402.79 4729.72Z" fill="#73AC2C"/>
<path d="M1869.57 4558.6C1958.62 4651.13 2189.13 4691.71 2293.25 4700.44C2200.58 4668.57 1996.15 4591.11 1919.83 4536.23C1843.51 4481.35 1777.97 4372.28 1754.75 4324.61C1755.91 4364.06 1780.51 4466.07 1869.57 4558.6Z" fill="#B4FF55"/>
<path d="M1851.18 4409.04C1918.11 4478.52 2091.23 4509.09 2169.43 4515.69C2099.82 4491.73 1946.26 4433.5 1888.91 4392.28C1831.57 4351.06 1782.3 4269.19 1764.83 4233.41C1765.73 4263.01 1784.25 4339.57 1851.18 4409.04Z" fill="#B4FF55"/>
<path d="M2029.09 4159.37C2108.17 4174.1 2195.11 4293.88 2228.7 4351.93C2184.54 4310.15 2082.89 4220.95 2029.56 4198.3C1976.24 4175.65 1893.8 4181.63 1859.25 4187.45C1882.91 4171.95 1950.01 4144.64 2029.09 4159.37Z" fill="#B4FF55"/>
<path d="M2102.05 3984.95C2182.38 3981.31 2294.32 4078.06 2340.25 4126.88C2287.74 4096.29 2168.46 4032.62 2111.39 4022.7C2054.33 4012.79 1975.44 4037.33 1943.14 4050.84C1962.63 4030.39 2021.72 3988.58 2102.05 3984.95Z" fill="#8CCC3B"/>
<path d="M2059.52 4054.91C2177.88 4055.41 2349.35 4186.76 2420.28 4252.37C2340.8 4209.73 2160.62 4120.36 2075.74 4103.97C1990.86 4087.58 1875.99 4114.01 1829.16 4129.27C1856.63 4104.28 1941.17 4054.42 2059.52 4054.91Z" fill="#8CCC3B"/>
<path d="M1967.36 4205.61C2020.73 4215.51 2079.35 4296.4 2101.98 4335.61C2072.2 4307.41 2003.64 4247.19 1967.66 4231.92C1931.68 4216.65 1876.03 4220.74 1852.7 4224.7C1868.68 4214.21 1913.99 4195.7 1967.36 4205.61Z" fill="#B4FF55"/>
<path d="M3995.2 4872.78C4040.2 4919.24 4097.18 4966.8 4133.31 4984.1C3976.8 5034.87 3758.54 5166.8 3583.4 5075.4C3515.07 5039.75 3521.13 4879.71 3500.98 4833.25C3564.37 4827.54 3530.26 4840.8 3676.91 4752.38C3860.22 4641.85 3938.96 4814.7 3995.2 4872.78Z" fill="#4C6D21"/>
<path d="M3773.74 5240.03C3839.32 5247.54 3913.22 5264.13 3949.66 5282.74C3893.74 5123.19 3865.3 4862.29 3682.56 4776.86C3611.27 4743.53 3485.28 4849.01 3435.11 4861.76C3469.81 4917.06 3459.4 4880.9 3478.69 5056.06C3502.79 5275.01 3691.77 5230.64 3773.74 5240.03Z" fill="#5E8828"/>
<path d="M3226.74 5065.83C2970.89 4918.12 2833.12 4677.75 2919.03 4528.95C3004.94 4380.15 3281.99 4379.27 3537.84 4526.99C3793.69 4674.7 3931.45 4915.07 3845.55 5063.87C3759.64 5212.67 3482.59 5213.55 3226.74 5065.83Z" fill="url(#paint2_linear_119_2)"/>
<path fill-rule="evenodd" clip-rule="evenodd" d="M2884.87 4832C2823.14 4724.29 2799.01 4599.09 2859.29 4494.69C2919.57 4390.28 3040.06 4348.58 3164.2 4348.18C3290.33 4347.78 3435.36 4388.76 3571.9 4467.59C3708.44 4546.42 3816.45 4651.53 3879.16 4760.96C3940.89 4868.67 3965.02 4993.87 3904.74 5098.28C3844.46 5202.68 3723.97 5244.38 3599.83 5244.78C3473.7 5245.19 3328.67 5204.2 3192.13 5125.37C3055.59 5046.54 2947.58 4941.43 2884.87 4832ZM2918.72 4529C2832.8 4677.82 2970.57 4918.22 3226.44 5065.95C3482.31 5213.67 3759.39 5212.79 3845.31 5063.96C3931.23 4915.14 3793.46 4674.74 3537.59 4527.02C3281.72 4379.29 3004.64 4380.18 2918.72 4529Z" fill="#BE9951"/>
<path d="M3620.84 5098.5C3650.73 5114.9 3750.48 5082.92 3796.62 5064.88L3653.89 5040.26C3593.07 5029.77 3583.47 5077.99 3620.84 5098.5Z" fill="#BE9951"/>
<path d="M3770.6 4839.03C3799.76 4856.71 3821.93 4959.09 3829.38 5008.08L3736.69 4896.77C3697.2 4849.35 3734.16 4816.93 3770.6 4839.03Z" fill="#BE9951"/>
<path d="M3658.73 4923.7C3692.8 4922.41 3767.68 4995.68 3800.85 5032.47L3662.2 4990.57C3603.13 4972.72 3616.14 4925.31 3658.73 4923.7Z" fill="#BE9951"/>
<path d="M3626.61 4523.94C3720.53 4589.78 3852.91 4655.6 3918.79 4678.89C3693.34 4763.83 3532.74 4961.85 3158.13 4817.95C3032.15 4769.55 2873.71 4564.11 2819.42 4496.7C2917.82 4484.26 2869.73 4506.03 3061.51 4366.05C3301.23 4191.08 3509.21 4441.64 3626.61 4523.94Z" fill="url(#paint3_linear_119_2)"/>
<path fill-rule="evenodd" clip-rule="evenodd" d="M4019.08 4677.87L3930.92 4711.08C3877.95 4731.04 3828.44 4757.64 3776.35 4785.61C3775.49 4786.07 3774.64 4786.53 3773.78 4786.99C3721.41 4815.13 3666.43 4844.51 3606.22 4866.54C3483.4 4911.48 3341.01 4925.04 3145.8 4850.06C3074.8 4822.78 2999.03 4753.91 2936.88 4688.07C2881.44 4629.34 2832.99 4568.73 2803.84 4532.26C2799.7 4527.09 2795.95 4522.41 2792.63 4518.28L2754 4470.3L2815.11 4462.58C2827.59 4461 2837.8 4459.95 2846.18 4459.09L2846.7 4459.04C2855.41 4458.15 2861.43 4457.51 2866.56 4456.72C2875.24 4455.39 2880.45 4453.79 2888.61 4449.2C2898.45 4443.68 2911.67 4434.31 2936.09 4416.16C2941.94 4411.81 2948.37 4407.01 2955.45 4401.72C2977.14 4385.52 3004.96 4364.74 3041.23 4338.27C3106.62 4290.54 3171.62 4270.74 3234.54 4270.94C3296.87 4271.13 3354.55 4290.93 3406 4318.11C3457.36 4345.24 3503.95 4380.52 3544.2 4413.26C3557.99 4424.47 3570.77 4435.15 3582.72 4445.13C3606.86 4465.3 3627.6 4482.62 3646.36 4495.77C3737.87 4559.93 3867.48 4624.27 3930.26 4646.46L4019.08 4677.87ZM3831.36 4679.48C3761.7 4647.05 3674.67 4599.64 3606.87 4552.11C3585.69 4537.26 3561.21 4516.82 3535.62 4495.45C3524.17 4485.89 3512.49 4476.15 3500.79 4466.63C3461.54 4434.71 3419.14 4402.86 3373.86 4378.93C3328.67 4355.06 3282.08 4339.88 3234.32 4339.73C3187.15 4339.58 3136.26 4354.08 3081.79 4393.84C3045.86 4420.06 3018.48 4440.51 2996.81 4456.69C2989.67 4462.03 2983.14 4466.91 2977.13 4471.37C2953.55 4488.9 2936.69 4501.11 2922.28 4509.2C2908.92 4516.69 2897.55 4520.75 2884.93 4523.32C2912.57 4557.34 2947.94 4599.56 2986.91 4640.84C3049.04 4706.67 3115.48 4764.71 3170.47 4785.83C3349.87 4854.75 3475.09 4841.26 3582.58 4801.93C3637.52 4781.83 3688.38 4754.77 3741.23 4726.39C3742.62 4725.64 3744.02 4724.89 3745.42 4724.14C3773.31 4709.15 3801.84 4693.82 3831.36 4679.48Z" fill="#4C6D21"/>
<path d="M3526.36 4992.81C3575.13 5105.76 3641.27 5230.58 3688.22 5288.98C3435.99 5239 3060.48 5267.96 2835.86 4972.74C2748.23 4857.57 2819.46 4604.3 2807.6 4512.3C2903.99 4556.53 2848.15 4549.19 3100.38 4530.08C3415.66 4506.18 3465.4 4851.63 3526.36 4992.81Z" fill="#95CF4A"/>
<path fill-rule="evenodd" clip-rule="evenodd" d="M3774.25 5341.1L3681.53 5322.72C3628.78 5312.27 3570.45 5305.35 3507.51 5297.89C3497.16 5296.66 3486.69 5295.42 3476.1 5294.15C3401.81 5285.21 3322.58 5274.74 3243.85 5256.32C3085.93 5219.37 2927.37 5149.83 2808.48 4993.57C2781.65 4958.31 2768.35 4914.43 2762.08 4869.95C2755.79 4825.27 2756.24 4777.33 2758.98 4731.77C2761.01 4698.13 2764.38 4664.59 2767.43 4634.19C2768.5 4623.58 2769.53 4613.34 2770.45 4603.62C2774.16 4564.39 2775.87 4535.22 2773.48 4516.7L2765.55 4455.16L2821.94 4481.04C2834.15 4486.64 2843.99 4491.44 2852.09 4495.39L2852.59 4495.63C2860.99 4499.73 2866.87 4502.58 2872.04 4504.79C2880.92 4508.58 2886.81 4510.13 2897.06 4510.58C2909.24 4511.12 2926.61 4510.04 2958.88 4507.31C2966.62 4506.65 2975.14 4505.91 2984.52 4505.1C3013.25 4502.6 3050.09 4499.39 3097.78 4495.78C3183.38 4489.29 3253 4507.89 3309.61 4543.28C3365.71 4578.36 3406.87 4628.56 3438.38 4682.09C3469.84 4735.55 3492.51 4793.75 3510.88 4846.22C3517.14 4864.11 3522.81 4880.99 3528.11 4896.79C3538.87 4928.86 3548.15 4956.51 3557.94 4979.18C3606.47 5091.57 3671.13 5212.82 3715.03 5267.43L3774.25 5341.1ZM3614.51 5241.97C3573.88 5175.37 3529.62 5087.14 3494.78 5006.45C3483.83 4981.09 3473 4948.86 3461.64 4915.03C3456.54 4899.84 3451.33 4884.32 3445.95 4868.96C3428 4817.7 3407.09 4764.56 3379.09 4716.99C3351.14 4669.5 3316.94 4629 3273.14 4601.61C3229.84 4574.54 3175.01 4558.92 3102.98 4564.38C3055.71 4567.96 3019.43 4571.11 2990.73 4573.61C2981.26 4574.44 2972.62 4575.19 2964.68 4575.86C2933.46 4578.5 2911.47 4580.08 2894.04 4579.31C2874.67 4578.46 2860.68 4574.74 2845.04 4568.07C2844.17 4567.7 2843.29 4567.31 2842.41 4566.93C2841.59 4580.86 2840.33 4595.43 2838.94 4610.1C2837.95 4620.61 2836.87 4631.35 2835.77 4642.27C2832.75 4672.3 2829.59 4703.76 2827.65 4735.9C2825.02 4779.55 2824.84 4822.27 2830.2 4860.35C2835.6 4898.63 2846.25 4929.59 2863.23 4951.92C2968.96 5090.87 3110.46 5154.46 3259.52 5189.33C3334.27 5206.82 3410.25 5216.93 3484.32 5225.84C3494.64 5227.09 3504.95 5228.31 3515.21 5229.52C3548.93 5233.52 3582.26 5237.46 3614.51 5241.97Z" fill="#73AC2C"/>
<path d="M2971.68 5035.68C3079.04 5147.23 3356.94 5196.15 3482.46 5206.67C3370.74 5168.25 3124.28 5074.87 3032.27 5008.71C2940.26 4942.54 2861.26 4811.06 2833.25 4753.59C2834.66 4801.14 2864.31 4924.13 2971.68 5035.68Z" fill="#B4FF55"/>
<path d="M2949.52 4855.37C3030.21 4939.13 3238.92 4975.99 3333.19 4983.95C3249.27 4955.06 3064.14 4884.86 2995.01 4835.17C2925.88 4785.47 2866.47 4686.78 2845.42 4643.64C2846.5 4679.32 2868.83 4771.61 2949.52 4855.37Z" fill="#B4FF55"/>
<path d="M3163.99 4554.37C3259.33 4572.14 3364.15 4716.54 3404.64 4786.51C3351.4 4736.16 3228.85 4628.61 3164.57 4601.31C3100.29 4574.01 3000.9 4581.21 2959.24 4588.22C2987.77 4569.54 3068.66 4536.61 3163.99 4554.37Z" fill="#B4FF55"/>
<path d="M3251.96 4344.1C3348.81 4339.72 3483.76 4456.35 3539.13 4515.21C3475.82 4478.33 3332.02 4401.57 3263.22 4389.62C3194.43 4377.67 3099.33 4407.25 3060.38 4423.54C3083.89 4398.89 3155.11 4348.48 3251.96 4344.1Z" fill="#8CCC3B"/>
<path d="M3200.69 4428.44C3343.38 4429.04 3550.09 4587.39 3635.61 4666.5C3539.79 4615.09 3322.56 4507.34 3220.24 4487.59C3117.91 4467.83 2979.42 4499.69 2922.97 4518.09C2956.09 4487.96 3058 4427.85 3200.69 4428.44Z" fill="#8CCC3B"/>
<path d="M3089.59 4610.12C3153.93 4622.06 3224.59 4719.58 3251.88 4766.84C3215.97 4732.84 3133.32 4660.25 3089.94 4641.84C3046.57 4623.43 2979.47 4628.37 2951.35 4633.14C2970.62 4620.49 3025.24 4598.18 3089.59 4610.12Z" fill="#B4FF55"/>
<path d="M5480.45 5284.74C5530.85 5336.78 5594.68 5390.06 5635.16 5409.44C5459.84 5466.32 5215.34 5614.1 5019.15 5511.72C4942.61 5471.78 4949.39 5292.5 4926.82 5240.46C4997.83 5234.06 4959.61 5248.92 5123.89 5149.87C5329.24 5026.05 5417.44 5219.68 5480.45 5284.74Z" fill="#4C6D21"/>
<path d="M5232.36 5696.13C5305.82 5704.55 5388.61 5723.14 5429.43 5743.97C5366.79 5565.25 5334.93 5272.99 5130.23 5177.29C5050.37 5139.96 4909.23 5258.12 4853.03 5272.4C4891.9 5334.34 4880.24 5293.83 4901.84 5490.05C4928.84 5735.32 5140.54 5685.61 5232.36 5696.13Z" fill="#5E8828"/>
<path d="M4619.61 5501C4333.01 5335.53 4178.68 5066.26 4274.92 4899.58C4371.15 4732.89 4681.51 4731.91 4968.11 4897.38C5254.71 5062.85 5409.04 5332.11 5312.8 5498.8C5216.57 5665.48 4906.21 5666.47 4619.61 5501Z" fill="url(#paint4_linear_119_2)"/>
<path fill-rule="evenodd" clip-rule="evenodd" d="M4236.65 5239.06C4167.5 5118.4 4140.47 4978.15 4208 4861.2C4275.52 4744.24 4410.49 4697.53 4549.56 4697.08C4690.85 4696.63 4853.31 4742.54 5006.26 4830.84C5159.21 4919.15 5280.2 5036.89 5350.46 5159.48C5419.6 5280.14 5446.63 5420.38 5379.11 5537.34C5311.59 5654.3 5176.61 5701.01 5037.55 5701.46C4896.26 5701.91 4733.79 5656 4580.84 5567.69C4427.89 5479.39 4306.9 5361.64 4236.65 5239.06ZM4274.57 4899.64C4178.32 5066.35 4332.65 5335.64 4619.28 5501.12C4905.9 5666.61 5216.28 5665.61 5312.53 5498.9C5408.78 5332.19 5254.45 5062.9 4967.83 4897.41C4681.2 4731.93 4370.82 4732.93 4274.57 4899.64Z" fill="#BE9951"/>
<path d="M5061.08 5537.59C5094.56 5555.97 5206.3 5520.14 5257.99 5499.93L5098.1 5472.35C5029.97 5460.6 5019.22 5514.61 5061.08 5537.59Z" fill="#BE9951"/>
<path d="M5228.85 5246.93C5261.51 5266.74 5286.35 5381.43 5294.69 5436.29L5190.86 5311.61C5146.62 5258.49 5188.03 5222.17 5228.85 5246.93Z" fill="#BE9951"/>
<path d="M5103.53 5341.78C5141.7 5340.33 5225.57 5422.41 5262.74 5463.62L5107.42 5416.68C5041.24 5396.68 5055.82 5343.58 5103.53 5341.78Z" fill="#BE9951"/>
<path d="M5067.55 4893.97C5172.76 4967.72 5321.05 5041.45 5394.85 5067.55C5142.3 5162.7 4962.4 5384.51 4542.76 5223.32C4401.64 5169.1 4224.15 4938.97 4163.34 4863.46C4273.56 4849.52 4219.69 4873.9 4434.52 4717.1C4703.06 4521.1 4936.04 4801.78 5067.55 4893.97Z" fill="url(#paint5_linear_119_2)"/>
<path fill-rule="evenodd" clip-rule="evenodd" d="M5507.2 5066.4L5408.44 5103.61C5349.1 5125.96 5293.63 5155.76 5235.29 5187.1C5234.33 5187.61 5233.37 5188.13 5232.41 5188.64C5173.74 5220.16 5112.16 5253.07 5044.7 5277.75C4907.12 5328.09 4747.62 5343.29 4528.94 5259.28C4449.41 5228.73 4364.53 5151.58 4294.91 5077.82C4232.81 5012.03 4178.54 4944.15 4145.88 4903.29C4141.24 4897.5 4137.05 4892.25 4133.32 4887.63L4090.05 4833.89L4158.5 4825.23C4172.49 4823.46 4183.92 4822.29 4193.31 4821.33L4193.89 4821.27C4203.65 4820.27 4210.39 4819.56 4216.14 4818.67C4225.86 4817.18 4231.69 4815.38 4240.84 4810.25C4251.87 4804.06 4266.67 4793.57 4294.03 4773.23C4300.58 4768.36 4307.78 4762.98 4315.71 4757.06C4340.01 4738.91 4371.17 4715.63 4411.8 4685.98C4485.05 4632.52 4557.86 4610.33 4628.35 4610.55C4698.17 4610.77 4762.79 4632.95 4820.42 4663.39C4877.95 4693.79 4930.14 4733.31 4975.23 4769.98C4990.68 4782.55 5005 4794.51 5018.38 4805.69C5045.43 4828.28 5068.65 4847.68 5089.67 4862.42C5192.18 4934.28 5337.37 5006.35 5407.7 5031.22L5507.2 5066.4ZM5296.91 5068.2C5218.88 5031.88 5121.38 4978.76 5045.43 4925.52C5021.71 4908.89 4994.29 4885.99 4965.62 4862.06C4952.79 4851.35 4939.72 4840.43 4926.61 4829.77C4882.64 4794.02 4835.14 4758.33 4784.42 4731.53C4733.8 4704.79 4681.6 4687.78 4628.11 4687.62C4575.27 4687.45 4518.26 4703.69 4457.24 4748.23C4416.99 4777.6 4386.32 4800.51 4362.05 4818.64C4354.04 4824.62 4346.73 4830.08 4340 4835.08C4313.59 4854.72 4294.7 4868.4 4278.56 4877.45C4263.6 4885.85 4250.86 4890.4 4236.72 4893.27C4267.68 4931.39 4307.3 4978.68 4350.95 5024.92C4420.56 5098.66 4494.99 5163.68 4556.58 5187.34C4757.54 5264.54 4897.81 5249.43 5018.22 5205.37C5079.77 5182.86 5136.74 5152.55 5195.95 5120.75C5197.51 5119.91 5199.07 5119.07 5200.63 5118.23C5231.88 5101.44 5263.84 5084.27 5296.91 5068.2Z" fill="#4C6D21"/>
<path d="M4955.25 5419.2C5009.88 5545.72 5083.97 5685.55 5136.56 5750.97C4854.01 5694.98 4433.36 5727.42 4181.75 5396.72C4083.59 5267.71 4163.38 4983.99 4150.09 4880.94C4258.06 4930.48 4195.52 4922.25 4478.06 4900.84C4831.24 4874.08 4886.96 5261.05 4955.25 5419.2Z" fill="#95CF4A"/>
<path fill-rule="evenodd" clip-rule="evenodd" d="M5232.94 5809.35L5129.07 5788.77C5069.99 5777.06 5004.64 5769.31 4934.13 5760.95C4922.54 5759.57 4910.82 5758.18 4898.95 5756.76C4815.73 5746.74 4726.97 5735.01 4638.78 5714.38C4461.88 5672.99 4284.27 5595.1 4151.08 5420.05C4121.03 5380.55 4106.13 5331.39 4099.1 5281.57C4092.05 5231.52 4092.56 5177.82 4095.63 5126.78C4097.9 5089.1 4101.68 5051.53 4105.1 5017.48C4106.3 5005.58 4107.45 4994.12 4108.48 4983.23C4112.64 4939.28 4114.55 4906.61 4111.88 4885.86L4102.99 4816.92L4166.16 4845.91C4179.84 4852.19 4190.86 4857.57 4199.93 4861.99L4200.49 4862.26C4209.9 4866.85 4216.49 4870.04 4222.28 4872.52C4232.22 4876.76 4238.82 4878.5 4250.31 4879C4263.96 4879.6 4283.41 4878.4 4319.56 4875.34C4328.23 4874.6 4337.77 4873.77 4348.28 4872.86C4380.47 4870.06 4421.73 4866.47 4475.15 4862.42C4571.05 4855.16 4649.03 4875.99 4712.45 4915.64C4775.29 4954.93 4821.4 5011.17 4856.7 5071.13C4891.94 5131.01 4917.33 5196.21 4937.91 5254.99C4944.93 5275.02 4951.27 5293.93 4957.21 5311.64C4969.27 5347.56 4979.66 5378.53 4990.62 5403.93C5044.99 5529.82 5117.42 5665.65 5166.6 5726.82L5232.94 5809.35ZM5054 5698.31C5008.48 5623.7 4958.91 5524.87 4919.87 5434.48C4907.61 5406.07 4895.48 5369.97 4882.75 5332.07C4877.04 5315.05 4871.2 5297.67 4865.18 5280.46C4845.07 5223.04 4821.65 5163.52 4790.28 5110.23C4758.97 5057.03 4720.66 5011.66 4671.59 4980.98C4623.09 4950.66 4561.67 4933.15 4480.98 4939.27C4428.03 4943.28 4387.39 4946.81 4355.24 4949.61C4344.63 4950.53 4334.95 4951.38 4326.05 4952.13C4291.08 4955.09 4266.45 4956.85 4246.92 4955.99C4225.23 4955.04 4209.56 4950.88 4192.03 4943.4C4191.06 4942.98 4190.08 4942.56 4189.09 4942.12C4188.17 4957.73 4186.76 4974.05 4185.2 4990.49C4184.09 5002.26 4182.88 5014.28 4181.65 5026.52C4178.27 5060.16 4174.73 5095.41 4172.56 5131.41C4169.61 5180.31 4169.41 5228.16 4175.42 5270.82C4181.46 5313.7 4193.39 5348.38 4212.42 5373.39C4330.85 5529.04 4489.36 5600.27 4656.34 5639.34C4740.07 5658.93 4825.19 5670.26 4908.16 5680.24C4919.72 5681.63 4931.26 5683 4942.76 5684.36C4980.53 5688.84 5017.87 5693.26 5054 5698.31Z" fill="#73AC2C"/>
<path d="M4333.9 5467.22C4454.17 5592.18 4765.46 5646.98 4906.08 5658.76C4780.92 5615.73 4504.84 5511.13 4401.77 5437.01C4298.7 5362.89 4210.2 5215.6 4178.83 5151.22C4180.41 5204.49 4213.63 5342.26 4333.9 5467.22Z" fill="#B4FF55"/>
<path d="M4309.08 5265.24C4399.46 5359.07 4633.26 5400.36 4738.86 5409.27C4644.85 5376.91 4437.47 5298.28 4360.03 5242.61C4282.59 5186.94 4216.05 5076.38 4192.46 5028.06C4193.67 5068.02 4218.69 5171.41 4309.08 5265.24Z" fill="#B4FF55"/>
<path d="M4549.33 4928.06C4656.12 4947.96 4773.54 5109.72 4818.9 5188.11C4759.26 5131.69 4621.98 5011.22 4549.97 4980.64C4477.97 4950.05 4366.63 4958.12 4319.96 4965.98C4351.92 4945.05 4442.53 4908.17 4549.33 4928.06Z" fill="#B4FF55"/>
<path d="M4647.86 4692.51C4756.35 4687.6 4907.52 4818.25 4969.55 4884.19C4898.64 4842.87 4737.54 4756.89 4660.48 4743.5C4583.42 4730.11 4476.89 4763.25 4433.25 4781.5C4459.59 4753.88 4539.38 4697.42 4647.86 4692.51Z" fill="#8CCC3B"/>
<path d="M4590.43 4787C4750.27 4787.66 4981.83 4965.05 5077.63 5053.66C4970.29 4996.08 4726.96 4875.38 4612.33 4853.24C4497.71 4831.11 4342.57 4866.8 4279.33 4887.42C4316.43 4853.66 4430.59 4786.33 4590.43 4787Z" fill="#8CCC3B"/>
<path d="M4465.97 4990.51C4538.05 5003.88 4617.21 5113.12 4647.77 5166.07C4607.55 5127.98 4514.96 5046.66 4466.38 5026.04C4417.79 5005.42 4342.63 5010.95 4311.12 5016.29C4332.7 5002.12 4393.9 4977.13 4465.97 4990.51Z" fill="#B4FF55"/>
<path d="M7004.62 5876.79C7059.35 5933.29 7128.64 5991.13 7172.58 6012.18C6982.25 6073.92 6716.81 6234.36 6503.82 6123.21C6420.73 6079.85 6428.09 5885.22 6403.58 5828.72C6480.68 5821.78 6439.19 5837.91 6617.54 5730.38C6840.47 5595.96 6936.22 5806.17 7004.62 5876.79Z" fill="#4C6D21"/>
<path d="M6735.3 6323.42C6815.05 6332.55 6904.93 6352.73 6949.24 6375.36C6881.23 6181.32 6846.65 5864.04 6624.42 5760.15C6537.72 5719.62 6384.49 5847.89 6323.49 5863.4C6365.68 5930.64 6353.03 5886.67 6376.48 6099.69C6405.79 6365.96 6635.61 6312 6735.3 6323.42Z" fill="#5E8828"/>
<path d="M6070.07 6111.58C5758.93 5931.94 5591.39 5639.61 5695.87 5458.66C5800.34 5277.7 6137.27 5276.63 6448.42 5456.27C6759.56 5635.91 6927.1 5928.23 6822.62 6109.19C6718.15 6290.15 6381.22 6291.21 6070.07 6111.58Z" fill="url(#paint6_linear_119_2)"/>
<path fill-rule="evenodd" clip-rule="evenodd" d="M5654.32 5827.2C5579.25 5696.22 5549.91 5543.96 5623.22 5416.99C5696.52 5290.02 5843.05 5239.3 5994.02 5238.82C6147.41 5238.33 6323.79 5288.17 6489.84 5384.04C6655.88 5479.9 6787.23 5607.73 6863.5 5740.82C6938.57 5871.8 6967.92 6024.06 6894.61 6151.03C6821.3 6278 6674.77 6328.71 6523.8 6329.2C6370.41 6329.69 6194.03 6279.85 6027.99 6183.98C5861.94 6088.12 5730.59 5960.29 5654.32 5827.2ZM5695.49 5458.72C5591 5639.7 5758.54 5932.06 6069.71 6111.71C6380.88 6291.37 6717.84 6290.29 6822.33 6109.3C6926.83 5928.32 6759.28 5635.96 6448.11 5456.31C6136.94 5276.65 5799.98 5277.73 5695.49 5458.72Z" fill="#BE9951"/>
<path d="M6549.35 6151.29C6585.7 6171.25 6707.01 6132.35 6763.12 6110.41L6589.54 6080.47C6515.58 6067.72 6503.91 6126.35 6549.35 6151.29Z" fill="#BE9951"/>
<path d="M6731.48 5835.75C6766.94 5857.25 6793.91 5981.76 6802.96 6041.33L6690.24 5905.97C6642.22 5848.3 6687.16 5808.87 6731.48 5835.75Z" fill="#BE9951"/>
<path d="M6595.43 5938.72C6636.87 5937.15 6727.92 6026.25 6768.27 6071L6599.66 6020.04C6527.81 5998.33 6543.64 5940.67 6595.43 5938.72Z" fill="#BE9951"/>
<path d="M6556.37 5452.57C6670.59 5532.64 6831.58 5612.68 6911.7 5641.01C6637.52 5744.31 6442.22 5985.11 5986.65 5810.11C5833.44 5751.26 5640.75 5501.42 5574.73 5419.44C5694.39 5404.31 5635.91 5430.78 5869.14 5260.55C6160.67 5047.77 6413.6 5352.48 6556.37 5452.57Z" fill="url(#paint7_linear_119_2)"/>
<path fill-rule="evenodd" clip-rule="evenodd" d="M7033.66 5639.76L6926.45 5680.15C6862.03 5704.42 6801.81 5736.77 6738.47 5770.79C6737.43 5771.35 6736.39 5771.91 6735.35 5772.47C6671.65 5806.68 6604.8 5842.41 6531.57 5869.21C6382.2 5923.86 6209.05 5940.36 5971.65 5849.16C5885.3 5815.99 5793.15 5732.23 5717.57 5652.16C5650.15 5580.74 5591.23 5507.04 5555.78 5462.69C5550.75 5456.4 5546.19 5450.7 5542.15 5445.68L5495.17 5387.34L5569.48 5377.94C5584.66 5376.02 5597.08 5374.75 5607.27 5373.7L5607.9 5373.64C5618.5 5372.55 5625.81 5371.78 5632.05 5370.82C5642.61 5369.2 5648.94 5367.25 5658.87 5361.68C5670.84 5354.96 5686.92 5343.56 5716.61 5321.49C5723.73 5316.2 5731.55 5310.36 5740.15 5303.93C5766.53 5284.23 5800.37 5258.96 5844.47 5226.76C5923.99 5168.72 6003.04 5144.64 6079.56 5144.88C6155.36 5145.12 6225.52 5169.19 6288.08 5202.25C6350.54 5235.24 6407.19 5278.15 6456.15 5317.96C6472.92 5331.6 6488.47 5344.59 6503 5356.73C6532.35 5381.25 6557.57 5402.32 6580.38 5418.31C6691.68 5496.33 6849.3 5574.57 6925.65 5601.57L7033.66 5639.76ZM6805.37 5641.72C6720.66 5602.29 6614.81 5544.62 6532.36 5486.82C6506.6 5468.76 6476.84 5443.91 6445.71 5417.92C6431.79 5406.3 6417.59 5394.44 6403.36 5382.87C6355.63 5344.05 6304.06 5305.31 6249 5276.22C6194.04 5247.19 6137.38 5228.72 6079.3 5228.54C6021.94 5228.37 5960.04 5245.99 5893.8 5294.34C5850.1 5326.23 5816.81 5351.1 5790.46 5370.78C5781.77 5377.28 5773.83 5383.21 5766.52 5388.64C5737.85 5409.95 5717.34 5424.8 5699.82 5434.64C5683.58 5443.75 5669.74 5448.69 5654.4 5451.81C5688.01 5493.19 5731.03 5544.53 5778.41 5594.73C5853.98 5674.79 5934.78 5745.38 6001.65 5771.06C6219.82 5854.87 6372.1 5838.46 6502.82 5790.64C6569.64 5766.19 6631.49 5733.29 6695.76 5698.76C6697.46 5697.85 6699.15 5696.94 6700.85 5696.03C6734.78 5677.8 6769.47 5659.16 6805.37 5641.72Z" fill="#4C6D21"/>
<path d="M6434.45 6022.77C6493.77 6160.13 6574.2 6311.93 6631.3 6382.95C6324.55 6322.16 5867.88 6357.38 5594.72 5998.37C5488.15 5858.31 5574.78 5550.29 5560.35 5438.42C5677.57 5492.2 5609.67 5483.27 5916.41 5460.03C6299.83 5430.97 6360.31 5851.08 6434.45 6022.77Z" fill="#95CF4A"/>
<path fill-rule="evenodd" clip-rule="evenodd" d="M6735.92 6446.33L6623.16 6423.98C6559.01 6411.27 6488.07 6402.86 6411.53 6393.78C6398.95 6392.29 6386.21 6390.78 6373.34 6389.23C6282.98 6378.36 6186.63 6365.63 6090.88 6343.23C5898.84 6298.3 5706.01 6213.73 5561.43 6023.7C5528.8 5980.81 5512.62 5927.45 5505 5873.36C5497.34 5819.03 5497.89 5760.72 5501.23 5705.31C5503.69 5664.4 5507.79 5623.62 5511.51 5586.65C5512.8 5573.74 5514.06 5561.29 5515.17 5549.47C5519.69 5501.76 5521.77 5466.29 5518.86 5443.77L5509.21 5368.92L5577.8 5400.4C5592.64 5407.21 5604.61 5413.05 5614.46 5417.85L5615.06 5418.14C5625.28 5423.13 5632.43 5426.59 5638.72 5429.28C5649.51 5433.89 5656.68 5435.77 5669.15 5436.32C5683.96 5436.97 5705.09 5435.66 5744.32 5432.34C5753.75 5431.54 5764.1 5430.64 5775.51 5429.65C5810.45 5426.61 5855.25 5422.71 5913.24 5418.32C6017.35 5410.43 6102.01 5433.04 6170.86 5476.09C6239.08 5518.75 6289.14 5579.8 6327.46 5644.9C6365.72 5709.91 6393.28 5780.69 6415.63 5844.5C6423.24 5866.25 6430.13 5886.78 6436.58 5906C6449.67 5945 6460.95 5978.62 6472.86 6006.19C6531.88 6142.87 6610.51 6290.33 6663.9 6356.74L6735.92 6446.33ZM6541.66 6325.78C6492.24 6244.78 6438.42 6137.49 6396.05 6039.36C6382.73 6008.52 6369.57 5969.32 6355.75 5928.18C6349.54 5909.7 6343.21 5890.84 6336.67 5872.15C6314.84 5809.82 6289.41 5745.2 6255.36 5687.34C6221.36 5629.59 6179.77 5580.33 6126.5 5547.03C6073.85 5514.11 6007.17 5495.1 5919.57 5501.74C5862.09 5506.1 5817.97 5509.94 5783.06 5512.97C5771.55 5513.97 5761.03 5514.89 5751.38 5515.71C5713.41 5518.92 5686.67 5520.84 5665.47 5519.9C5641.92 5518.87 5624.91 5514.35 5605.88 5506.23C5604.82 5505.78 5603.76 5505.32 5602.69 5504.84C5601.69 5521.79 5600.16 5539.5 5598.47 5557.35C5597.26 5570.13 5595.95 5583.18 5594.61 5596.47C5590.94 5632.99 5587.09 5671.25 5584.74 5710.34C5581.54 5763.42 5581.32 5815.37 5587.84 5861.68C5594.4 5908.23 5607.36 5945.89 5628.01 5973.04C5756.58 6142.02 5928.67 6219.35 6109.94 6261.76C6200.85 6283.03 6293.25 6295.33 6383.33 6306.17C6395.88 6307.68 6408.41 6309.16 6420.9 6310.64C6461.9 6315.5 6502.44 6320.3 6541.66 6325.78Z" fill="#73AC2C"/>
<path d="M5759.89 6074.9C5890.46 6210.56 6228.41 6270.06 6381.07 6282.85C6245.2 6236.13 5945.48 6122.57 5833.58 6042.1C5721.68 5961.64 5625.6 5801.74 5591.55 5731.85C5593.26 5789.67 5629.32 5939.24 5759.89 6074.9Z" fill="#B4FF55"/>
<path d="M5732.95 5855.63C5831.07 5957.49 6084.89 6002.31 6199.54 6011.99C6097.48 5976.86 5872.34 5891.49 5788.27 5831.06C5704.19 5770.62 5631.95 5650.59 5606.34 5598.13C5607.66 5641.52 5634.82 5753.77 5732.95 5855.63Z" fill="#B4FF55"/>
<path d="M5993.77 5489.58C6109.71 5511.18 6237.19 5686.79 6286.43 5771.89C6221.69 5710.65 6072.65 5579.86 5994.48 5546.66C5916.3 5513.45 5795.43 5522.21 5744.77 5530.74C5779.46 5508.02 5877.84 5467.98 5993.77 5489.58Z" fill="#B4FF55"/>
<path d="M6100.75 5233.86C6218.53 5228.52 6382.64 5370.36 6449.98 5441.95C6372.99 5397.09 6198.11 5303.74 6114.45 5289.21C6030.78 5274.68 5915.13 5310.66 5867.76 5330.46C5896.35 5300.48 5982.97 5239.19 6100.75 5233.86Z" fill="#8CCC3B"/>
<path d="M6038.4 5336.43C6211.92 5337.16 6463.31 5529.73 6567.31 5625.93C6450.78 5563.42 6186.61 5432.38 6062.17 5408.35C5937.73 5384.33 5769.31 5423.07 5700.65 5445.45C5740.93 5408.81 5864.87 5335.71 6038.4 5336.43Z" fill="#8CCC3B"/>
<path d="M5903.28 5557.37C5981.53 5571.89 6067.46 5690.48 6100.64 5747.96C6056.98 5706.62 5956.46 5618.33 5903.71 5595.94C5850.97 5573.56 5769.37 5579.56 5735.16 5585.36C5758.6 5569.98 5825.03 5542.85 5903.28 5557.37Z" fill="#B4FF55"/>
<ellipse opacity="0.5" cx="6137.02" cy="3656.5" rx="1788.5" ry="510.5" fill="#616161"/>
<path fill-rule="evenodd" clip-rule="evenodd" d="M7973.63 1952.12C8120.69 2028.7 8294.52 2163.81 8294.52 2373.75V2947.25C8294.52 3133.47 8156.23 3260.55 8031.29 3336.47C7932.88 3396.28 7810.76 3445.04 7674.77 3482.92V3567.49C7674.77 3764.28 7527.09 3896.72 7390.89 3968.62C7245.95 4045.13 7059 4086.65 6863.02 4086.65C6667.04 4086.65 6480.09 4045.13 6335.16 3968.62C6198.95 3896.72 6051.27 3764.28 6051.27 3567.49V3482.92C5915.29 3445.04 5793.17 3396.28 5694.76 3336.47C5569.82 3260.55 5431.52 3133.47 5431.52 2947.25V2373.75C5431.52 2234.25 5511 2127.11 5596.84 2054.41C5683.54 1980.99 5797.63 1923.53 5921.82 1879.04C6171.86 1789.47 6504.64 1737.75 6863.02 1737.75C7035.4 1737.75 7200.82 1749.71 7353.36 1771.72C7593.63 1806.39 7810.71 1867.28 7973.63 1952.12ZM6243.27 3331.85C5872.79 3255.08 5623.52 3111.59 5623.52 2947.25V2373.75C5623.52 2128.54 6178.47 1929.75 6863.02 1929.75C7026.67 1929.75 7182.91 1941.11 7325.94 1961.75C7781.19 2027.45 8102.52 2187.16 8102.52 2373.75V2947.25C8102.52 3111.59 7853.26 3255.08 7482.77 3331.85V3567.49C7482.77 3748.18 7205.3 3894.65 6863.02 3894.65C6520.74 3894.65 6243.27 3748.18 6243.27 3567.49V3331.85Z" fill="#616161"/>
<path fill-rule="evenodd" clip-rule="evenodd" d="M6243.27 3567.49C6243.27 3567.49 6243.27 3567.49 6243.27 3567.49C6243.27 3748.18 6520.74 3894.65 6863.02 3894.65C7205.3 3894.65 7482.77 3748.18 7482.77 3567.49C7482.77 3567.49 7482.77 3567.49 7482.77 3567.49V3144.91C7482.77 3144.91 7482.77 3144.91 7482.77 3144.91C7482.77 2964.22 7205.3 2817.75 6863.02 2817.75C6520.75 2817.75 6243.28 2964.22 6243.27 3144.91C6243.27 3144.91 6243.27 3144.91 6243.27 3144.91V3567.49Z" fill="url(#paint8_linear_119_2)"/>
<path fill-rule="evenodd" clip-rule="evenodd" d="M5623.52 2373.75V2947.25C5623.52 3192.47 6178.47 3391.25 6863.02 3391.25C7547.58 3391.25 8102.52 3192.47 8102.52 2947.25V2373.75C8102.52 2128.54 7547.58 1929.75 6863.02 1929.75C6178.47 1929.75 5623.52 2128.54 5623.52 2373.75C5623.52 2373.75 5623.52 2373.75 5623.52 2373.75Z" fill="url(#paint9_linear_119_2)"/>
<ellipse cx="6863.02" cy="2373.75" rx="1239.5" ry="444" fill="#969696"/>
<ellipse cx="6858.02" cy="2209.32" rx="972.406" ry="348.32" fill="#058967"/>
<ellipse cx="6858.02" cy="2209.5" rx="624.5" ry="223.5" fill="#001F17"/>
<path fill-rule="evenodd" clip-rule="evenodd" d="M6857.56 0C6348.34 0 5935.52 412.862 5935.52 922.153V2093.54C5935.52 2093.54 5935.52 2143.04 5942.07 2199.28C5938 2211.51 5935.9 2223.95 5935.9 2236.55C5935.9 2269.91 5950.56 2302.08 5977.77 2332.32C5984.49 2343.01 5992.29 2351.06 6001.32 2355.36C6137.07 2473.52 6469.28 2557 6857.57 2557C7339.38 2557 7734.85 2428.45 7775.74 2264.62C7802.04 2205.74 7779.6 2093.54 7779.6 2093.54V922.153C7779.6 412.862 7366.79 0 6857.56 0Z" fill="#49FFA8" fill-opacity="0.39"/>
<path d="M6518.96 673.917C6540.7 597.669 6556.27 508.025 6552.49 459.057C6702.33 594.096 6976.17 744.955 6986.5 986.913C6990.52 1081.31 6816.9 1172.98 6779.93 1222.85C6735.01 1159.04 6770.01 1187.13 6586.24 1085.64C6356.53 958.77 6491.78 769.227 6518.96 673.917Z" fill="#4C6D21"/>
<path d="M7044.6 683.932C7012.38 609.706 6984.7 521.074 6982.11 470.983C6847 628.149 6587.45 818.258 6608.76 1064.63C6617.08 1160.74 6806.29 1229.85 6850.58 1275.29C6888.01 1204.57 6856 1237.78 7030.14 1109.94C7247.82 950.147 7084.88 776.714 7044.6 683.932Z" fill="#5E8828"/>
<path d="M7194.95 1371.43C7194.95 1733.6 7024.2 2027.19 6813.57 2027.19C6602.94 2027.19 6432.19 1733.6 6432.19 1371.43C6432.19 1009.27 6602.94 715.672 6813.57 715.672C7024.2 715.672 7194.95 1009.27 7194.95 1371.43Z" fill="url(#paint10_linear_119_2)"/>
<path fill-rule="evenodd" clip-rule="evenodd" d="M7156.25 1877.71C7079.73 2009.26 6961.61 2111.62 6813.81 2111.62C6666.02 2111.62 6547.9 2009.26 6471.38 1877.71C6393.64 1744.05 6348.25 1564.95 6348.25 1371.68C6348.25 1178.4 6393.64 999.308 6471.38 865.649C6547.9 734.097 6666.02 631.738 6813.81 631.738C6961.61 631.738 7079.73 734.097 7156.25 865.649C7233.99 999.308 7279.37 1178.4 7279.37 1371.68C7279.37 1564.95 7233.99 1744.05 7156.25 1877.71ZM6813.81 2027.49C7024.48 2027.49 7195.25 1733.87 7195.25 1371.68C7195.25 1009.48 7024.48 715.866 6813.81 715.866C6603.15 715.866 6432.38 1009.48 6432.38 1371.68C6432.38 1733.87 6603.15 2027.49 6813.81 2027.49Z" fill="#BE9951"/>
<path d="M6988.06 933.012C6987.16 891.223 6892.06 804.922 6844.63 766.995L6905.98 933.62C6932.12 1004.62 6989.19 985.249 6988.06 933.012Z" fill="#BE9951"/>
<path d="M6620.8 933.051C6621.7 891.262 6716.8 804.961 6764.24 767.034L6702.89 933.659C6676.75 1004.66 6619.68 985.288 6620.8 933.051Z" fill="#BE9951"/>
<path d="M6779.26 999.924C6757.01 964.539 6788.9 840.141 6807.63 782.365L6848.13 955.247C6865.38 1028.91 6807.08 1044.15 6779.26 999.924Z" fill="#BE9951"/>
<path d="M6374.54 1279.05C6386.88 1138.99 6375.61 958.105 6359.96 873.877C6588.33 1061.17 6896.99 1110.29 6973.83 1596.2C6999.67 1759.62 6878.68 2053.76 6840.39 2152.7C6766.87 2055.87 6819.46 2093.58 6553.3 1975.78C6220.61 1828.52 6359.13 1454.13 6374.54 1279.05Z" fill="url(#paint11_linear_119_2)"/>
<path fill-rule="evenodd" clip-rule="evenodd" d="M6297.4 768.033L6386.7 841.271C6440.36 885.278 6498.94 921.54 6560.57 959.688C6561.58 960.314 6562.59 960.94 6563.61 961.567C6625.58 999.93 6690.47 1040.29 6750.77 1090.71C6873.76 1193.56 6975.44 1336.41 7015.48 1589.62C7030.04 1681.71 7003.37 1804.37 6971.56 1910.71C6943.19 2005.56 6908.55 2094.14 6887.7 2147.45C6884.74 2155.01 6882.06 2161.86 6879.72 2167.92L6852.47 2238.34L6806.81 2178.2C6797.48 2165.92 6790.11 2155.72 6784.06 2147.35L6783.69 2146.83C6777.4 2138.13 6773.04 2132.13 6769.06 2127.16C6762.32 2118.77 6757.43 2114.22 6747.56 2108.36C6735.66 2101.3 6717.61 2093.01 6683.37 2078.21C6675.17 2074.66 6666.13 2070.78 6656.18 2066.51C6625.68 2053.41 6586.57 2036.61 6536.23 2014.33C6445.48 1974.17 6384.62 1917.3 6346.26 1850.38C6308.26 1784.08 6293.92 1710.71 6291.24 1639.43C6288.57 1568.27 6297.47 1497.19 6307.55 1434.38C6311 1412.87 6314.51 1392.76 6317.78 1373.95C6324.39 1335.96 6330.08 1303.33 6332.54 1275.35C6344.55 1138.87 6333.41 961.837 6318.5 881.581L6297.4 768.033ZM6414.17 966.342C6422.45 1060.17 6425.45 1181.64 6416.55 1282.75C6413.77 1314.33 6407.07 1352.85 6400.08 1393.12C6396.94 1411.13 6393.75 1429.5 6390.82 1447.75C6380.99 1508.99 6373.16 1573.53 6375.52 1636.26C6377.87 1698.87 6390.32 1757.65 6419.43 1808.44C6448.19 1858.6 6494.77 1903.75 6570.37 1937.21C6620.23 1959.29 6658.72 1975.82 6689.18 1988.9C6699.24 1993.21 6708.41 1997.15 6716.83 2000.8C6749.89 2015.08 6773.2 2025.51 6790.61 2035.84C6806.76 2045.43 6818.03 2055.02 6828.49 2066.84C6847.67 2016.64 6870.82 1953.21 6890.76 1886.54C6922.56 1780.22 6943.46 1674.11 6932.18 1602.79C6895.38 1370.09 6804.31 1245.42 6696.66 1155.41C6641.65 1109.4 6581.75 1071.99 6519.22 1033.28C6517.57 1032.26 6515.92 1031.23 6514.27 1030.21C6481.25 1009.78 6447.49 988.888 6414.17 966.342Z" fill="#4C6D21"/>
<path d="M6933.77 1098.09C7023.78 977.087 7115.76 830.357 7148.99 744.72C7250.53 1043.14 7511.44 1424.06 7335.71 1843.47C7267.15 2007.09 6954.59 2086.71 6864.2 2155.7C6852.08 2026.26 6878.5 2090.03 6703.61 1833.97C6485 1513.9 6821.26 1249.35 6933.77 1098.09Z" fill="#95CF4A"/>
<path fill-rule="evenodd" clip-rule="evenodd" d="M7151.58 621.438L7188.91 731.135C7210.14 793.541 7238.56 859.715 7269.21 931.11C7274.25 942.844 7279.35 954.719 7284.49 966.742C7320.54 1051.1 7357.98 1141.63 7386.69 1236.51C7444.25 1426.8 7467.62 1637.76 7374.6 1859.76C7353.6 1909.86 7315.17 1950.88 7271.79 1984.8C7228.22 2018.87 7177.05 2047.77 7126.99 2072.79C7090.04 2091.26 7052.37 2108.24 7018.22 2123.62C7006.3 2129 6994.8 2134.18 6983.92 2139.16C6939.99 2159.27 6907.98 2175.33 6889.78 2189.22L6829.31 2235.36L6822.21 2159.63C6820.68 2143.24 6819.74 2129.84 6818.97 2118.83L6818.92 2118.15C6818.13 2106.72 6817.55 2098.73 6816.72 2091.88C6815.3 2080.14 6813.34 2072.94 6807.53 2061.77C6800.63 2048.51 6788.84 2030.73 6766.17 1998.15C6760.72 1990.33 6754.72 1981.74 6748.1 1972.28C6727.84 1943.31 6701.85 1906.17 6668.79 1857.75C6609.43 1770.85 6586.5 1685.54 6589.38 1603.75C6592.23 1522.68 6620.3 1448.21 6657.82 1381.95C6695.28 1315.78 6743.18 1256.05 6787.63 1204.38C6802.78 1186.77 6817.23 1170.41 6830.76 1155.08C6858.2 1124.01 6881.87 1097.21 6899.94 1072.92C6989.51 952.511 7078.61 809.546 7109.67 729.466L7151.58 621.438ZM7144.26 851.778C7098.45 935.748 7031.91 1036.81 6967.6 1123.26C6947.39 1150.43 6919.81 1181.67 6890.86 1214.48C6877.86 1229.2 6864.58 1244.25 6851.57 1259.37C6808.15 1309.85 6764.55 1364.61 6731.21 1423.5C6697.93 1482.29 6675.89 1543.42 6673.66 1606.71C6671.46 1669.27 6688.48 1737.06 6738.43 1810.19C6771.2 1858.17 6796.79 1894.75 6817.03 1923.69C6823.71 1933.24 6829.81 1941.96 6835.39 1949.98C6857.33 1981.5 6872.48 2003.88 6882.35 2022.86C6893.32 2043.94 6897.95 2061.07 6900.45 2081.77C6900.59 2082.92 6900.72 2084.08 6900.85 2085.26C6916.14 2077.58 6932.38 2070 6948.81 2062.47C6960.58 2057.09 6972.64 2051.65 6984.91 2046.13C7018.64 2030.92 7053.98 2015 7089.29 1997.35C7137.24 1973.39 7182.71 1947.4 7219.85 1918.36C7257.18 1889.17 7283.53 1858.88 7296.81 1827.17C7379.53 1629.76 7360.3 1440.55 7305.96 1260.93C7278.71 1170.85 7242.87 1083.98 7206.93 999.883C7201.93 988.167 7196.91 976.48 7191.91 964.835C7175.48 926.591 7159.24 888.785 7144.26 851.778Z" fill="#73AC2C"/>
<path d="M7319.27 1660.69C7371.89 1478.33 7253.5 1153.32 7187.72 1013.61C7215.42 1155.77 7267.34 1474.66 7253.5 1612.9C7239.65 1751.14 7148.49 1915.61 7104.64 1980.56C7154.26 1949.92 7266.65 1843.06 7319.27 1660.69Z" fill="#B4FF55"/>
<path d="M7141.43 1794.74C7180.9 1657.74 7092.1 1413.56 7042.77 1308.6C7063.54 1415.41 7102.48 1654.97 7092.1 1758.83C7081.71 1862.69 7013.34 1986.25 6980.45 2035.04C7017.67 2012.03 7101.96 1931.74 7141.43 1794.74Z" fill="#B4FF55"/>
<path d="M6690.41 1751.54C6650.83 1639.44 6739.89 1439.65 6789.36 1353.76C6768.53 1441.15 6729.47 1637.18 6739.89 1722.16C6750.3 1807.14 6818.87 1908.24 6851.85 1948.17C6814.53 1929.33 6729.99 1863.64 6690.41 1751.54Z" fill="#B4FF55"/>
<path d="M6413.25 1787.04C6349.24 1686.91 6390.35 1472.15 6418.9 1377.28C6418.54 1467.1 6425.2 1666.82 6454.68 1747.18C6484.15 1827.54 6573.86 1910.37 6615.02 1941.74C6574.44 1931.9 6477.27 1887.17 6413.25 1787.04Z" fill="#8CCC3B"/>
<path d="M6534.23 1789.77C6447.4 1637.92 6488.81 1321.4 6520.37 1182.12C6524.53 1315.36 6543.28 1612.02 6585.03 1732.77C6626.77 1853.51 6745.49 1981.01 6799.63 2029.67C6747.34 2012.98 6621.05 1941.62 6534.23 1789.77Z" fill="#8CCC3B"/>
<path d="M6795.2 1796.37C6768.44 1720.74 6828.66 1585.95 6862.11 1528.01C6848.03 1586.97 6821.61 1719.22 6828.66 1776.55C6835.7 1833.88 6882.07 1902.09 6904.37 1929.02C6879.13 1916.32 6821.97 1872 6795.2 1796.37Z" fill="#B4FF55"/>
<defs>
<linearGradient id="paint0_linear_119_2" x1="2510.01" y1="4533.25" x2="1825.89" y2="4138.28" gradientUnits="userSpaceOnUse">
<stop offset="0.115" stop-color="#FFE7B7"/>
<stop offset="0.35" stop-color="#C69433"/>
</linearGradient>
<linearGradient id="paint1_linear_119_2" x1="2408.6" y1="4187.82" x2="1816.92" y2="3994.27" gradientUnits="userSpaceOnUse">
<stop stop-color="#73AB2B"/>
<stop offset="1" stop-color="#437108"/>
</linearGradient>
<linearGradient id="paint2_linear_119_2" x1="3743.78" y1="5005.12" x2="2919.03" y2="4528.95" gradientUnits="userSpaceOnUse">
<stop offset="0.115" stop-color="#FFE7B7"/>
<stop offset="0.35" stop-color="#C69433"/>
</linearGradient>
<linearGradient id="paint3_linear_119_2" x1="3621.52" y1="4588.67" x2="2908.21" y2="4355.34" gradientUnits="userSpaceOnUse">
<stop stop-color="#73AB2B"/>
<stop offset="1" stop-color="#437108"/>
</linearGradient>
<linearGradient id="paint4_linear_119_2" x1="5198.8" y1="5432.98" x2="4274.92" y2="4899.58" gradientUnits="userSpaceOnUse">
<stop offset="0.115" stop-color="#FFE7B7"/>
<stop offset="0.35" stop-color="#C69433"/>
</linearGradient>
<linearGradient id="paint5_linear_119_2" x1="5061.85" y1="4966.48" x2="4262.8" y2="4705.1" gradientUnits="userSpaceOnUse">
<stop stop-color="#73AB2B"/>
<stop offset="1" stop-color="#437108"/>
</linearGradient>
<linearGradient id="paint6_linear_119_2" x1="6698.86" y1="6037.74" x2="5695.87" y2="5458.66" gradientUnits="userSpaceOnUse">
<stop offset="0.115" stop-color="#FFE7B7"/>
<stop offset="0.35" stop-color="#C69433"/>
</linearGradient>
<linearGradient id="paint7_linear_119_2" x1="6550.18" y1="5531.29" x2="5682.71" y2="5247.53" gradientUnits="userSpaceOnUse">
<stop stop-color="#73AB2B"/>
<stop offset="1" stop-color="#437108"/>
</linearGradient>
<linearGradient id="paint8_linear_119_2" x1="6862.52" y1="3267" x2="6863.02" y2="3894.65" gradientUnits="userSpaceOnUse">
<stop offset="0.445" stop-color="#969696"/>
<stop offset="1" stop-color="#BBBBBB"/>
</linearGradient>
<linearGradient id="paint9_linear_119_2" x1="6863.02" y1="1929.75" x2="6863.02" y2="3391.25" gradientUnits="userSpaceOnUse">
<stop stop-color="#D9D9D9"/>
<stop offset="1" stop-color="#BBBBBB"/>
</linearGradient>
<linearGradient id="paint10_linear_119_2" x1="6813.57" y1="859.723" x2="6813.57" y2="2027.19" gradientUnits="userSpaceOnUse">
<stop offset="0.115" stop-color="#FFE7B7"/>
<stop offset="0.35" stop-color="#C69433"/>
</linearGradient>
<linearGradient id="paint11_linear_119_2" x1="6446.39" y1="1244.78" x2="6635.89" y2="2145.09" gradientUnits="userSpaceOnUse">
<stop stop-color="#73AB2B"/>
<stop offset="1" stop-color="#437108"/>
</linearGradient>
</defs>
</svg>
