<svg width="2341" height="1254" viewBox="0 0 2341 1254" fill="none" xmlns="http://www.w3.org/2000/svg">
<rect y="184.96" width="2341" height="1068.47" rx="434" fill="black"/>
<rect x="29.7773" y="184.96" width="2281.79" height="955.351" rx="434" fill="#004B6C"/>
<rect x="29.7773" width="2281.79" height="955.351" rx="434" fill="#006996"/>
<path d="M1168.63 479C1168.63 424.667 1177.8 381.667 1196.13 350C1214.46 318.333 1239.3 296.333 1270.63 284C1278.96 280.667 1288.13 278.167 1298.13 276.5C1308.13 274.5 1318.3 273 1328.63 272C1339.3 271 1349.8 270.333 1360.13 270C1370.46 269.667 1380.13 269.5 1389.13 269.5C1397.8 269.5 1406.96 269.667 1416.63 270C1426.3 270.333 1436.13 271.167 1446.13 272.5C1456.13 273.5 1465.8 275 1475.13 277C1484.8 278.667 1493.46 281 1501.13 284C1516.8 290.333 1530.8 299 1543.13 310C1555.8 320.667 1566.46 334 1575.13 350C1584.13 366 1590.96 384.833 1595.63 406.5C1600.3 427.833 1602.63 452 1602.63 479C1602.63 519 1597.63 553 1587.63 581C1577.63 608.667 1563.63 631.167 1545.63 648.5C1527.63 665.5 1505.96 677.833 1480.63 685.5C1455.63 693.167 1427.8 697 1397.13 697H1374.13C1343.8 697 1315.96 693.167 1290.63 685.5C1265.3 677.833 1243.63 665.5 1225.63 648.5C1207.63 631.167 1193.63 608.667 1183.63 581C1173.63 553 1168.63 519 1168.63 479ZM1385.63 381C1375.3 381 1365.3 383.167 1355.63 387.5C1345.96 391.833 1337.3 398 1329.63 406C1322.3 414 1316.3 423.833 1311.63 435.5C1307.3 446.833 1305.13 459.667 1305.13 474C1305.13 502.333 1311.46 524.5 1324.13 540.5C1337.13 556.167 1357.63 564 1385.63 564C1413.96 564 1434.46 556.167 1447.13 540.5C1460.13 524.5 1466.63 502.333 1466.63 474C1466.63 459.667 1464.3 446.833 1459.63 435.5C1455.3 423.833 1449.3 414 1441.63 406C1434.3 398 1425.8 391.833 1416.13 387.5C1406.46 383.167 1396.3 381 1385.63 381Z" fill="white"/>
<path d="M1116.5 666.5C1113.5 669.833 1108 672.5 1100 674.5C1092 676.5 1083 677.667 1073 678C1063 678.667 1052.67 678.5 1042 677.5C1031.33 676.833 1021.83 675.167 1013.5 672.5C997.5 661.167 983.5 647.667 971.5 632C959.833 616.333 949.333 601.5 940 587.5C931 573.167 923 561.167 916 551.5C909 541.5 902.667 536.5 897 536.5C891.667 536.5 888.333 537.5 887 539.5C886 541.167 885.5 545.167 885.5 551.5C885.5 558.5 886 566.167 887 574.5C888.333 582.833 889.667 591.333 891 600C892.667 608.333 894 616.667 895 625C896.333 633.333 897 641 897 648C897 652.667 896.667 657.167 896 661.5C895.333 665.833 893.5 669.833 890.5 673.5C882.833 678.167 873.167 681.5 861.5 683.5C850.167 685.833 838.333 687.167 826 687.5C813.667 688.167 801.833 688 790.5 687C779.167 686.333 769.667 685.167 762 683.5C759 679.5 757.167 675.667 756.5 672C754.833 665.333 753.333 657.667 752 649C750.667 640 749.5 631 748.5 622C747.833 612.667 747.167 603.667 746.5 595C746.167 586 746 578 746 571C746 542 746.5 513.667 747.5 486C748.833 458 752.333 430.667 758 404C758.667 401.333 759 399.5 759 398.5C759.333 397.167 759.5 396 759.5 395C759.5 391 758.5 388.167 756.5 386.5C754.833 384.5 752.667 382.833 750 381.5C747.667 379.833 745.167 378.167 742.5 376.5C740.167 374.5 738.167 371.5 736.5 367.5C735.833 365.833 735.167 363.333 734.5 360C734.167 356.667 733.833 353.333 733.5 350C733.167 346.333 732.833 343 732.5 340C732.5 336.667 732.5 334 732.5 332C732.5 318 733.333 307.167 735 299.5C736.667 291.833 739.833 286.167 744.5 282.5C749.167 278.833 755.5 276.667 763.5 276C771.5 275.333 781.667 275 794 275C804 275 814 275.333 824 276C834 276.333 844 276.5 854 276.5C862.667 276.5 871.667 277 881 278C890.667 279 899.167 282.333 906.5 288C911.833 292 917 299 922 309C927 319 931.833 330.333 936.5 343C941.5 355.667 946.167 369 950.5 383C955.167 396.667 959.833 409.333 964.5 421C969.167 432.333 973.667 441.667 978 449C982.667 456.333 987.333 460 992 460C996.667 460 999.333 457.5 1000 452.5C1001 447.5 1001.5 442.333 1001.5 437C1001.5 416.333 1000.67 396.833 999 378.5C997.667 360.167 997 340.833 997 320.5C997 314.5 997.333 307.667 998 300C999 292.333 1001.83 286.333 1006.5 282C1013.5 279 1021.83 276.833 1031.5 275.5C1041.5 274.167 1051.83 273.5 1062.5 273.5C1073.5 273.5 1084.17 274.333 1094.5 276C1105.17 277.667 1114.5 280 1122.5 283C1128.17 287.667 1132.17 293.333 1134.5 300C1138.17 309.333 1141 320 1143 332C1145 344 1146.5 356.333 1147.5 369C1148.5 381.333 1149.17 393.667 1149.5 406C1149.83 418.333 1150 429.5 1150 439.5C1150 448.5 1149.83 459.333 1149.5 472C1149.5 484.333 1149.17 497.667 1148.5 512C1147.83 526 1146.83 540.333 1145.5 555C1144.5 569.667 1142.83 583.833 1140.5 597.5C1138.17 610.833 1135.17 623.333 1131.5 635C1128.17 646.333 1124 655.667 1119 663C1118.33 663.667 1117.83 664.167 1117.5 664.5C1117.5 665.167 1117.17 665.833 1116.5 666.5Z" fill="white"/>
</svg>
