<svg width="14642" height="14642" viewBox="0 0 14642 14642" fill="none" xmlns="http://www.w3.org/2000/svg">
<path d="M13817 7321C13817 10908.6 10908.6 13817 7321 13817C3733.36 13817 825 10908.6 825 7321C825 3733.36 3733.36 825 7321 825C10908.6 825 13817 3733.36 13817 7321Z" fill="url(#paint0_linear_160_5)"/>
<path fill-rule="evenodd" clip-rule="evenodd" d="M14642 7321C14642 11364.3 11364.3 14642 7321 14642C3277.72 14642 0 11364.3 0 7321C0 3277.72 3277.72 0 7321 0C11364.3 0 14642 3277.72 14642 7321ZM7321 13817C10908.6 13817 13817 10908.6 13817 7321C13817 3733.36 10908.6 825 7321 825C3733.36 825 825 3733.36 825 7321C825 10908.6 3733.36 13817 7321 13817Z" fill="url(#paint1_linear_160_5)"/>
<path opacity="0.5" fill-rule="evenodd" clip-rule="evenodd" d="M12703.4 3682.77C12738 3733.9 12771.9 3785.54 12805.1 3837.7C12844.6 4089.89 12881.8 4353.87 12915 4626.43L11896.1 5664.55L12703.4 3682.77ZM9657.83 1258C9726.8 1284.6 9795.19 1312.34 9863 1341.2L9082.63 4087.11L8993.3 1258H9657.83ZM2417.47 3060.17C2674.75 2764.34 2958.36 2492.01 3264.65 2246.84L5300.25 6623.7L2417.47 3060.17ZM10127.4 13181.2C10284 13106.1 10437.1 13024.8 10586.4 12937.8C10271 12240.6 9569.41 11755.8 8754.03 11755.8L8754.12 11755.8C7643.33 11755.8 6743.89 12655.4 6743.89 13766.2C6743.89 13774.8 6743.94 13783.3 6744.05 13791.7C6806.68 13797.2 6869.57 13801.9 6932.7 13805.6C7250.6 13117.5 7944.59 12643.5 8754.09 12643.5C9287 12643.5 9769.36 12846.6 10127.4 13181.2ZM4990.63 13386.5L4122.37 11905L6201.88 12126L4771.16 9086.19L7815.58 11297L7466.3 6175.46L9545.76 10891.7L11641.9 8404.59L11487.3 12015.3C11752.2 11651.2 11983.2 11249.6 12259.2 10752.7C12410.9 10479.5 12537.1 10184.9 12640.9 9874.54L12554.2 9876.75L12836.8 9157.75C13073.2 8076.84 13096.8 6870.89 13020.5 5733.17L10875 6926.46L10535.9 3064.06L8727.47 6944.32L6431.55 1258H6335.91L6289.25 7552.23L1582.3 6356.18C1582.2 6359.4 1582.1 6362.62 1582 6365.83L4642.26 11039.1L2463.4 10912.1C2583.05 11125.7 2695.41 11321.4 2807.56 11504.4L4515.66 13181.7C4670.68 13256 4829.1 13324.4 4990.63 13386.5Z" fill="url(#paint2_linear_160_5)"/>
<path d="M10292.1 9854.94C10527.9 10263.4 10106.7 10948 9351.35 11384.1C8595.97 11820.3 7792.46 11842.7 7556.65 11434.3C7320.83 11025.8 7742.03 10341.2 8497.4 9905.06C9252.78 9468.94 10056.3 9446.5 10292.1 9854.94Z" fill="#FCFCFC"/>
<path fill-rule="evenodd" clip-rule="evenodd" d="M10192.7 10608.7C10362.9 10332.1 10409 10059.2 10291.4 9855.37C10173.7 9651.55 9914.26 9555.08 9589.62 9564.15C9265.01 9573.21 8875.42 9687.8 8497.83 9905.8C8120.24 10123.8 7826.21 10403.9 7656.06 10680.5C7485.88 10957.1 7439.71 11230 7557.39 11433.8C7675.06 11637.6 7934.49 11734.1 8259.14 11725.1C8583.75 11716 8973.33 11601.4 9350.92 11383.4C9728.51 11165.4 10022.5 10885.3 10192.7 10608.7ZM9351.35 11384.1C10106.7 10948 10527.9 10263.4 10292.1 9854.94C10056.3 9446.5 9252.78 9468.94 8497.4 9905.06C7742.03 10341.2 7320.83 11025.8 7556.65 11434.3C7792.46 11842.7 8595.97 11820.3 9351.35 11384.1Z" fill="black"/>
<path d="M7004.78 4992.43C7151.27 5246.16 6830.75 5705.46 6288.87 6018.31C5746.99 6331.16 5188.96 6379.1 5042.48 6125.37C4895.99 5871.64 5216.51 5412.34 5758.39 5099.49C6300.26 4786.64 6858.29 4738.71 7004.78 4992.43Z" fill="#FCFCFC" fill-opacity="0.5"/>
<path fill-rule="evenodd" clip-rule="evenodd" d="M6904.26 5482.71C7033.77 5297.12 7077.02 5119.26 7004.04 4992.86C6931.06 4866.45 6755.4 4814.98 6529.93 4834.35C6304.52 4853.71 6029.67 4943.85 5758.81 5100.23C5487.96 5256.61 5272.46 5449.57 5143 5635.09C5013.49 5820.68 4970.24 5998.54 5043.22 6124.94C5116.2 6251.35 5291.85 6302.82 5517.33 6283.45C5742.73 6264.09 6017.59 6173.95 6288.44 6017.57C6559.3 5861.19 6774.79 5668.23 6904.26 5482.71ZM6288.87 6018.31C6830.75 5705.46 7151.27 5246.16 7004.78 4992.43C6858.29 4738.71 6300.26 4786.64 5758.39 5099.49C5216.51 5412.34 4895.99 5871.64 5042.48 6125.37C5188.96 6379.1 5746.99 6331.16 6288.87 6018.31Z" fill="black"/>
<path fill-rule="evenodd" clip-rule="evenodd" d="M8358.61 7430.41C8361.24 7374.38 8350.35 7323.02 8324.52 7278.29C8178.03 7024.56 7606.68 7080.18 7048.36 7402.53C6490.05 7724.87 6156.2 8191.87 6302.69 8445.59C6328.51 8490.32 6367.55 8525.44 6417.38 8551.18C6429.68 8289.41 6737.27 7925.75 7197.15 7660.24C7657.03 7394.73 8125.76 7310.17 8358.61 7430.41Z" fill="#FCFCFC" fill-opacity="0.75"/>
<path fill-rule="evenodd" clip-rule="evenodd" d="M8357.82 7429.04C8360.21 7373.67 8349.31 7322.93 8323.78 7278.71C8250.8 7152.32 8071.83 7102.76 7840.96 7125.23C7610.17 7147.7 7327.87 7242.14 7048.79 7403.27C6769.71 7564.39 6546.77 7761.65 6411.92 7950.29C6277.02 8138.99 6230.45 8318.77 6303.43 8445.16C6328.96 8489.38 6367.44 8524.19 6416.59 8549.8C6423.24 8418.91 6503.27 8262.9 6638.78 8106.55C6774.77 7949.64 6966.71 7792.29 7196.72 7659.5C7426.73 7526.7 7658.97 7439.15 7862.85 7399.83C8066.01 7360.65 8241.14 7369.34 8357.82 7429.04ZM8358.65 7429.47C8361.12 7373.81 8350.2 7322.77 8324.52 7278.29C8178.03 7024.56 7606.68 7080.18 7048.36 7402.53C6490.05 7724.87 6156.2 8191.87 6302.69 8445.59C6328.37 8490.07 6367.11 8525.05 6416.55 8550.74C6416.83 8550.89 6417.11 8551.03 6417.38 8551.18C6417.4 8550.86 6417.41 8550.55 6417.43 8550.24C6430.42 8288.54 6737.82 7925.43 7197.15 7660.24C7656.48 7395.04 8124.64 7310.38 8357.77 7429.98C8358.05 7430.12 8358.33 7430.27 8358.61 7430.41C8358.62 7430.1 8358.64 7429.78 8358.65 7429.47Z" fill="black"/>
<path fill-rule="evenodd" clip-rule="evenodd" d="M8617.79 7879.33C8620.42 7823.3 8609.53 7771.93 8583.7 7727.2C8437.21 7473.47 7865.85 7529.1 7307.54 7851.44C6749.23 8173.78 6415.38 8640.78 6561.87 8894.51C6587.69 8939.24 6626.73 8974.36 6676.56 9000.09C6688.86 8738.32 6996.45 8374.66 7456.33 8109.15C7916.21 7843.64 8384.94 7759.09 8617.79 7879.33Z" fill="#FCFCFC" fill-opacity="0.75"/>
<path fill-rule="evenodd" clip-rule="evenodd" d="M8617 7877.96C8619.39 7822.58 8608.49 7771.84 8582.96 7727.63C8509.98 7601.23 8331.01 7551.67 8100.14 7574.15C7869.35 7596.62 7587.04 7691.06 7307.97 7852.18C7028.89 8013.31 6805.95 8210.56 6671.1 8399.2C6536.2 8587.91 6489.63 8767.68 6562.61 8894.08C6588.14 8938.29 6626.62 8973.1 6675.77 8998.72C6682.41 8867.82 6762.45 8711.81 6897.96 8555.46C7033.95 8398.56 7225.89 8241.21 7455.9 8108.41C7685.91 7975.61 7918.15 7888.06 8122.03 7848.74C8325.19 7809.56 8500.32 7818.26 8617 7877.96ZM8617.83 7878.39C8620.3 7822.72 8609.38 7771.68 8583.7 7727.2C8437.21 7473.47 7865.85 7529.1 7307.54 7851.44C6749.23 8173.78 6415.38 8640.78 6561.87 8894.51C6587.55 8938.99 6626.29 8973.96 6675.73 8999.66C6676.01 8999.8 6676.29 8999.95 6676.56 9000.09C6676.58 8999.78 6676.59 8999.46 6676.61 8999.15C6689.6 8737.45 6997 8374.35 7456.33 8109.15C7915.66 7843.96 8383.82 7759.29 8616.95 7878.9C8617.23 7879.04 8617.51 7879.18 8617.79 7879.33C8617.8 7879.01 8617.82 7878.7 8617.83 7878.39Z" fill="black"/>
<path fill-rule="evenodd" clip-rule="evenodd" d="M9862.85 9325.89C9873.7 9265.11 9867.22 9211.2 9841.39 9166.47C9694.9 8912.74 8981.67 9050.28 8248.34 9473.67C7515.01 9897.06 7039.28 10446 7185.77 10699.7C7211.59 10744.4 7255.03 10777 7313.1 10798C7363.82 10514 7793.08 10080.1 8397.12 9731.38C9001.17 9382.64 9591.57 9227.83 9862.85 9325.89Z" fill="#FCFCFC" fill-opacity="0.75"/>
<path fill-rule="evenodd" clip-rule="evenodd" d="M9862.18 9324.74C9872.76 9264.51 9866.21 9211.17 9840.65 9166.9C9804.21 9103.78 9732.46 9064.88 9633.66 9048.73C9534.87 9032.58 9409.18 9039.2 9265.09 9066.99C8976.92 9122.56 8615.37 9262.75 8248.76 9474.41C7882.16 9686.07 7579.97 9929.09 7387.76 10150.9C7291.66 10261.8 7223.08 10367.3 7187.67 10460.9C7152.26 10554.6 7150.06 10636.1 7186.51 10699.3C7212.07 10743.5 7254.99 10775.9 7312.43 10796.8C7338.23 10654.7 7458.27 10475.5 7647.01 10288.4C7836.24 10100.7 8094.62 9905.04 8396.7 9730.64C8698.77 9556.24 8997.45 9430.32 9254.55 9360.26C9511 9290.38 9726.23 9276.03 9862.18 9324.74ZM9863 9325.03C9873.64 9264.6 9867.1 9210.99 9841.39 9166.47C9694.9 8912.74 8981.67 9050.28 8248.34 9473.67C7515.01 9897.06 7039.28 10446 7185.77 10699.7C7211.47 10744.2 7254.63 10776.7 7312.28 10797.7C7312.55 10797.8 7312.82 10797.9 7313.1 10798C7313.15 10797.7 7313.2 10797.4 7313.25 10797.1C7364.68 10513.2 7793.69 10079.8 8397.12 9731.38C9000.56 9382.99 9590.39 9228.14 9862.03 9325.59C9862.3 9325.69 9862.57 9325.79 9862.85 9325.89C9862.9 9325.6 9862.95 9325.32 9863 9325.03Z" fill="black"/>
<path fill-rule="evenodd" clip-rule="evenodd" d="M9604.48 8878.38C9615.34 8817.6 9608.85 8763.69 9583.02 8718.96C9436.53 8465.23 8723.3 8602.77 7989.97 9026.16C7256.64 9449.55 6780.91 9998.46 6927.4 10252.2C6953.22 10296.9 6996.67 10329.5 7054.73 10350.5C7105.45 10066.5 7534.72 9632.61 8138.76 9283.87C8742.8 8935.12 9333.21 8780.32 9604.48 8878.38Z" fill="#FCFCFC" fill-opacity="0.75"/>
<path fill-rule="evenodd" clip-rule="evenodd" d="M9603.81 8877.23C9614.4 8817 9607.84 8763.65 9582.28 8719.38C9545.84 8656.26 9474.09 8617.37 9375.29 8601.22C9276.51 8585.07 9150.81 8591.69 9006.72 8619.48C8718.55 8675.05 8357 8815.24 7990.4 9026.9C7623.79 9238.56 7321.61 9481.58 7129.4 9703.35C7033.29 9814.24 6964.71 9919.79 6929.3 10013.4C6893.89 10107.1 6891.7 10188.6 6928.14 10251.8C6953.7 10296 6996.62 10328.4 7054.07 10349.3C7079.86 10207.2 7199.9 10028 7388.65 9840.86C7577.87 9653.23 7836.26 9457.53 8138.33 9283.13C8440.4 9108.72 8739.08 8982.81 8996.18 8912.75C9252.63 8842.87 9467.86 8828.52 9603.81 8877.23ZM9604.63 8877.52C9615.27 8817.09 9608.73 8763.48 9583.02 8718.96C9436.53 8465.23 8723.3 8602.77 7989.97 9026.16C7256.64 9449.55 6780.91 9998.46 6927.4 10252.2C6953.1 10296.7 6996.26 10329.2 7053.91 10350.2C7054.19 10350.3 7054.46 10350.4 7054.73 10350.5C7054.78 10350.2 7054.83 10349.9 7054.88 10349.6C7106.31 10065.6 7535.32 9632.26 8138.76 9283.87C8742.19 8935.47 9332.02 8780.63 9603.66 8878.08C9603.93 8878.18 9604.21 8878.28 9604.48 8878.38C9604.53 8878.09 9604.58 8877.81 9604.63 8877.52Z" fill="black"/>
<path fill-rule="evenodd" clip-rule="evenodd" d="M7891.72 5911.8C7902.58 5851.02 7896.09 5797.11 7870.26 5752.38C7723.78 5498.65 7010.54 5636.19 6277.21 6059.58C5543.88 6482.97 5068.15 7031.88 5214.64 7285.6C5240.47 7330.34 5283.91 7362.91 5341.97 7383.89C5392.69 7099.94 5821.96 6666.03 6426 6317.29C7030.04 5968.55 7620.45 5813.74 7891.72 5911.8Z" fill="#FCFCFC" fill-opacity="0.75"/>
<path fill-rule="evenodd" clip-rule="evenodd" d="M7891.06 5910.65C7901.64 5850.42 7895.08 5797.08 7869.52 5752.81C7833.08 5689.69 7761.33 5650.79 7662.54 5634.64C7563.75 5618.49 7438.05 5625.11 7293.97 5652.9C7005.8 5708.47 6644.24 5848.66 6277.64 6060.32C5911.03 6271.98 5608.85 6515 5416.64 6736.77C5320.53 6847.67 5251.95 6953.21 5216.54 7046.84C5181.13 7140.47 5178.94 7222.06 5215.38 7285.18C5240.94 7329.45 5283.86 7361.8 5341.31 7382.74C5367.1 7240.65 5487.14 7061.43 5675.89 6874.28C5865.11 6686.66 6123.5 6490.95 6425.57 6316.55C6727.64 6142.15 7026.32 6016.23 7283.42 5946.17C7539.87 5876.29 7755.1 5861.94 7891.06 5910.65ZM7891.87 5910.94C7902.52 5850.51 7895.97 5796.9 7870.26 5752.38C7723.78 5498.65 7010.54 5636.19 6277.21 6059.58C5543.88 6482.97 5068.15 7031.88 5214.64 7285.6C5240.35 7330.13 5283.5 7362.6 5341.16 7383.6C5341.43 7383.7 5341.7 7383.8 5341.97 7383.89C5342.02 7383.61 5342.07 7383.33 5342.13 7383.04C5393.55 7099.07 5822.56 6665.68 6426 6317.29C7029.44 5968.9 7619.26 5814.05 7890.9 5911.5C7891.18 5911.6 7891.45 5911.7 7891.72 5911.8C7891.77 5911.51 7891.82 5911.23 7891.87 5910.94Z" fill="black"/>
<path d="M6102.46 4228.53C6181.07 4364.67 5960.56 4639.14 5609.95 4841.57C5259.33 5043.99 4911.38 5097.73 4832.78 4961.58C4754.17 4825.43 4974.68 4550.97 5325.3 4348.54C5675.91 4146.11 6023.86 4092.38 6102.46 4228.53Z" fill="#FCFCFC" fill-opacity="0.5"/>
<path fill-rule="evenodd" clip-rule="evenodd" d="M6107.16 4353.03C6122.21 4305.13 6121.21 4262.71 6101.72 4228.95C6082.23 4195.2 6046 4173.12 5996.99 4162.21C5947.98 4151.3 5886.27 4151.56 5816.01 4162.41C5675.5 4184.11 5500.96 4248.11 5325.72 4349.28C5150.48 4450.45 5007.79 4569.61 4918.75 4680.45C4874.22 4735.87 4843.14 4789.18 4828.08 4837.08C4813.03 4884.98 4814.03 4927.39 4833.52 4961.15C4853.01 4994.91 4889.24 5016.98 4938.25 5027.9C4987.26 5038.81 5048.97 5038.54 5119.23 5027.69C5259.74 5005.99 5434.28 4942 5609.52 4840.83C5784.76 4739.65 5927.45 4620.49 6016.49 4509.66C6061.02 4454.23 6092.1 4400.93 6107.16 4353.03ZM5609.95 4841.57C5960.56 4639.14 6181.07 4364.67 6102.46 4228.53C6023.86 4092.38 5675.91 4146.11 5325.3 4348.54C4974.68 4550.97 4754.17 4825.43 4832.78 4961.58C4911.38 5097.73 5259.33 5043.99 5609.95 4841.57Z" fill="black"/>
<path d="M5559.04 3287.3C5637.65 3423.45 5417.14 3697.91 5066.52 3900.34C4715.91 4102.77 4367.96 4156.5 4289.36 4020.35C4210.75 3884.21 4431.26 3609.74 4781.87 3407.31C5132.49 3204.89 5480.44 3151.15 5559.04 3287.3Z" fill="white"/>
<path fill-rule="evenodd" clip-rule="evenodd" d="M5563.74 3411.8C5578.79 3363.9 5577.79 3321.49 5558.3 3287.73C5538.81 3253.97 5502.58 3231.9 5453.57 3220.98C5404.55 3210.07 5342.85 3210.34 5272.59 3221.19C5132.08 3242.89 4957.54 3306.88 4782.3 3408.05C4607.06 3509.23 4464.37 3628.39 4375.33 3739.22C4330.8 3794.65 4299.72 3847.95 4284.66 3895.85C4269.61 3943.75 4270.61 3986.17 4290.1 4019.93C4309.59 4053.68 4345.82 4075.76 4394.83 4086.67C4443.84 4097.58 4505.55 4097.32 4575.81 4086.47C4716.32 4064.77 4890.86 4000.77 5066.1 3899.6C5241.33 3798.43 5384.03 3679.27 5473.07 3568.43C5517.6 3513.01 5548.68 3459.7 5563.74 3411.8ZM5066.52 3900.34C5417.14 3697.91 5637.65 3423.45 5559.04 3287.3C5480.44 3151.15 5132.49 3204.89 4781.87 3407.31C4431.26 3609.74 4210.75 3884.21 4289.36 4020.35C4367.96 4156.5 4715.91 4102.77 5066.52 3900.34Z" fill="black"/>
<path fill-rule="evenodd" clip-rule="evenodd" d="M4731.9 3335.31C5122.74 3109.66 5530.52 3084.25 5642.7 3278.55L6165.02 4183.23C6218.04 4275.06 6195.54 4399.54 6115.81 4529.11L6220.12 4709.79C6894.6 4604.03 7595 4913.31 7956.8 5539.97L8145.21 5866.32C8346.94 6215.72 8410.59 6606.94 8353.09 6976.82L8775.46 7708.38C9098.09 7802.34 9386.37 8016.06 9567.65 8330.06L10105.4 9261.48C10478.6 9907.79 10257.1 10734.2 9610.81 11107.4L8971.42 11476.5C8325.11 11849.7 7498.69 11628.2 7125.54 10981.9L6587.78 10050.5C6406.7 9736.86 6365.65 9380.81 6445.21 9054.72L6021.92 8321.56C5673.35 8186.31 5366.83 7935.75 5165.34 7586.75L4976.92 7260.4C4603.89 6614.3 4703.02 5825.16 5167.24 5292.52L5073.81 5130.7C4921.73 5134.97 4802.68 5092.22 4749.67 5000.39L4227.35 4095.71C4115.17 3901.4 4341.07 3560.96 4731.9 3335.31Z" fill="#0097B8" fill-opacity="0.25"/>
<path fill-rule="evenodd" clip-rule="evenodd" d="M5291.75 3148.6C5456.67 3138.32 5587.11 3180.54 5643.45 3278.13L6165.76 4182.8C6218.96 4274.94 6196.38 4399.61 6116.81 4529.12L6220.58 4708.86C6895.21 4603.31 7595.66 4912.75 7957.54 5539.54L8145.96 5865.89C8347.73 6215.37 8411.43 6606.68 8353.99 6976.65L8776.03 7707.65C9098.74 7801.73 9387.06 8015.54 9568.4 8329.63L10106.2 9261.06C10479.5 9907.77 10258 10734.7 9611.25 11108.1L8971.85 11477.3C8325.14 11850.6 7498.19 11629.1 7124.8 10982.3L6587.04 10050.9C6405.91 9737.19 6364.8 9381.05 6444.3 9054.85L6021.33 8322.25C5672.7 8186.9 5366.14 7936.26 5164.6 7587.18L4976.19 7260.83C4603.08 6614.58 4702.09 5825.32 5166.19 5292.42L5073.33 5131.57C4921.38 5135.73 4802.13 5092.95 4748.93 5000.81L4226.61 4096.14C4170.27 3998.55 4198.92 3864.48 4290.29 3726.79C4381.68 3589.06 4535.97 3447.45 4731.48 3334.57C4926.99 3221.7 5126.77 3158.88 5291.75 3148.6ZM5073.82 5130.7L5167.24 5292.52C4703.02 5825.16 4603.9 6614.3 4976.93 7260.4L5165.35 7586.75C5366.84 7935.75 5673.35 8186.31 6021.92 8321.56L6445.21 9054.72C6365.65 9380.81 6406.71 9736.86 6587.78 10050.5L7125.55 10981.9C7498.69 11628.2 8325.12 11849.7 8971.42 11476.5L9610.82 11107.4C10257.1 10734.2 10478.6 9907.79 10105.4 9261.49L9567.66 8330.06C9386.37 8016.06 9098.1 7802.35 8775.47 7708.38L8353.1 6976.82C8410.59 6606.94 8346.94 6215.72 8145.22 5866.32L7956.8 5539.97C7595 4913.32 6894.6 4604.03 6220.13 4709.8L6115.81 4529.11C6195.55 4399.54 6218.04 4275.06 6165.02 4183.23L5642.71 3278.55C5530.53 3084.25 5122.75 3109.66 4731.91 3335.31C4341.07 3560.96 4115.17 3901.4 4227.35 4095.71L4749.67 5000.39C4802.69 5092.22 4921.74 5134.97 5073.82 5130.7Z" fill="black"/>
<path fill-rule="evenodd" clip-rule="evenodd" d="M5273.59 2857.28C5472.4 2844.89 5754.38 2886.51 5896.21 3132.18L6418.53 4036.86C6487.78 4156.81 6497.93 4281.65 6477.83 4396.66C7167.93 4395.15 7840.14 4752.45 8210.31 5393.6L8398.73 5719.95C8615.87 6096.06 8696.56 6514.2 8655.93 6915.87L8973.47 7465.87C9318.3 7594.72 9622.68 7839.9 9821.17 8183.68L10358.9 9115.11C10812.9 9901.43 10543.5 10906.9 9757.18 11360.9L9117.78 11730C8331.46 12184 7326 11914.6 6872.02 11128.3L6334.26 10196.9C6136.01 9853.47 6075.76 9467.77 6136.25 9105.07L5817.66 8553.25C5450.01 8387.53 5128.72 8108.8 4911.82 7733.12L4723.4 7406.76C4344.78 6750.98 4381.29 5970.01 4750.56 5367.21C4651.33 5325.57 4559.57 5256.6 4496.14 5146.75L3973.83 4242.07C3831.99 3996.4 3936.93 3731.39 4047.07 3565.41C4168.31 3382.69 4359.49 3212.3 4585.53 3081.79C4811.57 2951.29 5054.73 2870.92 5273.59 2857.28ZM4930.76 5118.52C4848.06 5100.01 4784.56 5060.83 4749.66 5000.38L4227.34 4095.7C4115.16 3901.4 4341.06 3560.96 4731.9 3335.31C5122.74 3109.66 5530.52 3084.25 5642.7 3278.55L6165.01 4183.23C6218.03 4275.06 6195.53 4399.53 6115.8 4529.1L6220.12 4709.79C6894.59 4604.03 7594.99 4913.31 7956.79 5539.97L8145.21 5866.32C8346.93 6215.71 8410.58 6606.94 8353.09 6976.81L8775.46 7708.37C9098.09 7802.34 9386.36 8016.06 9567.65 8330.05L10105.4 9261.48C10478.6 9907.79 10257.1 10734.2 9610.81 11107.4L8971.41 11476.5C8325.11 11849.7 7498.68 11628.2 7125.54 10981.9L6587.77 10050.5C6406.7 9736.85 6365.64 9380.8 6445.2 9054.72L6021.91 8321.56C5673.34 8186.3 5366.83 7935.74 5165.34 7586.75L4976.92 7260.4C4633.42 6665.45 4690.27 5949.22 5063.88 5423.66C5069.63 5415.57 5075.45 5407.54 5081.35 5399.54C5108.41 5362.86 5137.05 5327.15 5167.23 5292.52L5073.81 5130.7C5039.63 5131.66 5007.13 5130.24 4976.67 5126.43C4960.79 5124.44 4945.47 5121.81 4930.76 5118.52Z" fill="#D6FAFF"/>
<path fill-rule="evenodd" clip-rule="evenodd" d="M6114.81 4529.09L6115.08 4528.66C6194.75 4399.18 6217.06 4275.08 6164.28 4183.66L5641.96 3278.98C5586.12 3182.26 5456.57 3140.04 5291.85 3150.3C5127.19 3160.56 4927.66 3223.28 4732.33 3336.05C4537 3448.82 4382.92 3590.26 4291.71 3727.74C4200.45 3865.26 4172.25 3998.56 4228.09 4095.28L4750.41 4999.95C4785.15 5060.13 4848.41 5099.21 4930.95 5117.68C4945.64 5120.97 4960.93 5123.6 4976.78 5125.58C5007.19 5129.39 5039.65 5130.8 5073.79 5129.85L5074.3 5129.83L5168.28 5292.62L5167.88 5293.08C5137.72 5327.69 5109.09 5363.38 5082.04 5400.05C5076.15 5408.04 5070.33 5416.07 5064.59 5424.15C4691.16 5949.45 4634.34 6665.32 4977.66 7259.97L5166.08 7586.32C5367.47 7935.14 5673.83 8185.58 6022.22 8320.76L6022.51 8320.87L6446.12 9054.59L6446.04 9054.92C6366.52 9380.8 6407.56 9736.62 6588.52 10050.1L7126.28 10981.5C7499.19 11627.4 8325.09 11848.7 8970.99 11475.8L9610.38 11106.6C10256.3 10733.7 10477.6 9907.81 10104.7 9261.91L9566.91 8330.48C9385.74 8016.68 9097.65 7803.1 8775.22 7709.19L8774.89 7709.1L8352.2 6976.98L8352.25 6976.68C8409.71 6607 8346.1 6215.97 8144.47 5866.74L7956.05 5540.39C7594.44 4914.06 6894.39 4604.93 6220.26 4710.64L6219.68 4710.73L6114.81 4529.09ZM5273.54 2856.42C5472.44 2844.03 5754.87 2885.64 5896.96 3131.76L6419.28 4036.43C6488.44 4156.24 6498.74 4280.91 6478.85 4395.81C7168.88 4394.65 7840.91 4752.06 8211.05 5393.17L8399.47 5719.52C8616.66 6095.71 8697.39 6513.92 8656.81 6915.69L8974.06 7465.18C9318.96 7594.12 9623.38 7839.39 9821.91 8183.26L10359.7 9114.69C10813.9 9901.41 10544.3 10907.4 9757.61 11361.6L9118.21 11730.8C8331.49 12185 7325.5 11915.4 6871.28 11128.7L6333.52 10197.3C6135.22 9853.81 6074.93 9468.03 6135.36 9105.24L5817.06 8553.92C5449.36 8388.11 5128.02 8109.3 4911.08 7733.54L4722.66 7407.19C4344.06 6751.43 4380.37 5970.55 4749.31 5367.61C4650.29 5325.87 4558.74 5256.88 4495.41 5147.18L3973.09 4242.5C3831 3996.39 3936.17 3730.99 4046.36 3564.94C4167.69 3382.09 4358.98 3211.61 4585.11 3081.05C4811.24 2950.49 5054.52 2870.07 5273.54 2856.42ZM4749.76 5366.87C4650.84 5325.2 4559.4 5256.31 4496.15 5146.75L3973.83 4242.07C3831.99 3996.4 3936.94 3731.39 4047.07 3565.41C4168.31 3382.69 4359.49 3212.3 4585.53 3081.79C4811.58 2951.29 5054.73 2870.92 5273.59 2857.28C5472.4 2844.89 5754.38 2886.51 5896.22 3132.18L6418.53 4036.86C6487.61 4156.51 6497.88 4281.03 6477.98 4395.81C6477.94 4396.09 6477.89 4396.38 6477.84 4396.66C6478.13 4396.66 6478.41 4396.66 6478.7 4396.66C7168.5 4395.45 7840.3 4752.72 8210.31 5393.6L8398.73 5719.95C8615.88 6096.06 8696.56 6514.2 8655.93 6915.87L8973.47 7465.87C9318.31 7594.72 9622.69 7839.9 9821.17 8183.68L10358.9 9115.11C10812.9 9901.43 10543.5 10906.9 9757.18 11360.9L9117.79 11730C8331.47 12184 7326 11914.6 6872.02 11128.3L6334.26 10196.9C6136.01 9853.47 6075.77 9467.77 6136.26 9105.07L5817.66 8553.25C5450.01 8387.53 5128.72 8108.8 4911.82 7733.12L4723.4 7406.77C4344.94 6751.25 4381.27 5970.65 4750.11 5367.95C4750.26 5367.7 4750.41 5367.45 4750.56 5367.21C4750.29 5367.1 4750.03 5366.99 4749.76 5366.87ZM6220.12 4709.79L6115.8 4529.11C6195.54 4399.53 6218.04 4275.06 6165.02 4183.23L5642.7 3278.55C5530.52 3084.25 5122.74 3109.66 4731.9 3335.31C4341.06 3560.96 4115.17 3901.4 4227.35 4095.71L4749.66 5000.38C4784.56 5060.83 4848.07 5100.01 4930.77 5118.52C4945.48 5121.81 4960.8 5124.45 4976.67 5126.43C5007.13 5130.24 5039.64 5131.66 5073.81 5130.7L5167.23 5292.52C5137.05 5327.15 5108.42 5362.86 5081.35 5399.54C5075.46 5407.54 5069.64 5415.58 5063.89 5423.66C4690.28 5949.22 4633.43 6665.45 4976.92 7260.4L5165.34 7586.75C5366.83 7935.74 5673.35 8186.3 6021.92 8321.56L6445.21 9054.72C6365.64 9380.8 6406.7 9736.85 6587.78 10050.5L7125.54 10981.9C7498.68 11628.2 8325.11 11849.7 8971.42 11476.5L9610.81 11107.4C10257.1 10734.2 10478.6 9907.79 10105.4 9261.48L9567.65 8330.05C9386.37 8016.06 9098.09 7802.34 8775.46 7708.37L8353.09 6976.81C8410.59 6606.94 8346.94 6215.71 8145.21 5866.32L7956.8 5539.97C7595 4913.31 6894.6 4604.03 6220.12 4709.79Z" fill="black"/>
<path fill-rule="evenodd" clip-rule="evenodd" d="M9174.3 11090.4C9731.26 10768.9 10068.4 10310 9927.23 10065.6C9874.91 9974.97 9764.23 9926.54 9617.27 9917.84C9723.94 9928.8 9802.84 9966.59 9841.23 10033.1C9962.71 10243.5 9632.41 10661.6 9103.49 10967C8574.57 11272.3 8047.32 11349.3 7925.84 11138.9C7886.2 11070.3 7894.67 10979.5 7942.45 10877.7C7872.1 11013.3 7856.65 11137.1 7910.3 11230.1C8051.42 11474.5 8617.34 11412 9174.3 11090.4ZM8622.08 10229.5C8635.77 10221.2 8649.61 10213.1 8663.58 10205C8672.36 10200 8681.13 10195 8689.91 10190C8681.01 10195 8672.12 10200.1 8663.22 10205.2C8649.37 10213.2 8635.65 10221.3 8622.08 10229.5Z" fill="#52BCD2"/>
<path fill-rule="evenodd" clip-rule="evenodd" d="M9946.61 10283.4C9967.03 10201.1 9961.63 10126.9 9926.49 10066C9878.4 9982.73 9780.74 9935.1 9650.55 9921.42C9740.58 9936.36 9807.5 9972.94 9841.97 10032.6C9872.49 10085.5 9874.59 10151.4 9852.4 10225.1C9830.22 10298.8 9783.72 10380.4 9716.93 10464.9C9583.34 10634.1 9368.45 10815 9103.92 10967.7C8839.39 11120.4 8575.25 11216.1 8362 11247.2C8255.38 11262.8 8161.44 11262.2 8086.53 11244.6C8011.61 11227 7955.63 11192.2 7925.1 11139.4C7889.61 11077.9 7892.55 10998.9 7927.4 10910.4C7870.9 11033.1 7861.88 11144.5 7911.04 11229.6C7946.18 11290.5 8007.79 11332.3 8089.25 11355.8C8170.71 11379.2 8271.97 11384.3 8386.27 11371.6C8614.86 11346.4 8895.47 11250.4 9173.87 11089.7C9452.27 10928.9 9675.69 10733.9 9811.86 10548.6C9879.94 10455.9 9926.19 10365.7 9946.61 10283.4ZM7933.67 10895.2C7870.9 11023.9 7858.96 11141.1 7910.3 11230.1C8051.42 11474.5 8617.34 11412 9174.3 11090.4C9731.26 10768.9 10068.4 10310 9927.23 10065.6C9877.08 9978.72 9773.29 9930.62 9635.32 9919.13C9629.37 9918.63 9623.35 9918.2 9617.27 9917.84C9623.35 9918.47 9629.33 9919.18 9635.23 9919.98C9732.8 9933.2 9805.03 9970.38 9841.23 10033.1C9962.71 10243.5 9632.41 10661.6 9103.49 10967C8574.57 11272.3 8047.32 11349.3 7925.84 11138.9C7888.53 11074.3 7893.84 10990.1 7934.44 10895.5C7936.98 10889.6 7939.65 10883.7 7942.45 10877.7C7939.42 10883.5 7936.49 10889.4 7933.67 10895.2ZM8622.08 10229.5C8635.65 10221.3 8649.37 10213.2 8663.22 10205.2C8663.34 10205.1 8663.46 10205.1 8663.57 10205C8672.35 10199.9 8681.13 10194.9 8689.91 10190C8681.13 10195 8672.36 10200 8663.58 10205C8663.46 10205.1 8663.35 10205.2 8663.23 10205.2C8649.37 10213.2 8635.66 10221.3 8622.08 10229.5Z" fill="black"/>
<path fill-rule="evenodd" clip-rule="evenodd" d="M5078.81 7142.52C4684.05 6458.78 4918.32 5584.49 5602.06 5189.73L5905.66 5014.45C5906.16 5014.16 5906.65 5013.88 5907.14 5013.59L5793.95 5078.95C5110.21 5473.7 4875.94 6348 5270.7 7031.74L5452.01 7345.79C5635.3 7663.26 5921.98 7883.82 6244.96 7989.52C6216.62 8039.03 6194.06 8087.74 6177.74 8134.98C5804.57 8049.07 5466.69 7814.36 5260.13 7456.57L5078.81 7142.52Z" fill="white" fill-opacity="0.5"/>
<path fill-rule="evenodd" clip-rule="evenodd" d="M5602.49 5190.47C4919.16 5584.99 4685.03 6458.77 5079.55 7142.1L5260.87 7456.14C5467.17 7813.48 5804.53 8047.97 6177.18 8133.97C6193.41 8087.2 6215.73 8038.99 6243.69 7990.01C5920.93 7884.12 5634.48 7663.55 5451.27 7346.21L5269.96 7032.17C4886.79 6368.51 5095.89 5525.43 5733.27 5114.97L5602.49 5190.47ZM5751.16 5104.64C5765.22 5095.86 5779.48 5087.3 5793.95 5078.95L5907.14 5013.59C5906.65 5013.88 5906.16 5014.16 5905.66 5014.45L5602.06 5189.73C4918.32 5584.49 4684.05 6458.78 5078.81 7142.52L5260.13 7456.57C5466.69 7814.36 5804.57 8049.07 6177.74 8134.98C6193.98 8087.99 6216.39 8039.53 6244.52 7990.28C6244.67 7990.03 6244.81 7989.77 6244.96 7989.52C6244.68 7989.43 6244.4 7989.34 6244.13 7989.25C5921.49 7883.45 5635.15 7662.98 5452.01 7345.79L5270.7 7031.74C4884.29 6362.46 5100.58 5510.61 5751.16 5104.64Z" fill="black"/>
<path fill-rule="evenodd" clip-rule="evenodd" d="M6707.78 9963.97C6410.21 9448.57 6586.8 8789.53 7102.2 8491.96C7123.86 8479.46 7145.76 8467.8 7167.89 8456.96C6701.64 8770.27 6551.56 9395.84 6836.62 9889.58L7387.16 10843.1C7380.4 10945.4 7391.76 11047.3 7422.73 11144.6C7366.48 11084.9 7316.2 11017.8 7273.4 10943.7L6707.78 9963.97Z" fill="white" fill-opacity="0.5"/>
<path fill-rule="evenodd" clip-rule="evenodd" d="M7102.63 8492.71C6587.64 8790.04 6411.19 9448.55 6708.52 9963.55L7274.14 10943.2C7316.25 11016.2 7365.61 11082.3 7420.78 11141.3C7390.66 11045 7379.65 10944.3 7386.29 10843.3L6835.88 9890.01C6552.72 9399.55 6698.58 8779.13 7157.03 8463.31C7138.74 8472.54 7120.6 8482.33 7102.63 8492.71ZM7162.67 8460.49C6700.53 8774.95 6552.62 9397.69 6836.62 9889.58L7387.16 10843.1C7380.45 10944.7 7391.61 11046 7422.13 11142.7C7422.33 11143.4 7422.53 11144 7422.73 11144.6C7422.28 11144.1 7421.82 11143.7 7421.37 11143.2C7365.67 11083.8 7315.86 11017.2 7273.4 10943.7L6707.78 9963.97C6410.21 9448.57 6586.8 8789.53 7102.2 8491.96C7122.01 8480.53 7142.03 8469.79 7162.24 8459.75C7164.12 8458.81 7166 8457.88 7167.89 8456.96C7166.14 8458.13 7164.4 8459.31 7162.67 8460.49Z" fill="black"/>
<defs>
<linearGradient id="paint0_linear_160_5" x1="7321" y1="825" x2="7321" y2="13817" gradientUnits="userSpaceOnUse">
<stop stop-color="#10D5FF"/>
<stop offset="1" stop-color="#007D7D"/>
</linearGradient>
<linearGradient id="paint1_linear_160_5" x1="7321" y1="825" x2="7321" y2="13817" gradientUnits="userSpaceOnUse">
<stop stop-color="#015466"/>
<stop offset="1" stop-color="#89EAFF"/>
</linearGradient>
<linearGradient id="paint2_linear_160_5" x1="7320.68" y1="1258" x2="7320.68" y2="14210" gradientUnits="userSpaceOnUse">
<stop stop-color="#B2FEFF"/>
<stop offset="1" stop-color="white" stop-opacity="0.47"/>
</linearGradient>
</defs>
</svg>
