<svg width="527" height="529" viewBox="0 0 527 529" fill="none" xmlns="http://www.w3.org/2000/svg">
<g style="mix-blend-mode:luminosity">
<circle cx="263" cy="263" r="263" fill="#D9D9D9"/>
<g opacity="0.5">
<path d="M496.716 265.186C496.716 394.161 392.161 498.716 263.186 498.716C134.211 498.716 29.6562 394.161 29.6562 265.186C29.6562 136.211 134.211 31.6562 263.186 31.6562C392.161 31.6562 496.716 136.211 496.716 265.186Z" fill="url(#paint0_linear_180_623)"/>
<path fill-rule="evenodd" clip-rule="evenodd" d="M526.377 265.188C526.377 410.543 408.543 528.377 263.188 528.377C117.833 528.377 0 410.543 0 265.188C0 119.833 117.833 2 263.188 2C408.543 2 526.377 119.833 526.377 265.188ZM263.188 498.718C392.163 498.718 496.718 394.163 496.718 265.188C496.718 136.213 392.163 31.6586 263.188 31.6586C134.213 31.6586 29.6586 136.213 29.6586 265.188C29.6586 394.163 134.213 498.718 263.188 498.718Z" fill="url(#paint1_linear_180_623)"/>
<path opacity="0.5" fill-rule="evenodd" clip-rule="evenodd" d="M456.677 134.397C457.922 136.235 459.142 138.091 460.335 139.966C461.754 149.032 463.093 158.522 464.288 168.321L427.657 205.641L456.677 134.397ZM347.189 47.2266C349.669 48.183 352.129 49.1805 354.567 50.2183L326.513 148.932L323.302 47.2266H347.189ZM86.9029 112.015C96.152 101.38 106.348 91.5901 117.359 82.7763L190.538 240.122L86.9029 112.015ZM364.072 475.864C369.702 473.163 375.207 470.243 380.576 467.115C369.235 442.048 344.013 424.62 314.7 424.62L314.703 424.619C274.771 424.619 242.436 456.961 242.436 496.893C242.436 497.202 242.438 497.508 242.442 497.812C244.693 498.011 246.954 498.177 249.223 498.311C260.651 473.572 285.6 456.532 314.702 456.532C333.861 456.532 351.202 463.833 364.072 475.864ZM179.408 483.244L148.193 429.983L222.951 437.929L171.517 328.648L280.963 408.125L268.407 224.008L343.163 393.556L418.519 304.145L412.961 433.95C422.482 420.861 430.788 406.423 440.71 388.559C446.165 378.738 450.7 368.148 454.432 356.989L451.316 357.069L461.475 331.221C469.972 292.363 470.823 249.009 468.077 208.108L390.948 251.007L378.759 112.154L313.745 251.649L231.207 47.2266H227.769L226.092 273.503L56.878 230.505L56.8672 230.852L166.883 398.855L88.5533 394.289C92.8548 401.967 96.8941 409.003 100.926 415.584L162.333 475.882C167.906 478.554 173.601 481.012 179.408 483.244Z" fill="url(#paint2_linear_180_623)"/>
<path d="M370.017 356.295C378.494 370.978 363.353 395.591 336.197 411.269C309.041 426.947 280.155 427.754 271.678 413.071C263.2 398.387 278.342 373.775 305.498 358.096C332.653 342.418 361.54 341.611 370.017 356.295Z" fill="#FCFCFC"/>
<path fill-rule="evenodd" clip-rule="evenodd" d="M366.443 383.392C372.561 373.448 374.221 363.637 369.99 356.31C365.76 348.983 356.434 345.515 344.763 345.841C333.093 346.166 319.087 350.286 305.513 358.123C291.939 365.96 281.369 376.029 275.252 385.973C269.134 395.917 267.474 405.728 271.704 413.055C275.935 420.383 285.261 423.851 296.932 423.525C308.602 423.199 322.607 419.079 336.182 411.242C349.756 403.405 360.326 393.336 366.443 383.392ZM336.197 411.269C363.353 395.591 378.494 370.978 370.017 356.295C361.54 341.611 332.653 342.418 305.498 358.096C278.342 373.775 263.2 398.387 271.678 413.071C280.155 427.754 309.041 426.947 336.197 411.269Z" fill="black"/>
<path d="M251.838 181.49C257.104 190.611 245.581 207.123 226.101 218.37C206.62 229.617 186.559 231.34 181.293 222.219C176.027 213.097 187.55 196.586 207.03 185.339C226.51 174.092 246.571 172.369 251.838 181.49Z" fill="#FCFCFC" fill-opacity="0.5"/>
<path fill-rule="evenodd" clip-rule="evenodd" d="M248.224 199.115C252.88 192.444 254.435 186.05 251.811 181.505C249.187 176.961 242.873 175.111 234.767 175.807C226.664 176.503 216.783 179.744 207.045 185.365C197.308 190.987 189.561 197.924 184.907 204.593C180.251 211.265 178.696 217.659 181.32 222.204C183.943 226.748 190.258 228.598 198.364 227.902C206.467 227.206 216.348 223.965 226.085 218.344C235.823 212.722 243.57 205.785 248.224 199.115ZM226.101 218.37C245.581 207.123 257.104 190.611 251.838 181.49C246.571 172.369 226.51 174.092 207.03 185.339C187.55 196.586 176.027 213.097 181.293 222.219C186.559 231.34 206.62 229.617 226.101 218.37Z" fill="black"/>
<path fill-rule="evenodd" clip-rule="evenodd" d="M300.508 269.137C300.602 267.123 300.211 265.277 299.282 263.669C294.016 254.547 273.476 256.547 253.405 268.135C233.333 279.723 221.332 296.512 226.598 305.633C227.526 307.241 228.93 308.504 230.721 309.429C231.163 300.018 242.221 286.945 258.754 277.4C275.286 267.855 292.137 264.815 300.508 269.137Z" fill="#FCFCFC" fill-opacity="0.75"/>
<path fill-rule="evenodd" clip-rule="evenodd" d="M300.479 269.088C300.565 267.098 300.173 265.274 299.256 263.684C296.632 259.14 290.198 257.358 281.898 258.166C273.601 258.974 263.453 262.369 253.42 268.162C243.387 273.954 235.373 281.045 230.525 287.827C225.675 294.611 224.001 301.074 226.625 305.618C227.542 307.207 228.926 308.458 230.693 309.379C230.932 304.674 233.809 299.065 238.68 293.444C243.569 287.804 250.469 282.147 258.738 277.373C267.007 272.599 275.356 269.451 282.686 268.038C289.989 266.63 296.285 266.942 300.479 269.088ZM300.509 269.104C300.598 267.103 300.206 265.268 299.282 263.669C294.016 254.547 273.476 256.547 253.405 268.135C233.333 279.723 221.332 296.512 226.598 305.633C227.521 307.232 228.914 308.489 230.691 309.413C230.701 309.418 230.711 309.424 230.721 309.429C230.722 309.417 230.722 309.406 230.723 309.395C231.19 299.987 242.241 286.933 258.754 277.4C275.266 267.866 292.097 264.822 300.478 269.122C300.488 269.127 300.498 269.132 300.508 269.137C300.508 269.126 300.509 269.115 300.509 269.104Z" fill="black"/>
<path fill-rule="evenodd" clip-rule="evenodd" d="M309.828 285.27C309.923 283.256 309.531 281.41 308.603 279.801C303.336 270.68 282.796 272.68 262.725 284.268C242.654 295.856 230.652 312.644 235.918 321.766C236.847 323.374 238.25 324.636 240.042 325.562C240.484 316.151 251.541 303.078 268.074 293.532C284.607 283.987 301.457 280.948 309.828 285.27Z" fill="#FCFCFC" fill-opacity="0.75"/>
<path fill-rule="evenodd" clip-rule="evenodd" d="M309.8 285.221C309.886 283.23 309.494 281.406 308.576 279.817C305.953 275.273 299.519 273.491 291.219 274.299C282.922 275.107 272.773 278.502 262.74 284.294C252.708 290.087 244.693 297.178 239.845 303.96C234.995 310.744 233.321 317.207 235.945 321.75C236.863 323.34 238.246 324.591 240.013 325.512C240.252 320.807 243.129 315.198 248.001 309.577C252.889 303.937 259.79 298.28 268.059 293.506C276.327 288.732 284.676 285.584 292.006 284.171C299.309 282.762 305.605 283.075 309.8 285.221ZM309.83 285.236C309.918 283.235 309.526 281.401 308.603 279.801C303.336 270.68 282.796 272.68 262.725 284.268C242.654 295.856 230.652 312.644 235.918 321.766C236.841 323.365 238.234 324.622 240.011 325.546C240.021 325.551 240.032 325.556 240.042 325.562C240.042 325.55 240.043 325.539 240.043 325.528C240.51 316.12 251.561 303.066 268.074 293.532C284.587 283.999 301.417 280.955 309.798 285.255C309.808 285.26 309.818 285.265 309.828 285.27C309.829 285.259 309.829 285.248 309.83 285.236Z" fill="black"/>
<path fill-rule="evenodd" clip-rule="evenodd" d="M354.588 337.276C354.979 335.091 354.745 333.153 353.817 331.545C348.551 322.424 322.91 327.368 296.547 342.589C270.184 357.81 253.082 377.543 258.348 386.664C259.276 388.272 260.838 389.443 262.925 390.198C264.749 379.99 280.181 364.391 301.896 351.854C323.611 339.316 344.836 333.751 354.588 337.276Z" fill="#FCFCFC" fill-opacity="0.75"/>
<path fill-rule="evenodd" clip-rule="evenodd" d="M354.564 337.235C354.945 335.07 354.709 333.152 353.79 331.56C352.48 329.291 349.901 327.893 346.349 327.313C342.798 326.732 338.279 326.97 333.099 327.969C322.74 329.967 309.742 335.006 296.562 342.616C283.383 350.225 272.52 358.961 265.61 366.934C262.155 370.92 259.689 374.715 258.416 378.081C257.143 381.447 257.064 384.38 258.375 386.649C259.293 388.24 260.836 389.403 262.902 390.156C263.829 385.048 268.144 378.605 274.93 371.877C281.732 365.132 291.021 358.097 301.881 351.827C312.74 345.557 323.478 341.03 332.72 338.512C341.94 336 349.677 335.484 354.564 337.235ZM354.594 337.245C354.976 335.073 354.741 333.146 353.817 331.545C348.551 322.424 322.91 327.368 296.547 342.589C270.184 357.81 253.082 377.543 258.348 386.664C259.272 388.265 260.823 389.432 262.896 390.187C262.906 390.191 262.916 390.194 262.925 390.198C262.927 390.188 262.929 390.177 262.931 390.167C264.78 379.958 280.203 364.378 301.896 351.854C323.589 339.329 344.794 333.762 354.559 337.266C354.569 337.269 354.579 337.273 354.588 337.276C354.59 337.266 354.592 337.256 354.594 337.245Z" fill="black"/>
<path fill-rule="evenodd" clip-rule="evenodd" d="M345.299 321.182C345.69 318.997 345.456 317.059 344.528 315.451C339.262 306.33 313.621 311.274 287.258 326.495C260.895 341.716 243.793 361.449 249.059 370.57C249.987 372.179 251.549 373.35 253.636 374.104C255.46 363.896 270.892 348.297 292.607 335.76C314.322 323.223 335.547 317.657 345.299 321.182Z" fill="#FCFCFC" fill-opacity="0.75"/>
<path fill-rule="evenodd" clip-rule="evenodd" d="M345.275 321.141C345.656 318.976 345.42 317.058 344.501 315.467C343.191 313.198 340.612 311.799 337.06 311.219C333.509 310.638 328.99 310.876 323.81 311.875C313.45 313.873 300.453 318.913 287.273 326.522C274.094 334.131 263.231 342.867 256.321 350.84C252.866 354.827 250.4 358.621 249.127 361.987C247.854 365.353 247.775 368.286 249.085 370.555C250.004 372.147 251.547 373.31 253.613 374.063C254.54 368.954 258.855 362.511 265.641 355.783C272.443 349.038 281.732 342.003 292.592 335.733C303.451 329.463 314.189 324.937 323.431 322.418C332.65 319.906 340.388 319.39 345.275 321.141ZM345.305 321.152C345.687 318.979 345.452 317.052 344.528 315.451C339.262 306.33 313.621 311.274 287.258 326.495C260.895 341.716 243.793 361.449 249.059 370.57C249.983 372.171 251.534 373.339 253.607 374.093C253.617 374.097 253.627 374.1 253.636 374.104C253.638 374.094 253.64 374.084 253.642 374.073C255.491 363.865 270.914 348.284 292.607 335.76C314.3 323.235 335.505 317.669 345.27 321.172C345.28 321.175 345.29 321.179 345.299 321.182C345.301 321.172 345.303 321.162 345.305 321.152Z" fill="black"/>
<path fill-rule="evenodd" clip-rule="evenodd" d="M283.729 214.534C284.119 212.349 283.886 210.411 282.958 208.803C277.691 199.681 252.051 204.626 225.688 219.847C199.325 235.067 182.222 254.801 187.489 263.922C188.417 265.53 189.979 266.701 192.066 267.456C193.889 257.247 209.321 241.649 231.037 229.111C252.752 216.574 273.977 211.009 283.729 214.534Z" fill="#FCFCFC" fill-opacity="0.75"/>
<path fill-rule="evenodd" clip-rule="evenodd" d="M283.705 214.493C284.085 212.328 283.85 210.41 282.931 208.818C281.621 206.549 279.042 205.151 275.49 204.57C271.938 203.99 267.42 204.228 262.24 205.227C251.88 207.224 238.882 212.264 225.703 219.873C212.524 227.482 201.66 236.219 194.75 244.192C191.295 248.178 188.83 251.973 187.557 255.338C186.284 258.705 186.205 261.638 187.515 263.907C188.434 265.498 189.977 266.661 192.042 267.414C192.969 262.306 197.285 255.863 204.07 249.135C210.873 242.39 220.162 235.354 231.021 229.085C241.881 222.815 252.618 218.288 261.861 215.77C271.08 213.257 278.818 212.742 283.705 214.493ZM283.734 214.503C284.117 212.331 283.882 210.403 282.958 208.803C277.691 199.681 252.051 204.626 225.688 219.847C199.325 235.067 182.222 254.801 187.489 263.922C188.413 265.523 189.964 266.69 192.037 267.445C192.046 267.448 192.056 267.452 192.066 267.456C192.068 267.445 192.07 267.435 192.072 267.425C193.92 257.216 209.343 241.636 231.037 229.111C252.73 216.587 273.934 211.02 283.7 214.523C283.709 214.527 283.719 214.53 283.729 214.534C283.731 214.524 283.733 214.514 283.734 214.503Z" fill="black"/>
<path d="M219.402 154.025C222.228 158.919 214.301 168.786 201.696 176.063C189.092 183.341 176.583 185.272 173.757 180.378C170.931 175.483 178.859 165.616 191.463 158.339C204.068 151.062 216.576 149.13 219.402 154.025Z" fill="#FCFCFC" fill-opacity="0.5"/>
<path fill-rule="evenodd" clip-rule="evenodd" d="M219.571 158.5C220.112 156.778 220.076 155.254 219.375 154.04C218.675 152.826 217.372 152.033 215.61 151.641C213.848 151.248 211.63 151.258 209.104 151.648C204.053 152.428 197.778 154.729 191.478 158.366C185.179 162.003 180.049 166.287 176.848 170.271C175.247 172.264 174.13 174.18 173.588 175.902C173.047 177.624 173.083 179.149 173.784 180.362C174.484 181.576 175.787 182.369 177.549 182.762C179.311 183.154 181.529 183.145 184.055 182.754C189.106 181.974 195.381 179.674 201.681 176.037C207.981 172.399 213.11 168.116 216.312 164.131C217.912 162.139 219.03 160.223 219.571 158.5ZM201.696 176.063C214.301 168.786 222.228 158.919 219.402 154.025C216.576 149.13 204.068 151.062 191.463 158.339C178.859 165.616 170.931 175.483 173.757 180.378C176.583 185.272 189.092 183.341 201.696 176.063Z" fill="black"/>
<path d="M199.871 120.189C202.697 125.083 194.769 134.95 182.165 142.227C169.56 149.505 157.052 151.436 154.226 146.542C151.4 141.647 159.327 131.78 171.932 124.503C184.536 117.226 197.045 115.294 199.871 120.189Z" fill="white"/>
<path fill-rule="evenodd" clip-rule="evenodd" d="M200.04 124.664C200.581 122.942 200.545 121.418 199.844 120.204C199.144 118.99 197.841 118.197 196.079 117.805C194.317 117.412 192.099 117.422 189.573 117.812C184.522 118.592 178.247 120.893 171.947 124.53C165.647 128.167 160.518 132.451 157.316 136.435C155.716 138.428 154.598 140.344 154.057 142.066C153.516 143.788 153.552 145.313 154.253 146.526C154.953 147.74 156.256 148.533 158.018 148.926C159.78 149.318 161.998 149.309 164.524 148.919C169.575 148.139 175.85 145.838 182.15 142.201C188.449 138.564 193.579 134.28 196.78 130.295C198.381 128.303 199.498 126.387 200.04 124.664ZM182.165 142.227C194.769 134.95 202.697 125.083 199.871 120.189C197.045 115.294 184.536 117.226 171.932 124.503C159.327 131.78 151.4 141.647 154.226 146.542C157.052 151.436 169.56 149.505 182.165 142.227Z" fill="black"/>
<path fill-rule="evenodd" clip-rule="evenodd" d="M170.127 121.92C184.178 113.808 198.837 112.895 202.87 119.88L221.647 152.403C223.553 155.704 222.745 160.179 219.878 164.837L223.628 171.333C247.876 167.531 273.055 178.649 286.061 201.177L292.835 212.91C300.087 225.47 302.375 239.535 300.308 252.832L315.492 279.131C327.091 282.509 337.454 290.192 343.971 301.48L363.304 334.965C376.718 358.2 368.758 387.91 345.523 401.324L322.537 414.595C299.302 428.009 269.592 420.049 256.178 396.814L236.846 363.33C230.336 352.055 228.86 339.255 231.72 327.532L216.503 301.175C203.972 296.313 192.953 287.305 185.709 274.759L178.936 263.026C165.525 239.799 169.089 211.43 185.777 192.282L182.419 186.464C176.952 186.618 172.672 185.081 170.766 181.779L151.989 149.256C147.956 142.271 156.077 130.033 170.127 121.92Z" fill="#0097B8" fill-opacity="0.25"/>
<path fill-rule="evenodd" clip-rule="evenodd" d="M190.256 115.204C196.185 114.834 200.874 116.352 202.9 119.86L221.677 152.383C223.589 155.696 222.778 160.177 219.917 164.833L223.648 171.295C247.9 167.5 273.082 178.625 286.091 201.158L292.865 212.89C300.118 225.454 302.408 239.521 300.343 252.821L315.516 279.101C327.117 282.483 337.482 290.169 344.001 301.461L363.333 334.945C376.756 358.195 368.791 387.923 345.541 401.346L322.555 414.617C299.306 428.04 269.577 420.074 256.154 396.825L236.822 363.341C230.31 352.062 228.832 339.259 231.69 327.532L216.485 301.195C203.952 296.33 192.931 287.319 185.686 274.77L178.912 263.037C165.499 239.805 169.058 211.431 185.743 192.274L182.404 186.491C176.942 186.641 172.655 185.103 170.742 181.79L151.965 149.268C149.94 145.759 150.97 140.94 154.254 135.99C157.54 131.038 163.086 125.947 170.115 121.889C177.143 117.832 184.325 115.573 190.256 115.204ZM182.422 186.46L185.78 192.277C169.092 211.425 165.528 239.795 178.939 263.022L185.712 274.754C192.956 287.301 203.975 296.308 216.506 301.171L231.723 327.528C228.863 339.25 230.339 352.05 236.849 363.325L256.181 396.81C269.595 420.044 299.305 428.005 322.54 414.591L345.526 401.32C368.761 387.905 376.721 358.195 363.307 334.961L343.974 301.476C337.457 290.188 327.094 282.505 315.495 279.127L300.311 252.827C302.378 239.531 300.09 225.466 292.838 212.905L286.064 201.173C273.058 178.645 247.879 167.526 223.631 171.328L219.881 164.833C222.748 160.175 223.556 155.7 221.65 152.399L202.873 119.876C198.84 112.89 184.181 113.804 170.13 121.916C156.08 130.028 147.959 142.267 151.992 149.252L170.769 181.775C172.675 185.076 176.954 186.613 182.422 186.46Z" fill="black"/>
<path fill-rule="evenodd" clip-rule="evenodd" d="M189.602 104.736C196.749 104.29 206.886 105.787 211.985 114.618L230.762 147.141C233.252 151.453 233.616 155.941 232.894 160.076C257.703 160.022 281.869 172.867 295.176 195.916L301.95 207.648C309.756 221.169 312.657 236.201 311.196 250.641L322.612 270.414C335.008 275.046 345.951 283.86 353.086 296.219L372.419 329.704C388.739 357.972 379.054 394.118 350.786 410.438L327.8 423.709C299.532 440.03 263.385 430.345 247.065 402.077L227.733 368.592C220.605 356.247 218.44 342.381 220.614 329.343L209.161 309.505C195.944 303.547 184.394 293.527 176.596 280.021L169.823 268.289C156.211 244.713 157.524 216.638 170.799 194.967C167.232 193.47 163.933 190.991 161.653 187.042L142.876 154.519C137.776 145.687 141.549 136.16 145.508 130.193C149.867 123.624 156.74 117.499 164.866 112.807C172.992 108.115 181.734 105.226 189.602 104.736ZM177.277 186.027C174.304 185.361 172.021 183.953 170.767 181.78L151.989 149.257C147.957 142.272 156.077 130.033 170.128 121.921C184.179 113.809 198.838 112.895 202.871 119.88L221.648 152.403C223.554 155.705 222.745 160.18 219.879 164.838L223.629 171.333C247.876 167.531 273.056 178.65 286.062 201.178L292.836 212.91C300.088 225.471 302.376 239.535 300.309 252.832L315.493 279.132C327.092 282.51 337.455 290.193 343.972 301.481L363.305 334.966C376.719 358.2 368.758 387.91 345.524 401.324L322.538 414.595C299.303 428.01 269.593 420.049 256.179 396.815L236.846 363.33C230.337 352.055 228.861 339.255 231.721 327.532L216.504 301.175C203.973 296.313 192.954 287.306 185.71 274.759L178.936 263.027C166.588 241.639 168.632 215.89 182.063 196.997C182.269 196.706 182.479 196.417 182.691 196.13C183.664 194.811 184.693 193.527 185.778 192.282L182.42 186.465C181.191 186.499 180.023 186.448 178.927 186.311C178.357 186.24 177.806 186.145 177.277 186.027Z" fill="#D6FAFF"/>
<path fill-rule="evenodd" clip-rule="evenodd" d="M219.846 164.833L219.856 164.817C222.72 160.162 223.522 155.701 221.625 152.414L202.847 119.891C200.84 116.414 196.183 114.896 190.261 115.265C184.341 115.634 177.168 117.889 170.146 121.943C163.124 125.997 157.585 131.082 154.306 136.024C151.026 140.968 150.012 145.76 152.019 149.237L170.796 181.76C172.045 183.923 174.319 185.328 177.287 185.992C177.815 186.11 178.364 186.205 178.934 186.276C180.028 186.413 181.195 186.464 182.422 186.43L182.44 186.429L185.819 192.281L185.804 192.298C184.72 193.542 183.691 194.825 182.718 196.144C182.507 196.431 182.297 196.72 182.091 197.01C168.666 215.894 166.624 241.63 178.966 263.007L185.74 274.739C192.98 287.279 203.993 296.282 216.518 301.142L216.528 301.146L231.757 327.523L231.754 327.535C228.895 339.251 230.37 352.042 236.876 363.31L256.208 396.795C269.614 420.015 299.305 427.97 322.525 414.564L345.511 401.293C368.731 387.887 376.687 358.196 363.281 334.977L343.949 301.492C337.435 290.211 327.079 282.533 315.487 279.157L315.476 279.153L300.28 252.834L300.282 252.823C302.348 239.533 300.061 225.476 292.812 212.921L286.039 201.189C273.039 178.672 247.872 167.559 223.637 171.359L223.616 171.362L219.846 164.833ZM189.603 104.701C196.753 104.255 206.906 105.751 212.015 114.599L230.792 147.122C233.278 151.429 233.648 155.911 232.934 160.041C257.74 159.999 281.899 172.848 295.206 195.896L301.979 207.628C309.787 221.152 312.689 236.187 311.231 250.63L322.636 270.384C335.035 275.02 345.979 283.837 353.116 296.199L372.448 329.684C388.777 357.967 379.087 394.132 350.804 410.461L327.818 423.732C299.535 440.061 263.37 430.37 247.041 402.088L227.709 368.603C220.58 356.255 218.412 342.386 220.585 329.344L209.142 309.524C195.923 303.564 184.371 293.54 176.572 280.032L169.799 268.3C156.188 244.725 157.494 216.653 170.757 194.977C167.197 193.477 163.906 190.996 161.629 187.053L142.852 154.53C137.744 145.682 141.525 136.141 145.486 130.172C149.848 123.598 156.724 117.469 164.854 112.776C172.983 108.082 181.729 105.191 189.603 104.701ZM170.773 194.951C167.217 193.453 163.93 190.976 161.656 187.037L142.879 154.514C137.779 145.683 141.552 136.155 145.511 130.189C149.87 123.62 156.743 117.494 164.869 112.803C172.995 108.111 181.737 105.222 189.605 104.731C196.752 104.286 206.889 105.782 211.988 114.614L230.765 147.137C233.248 151.438 233.618 155.915 232.902 160.041C232.901 160.051 232.899 160.062 232.897 160.072C232.907 160.072 232.918 160.072 232.928 160.072C257.726 160.028 281.877 172.872 295.179 195.911L301.953 207.644C309.759 221.165 312.66 236.197 311.199 250.637L322.615 270.409C335.011 275.041 345.954 283.856 353.089 296.215L372.421 329.699C388.742 357.967 379.057 394.113 350.789 410.434L327.803 423.705C299.535 440.025 263.388 430.34 247.068 402.072L227.735 368.587C220.608 356.243 218.443 342.377 220.617 329.338L209.164 309.5C195.947 303.543 184.397 293.522 176.599 280.017L169.825 268.284C156.22 244.719 157.526 216.656 170.785 194.989C170.791 194.981 170.796 194.972 170.802 194.963C170.792 194.959 170.783 194.955 170.773 194.951ZM223.632 171.329L219.882 164.833C222.748 160.175 223.557 155.7 221.651 152.399L202.874 119.876C198.841 112.891 184.182 113.804 170.131 121.916C156.08 130.029 147.959 142.267 151.992 149.253L170.77 181.775C172.024 183.948 174.307 185.357 177.28 186.022C177.809 186.141 178.36 186.236 178.93 186.307C180.025 186.444 181.194 186.495 182.422 186.46L185.781 192.278C184.696 193.523 183.667 194.806 182.694 196.125C182.482 196.413 182.272 196.702 182.066 196.992C168.635 215.886 166.591 241.634 178.939 263.023L185.713 274.755C192.957 287.301 203.976 296.309 216.507 301.171L231.724 327.528C228.864 339.251 230.34 352.051 236.849 363.326L256.182 396.81C269.596 420.045 299.306 428.006 322.541 414.591L345.527 401.32C368.761 387.906 376.722 358.196 363.308 334.961L343.975 301.476C337.458 290.188 327.095 282.505 315.496 279.127L300.312 252.828C302.379 239.531 300.091 225.466 292.839 212.906L286.065 201.173C273.059 178.645 247.879 167.527 223.632 171.329Z" fill="black"/>
<path fill-rule="evenodd" clip-rule="evenodd" d="M329.838 400.712C349.861 389.152 361.979 372.657 356.906 363.869C355.025 360.612 351.046 358.871 345.763 358.558C349.598 358.952 352.434 360.31 353.814 362.701C358.181 370.265 346.307 385.296 327.293 396.274C308.278 407.252 289.324 410.02 284.956 402.456C283.531 399.987 283.836 396.723 285.554 393.065C283.024 397.938 282.469 402.392 284.397 405.732C289.471 414.52 309.816 412.272 329.838 400.712ZM309.986 369.76C310.478 369.465 310.975 369.172 311.478 368.882C311.793 368.7 312.109 368.52 312.424 368.342C312.105 368.522 311.785 368.704 311.465 368.889C310.967 369.177 310.474 369.467 309.986 369.76Z" fill="#52BCD2"/>
<path fill-rule="evenodd" clip-rule="evenodd" d="M357.603 371.7C358.337 368.743 358.142 366.073 356.879 363.885C355.15 360.891 351.639 359.178 346.959 358.687C350.196 359.224 352.601 360.539 353.841 362.685C354.938 364.586 355.014 366.953 354.216 369.603C353.418 372.252 351.747 375.187 349.346 378.226C344.543 384.306 336.818 390.81 327.308 396.301C317.798 401.791 308.302 405.229 300.636 406.349C296.803 406.908 293.426 406.888 290.733 406.255C288.04 405.621 286.027 404.372 284.93 402.471C283.654 400.261 283.759 397.421 285.013 394.239C282.981 398.652 282.657 402.656 284.424 405.716C285.687 407.905 287.902 409.408 290.831 410.251C293.759 411.094 297.399 411.276 301.509 410.822C309.727 409.914 319.814 406.464 329.823 400.685C339.831 394.907 347.863 387.896 352.758 381.233C355.206 377.901 356.868 374.658 357.603 371.7ZM285.238 393.692C282.981 398.32 282.552 402.536 284.397 405.732C289.471 414.52 309.816 412.272 329.838 400.712C349.861 389.152 361.979 372.657 356.906 363.869C355.103 360.746 351.372 359.017 346.412 358.604C346.198 358.586 345.981 358.571 345.763 358.558C345.981 358.58 346.196 358.606 346.408 358.635C349.916 359.11 352.513 360.447 353.814 362.701C358.181 370.265 346.307 385.296 327.293 396.274C308.278 407.252 289.324 410.02 284.956 402.456C283.615 400.132 283.806 397.104 285.266 393.705C285.357 393.493 285.453 393.28 285.554 393.065C285.445 393.275 285.339 393.484 285.238 393.692ZM309.986 369.76C310.474 369.467 310.967 369.177 311.465 368.889C311.469 368.887 311.473 368.884 311.478 368.882C311.793 368.7 312.109 368.52 312.424 368.342C312.109 368.52 311.793 368.7 311.478 368.882C311.474 368.885 311.469 368.887 311.465 368.889C310.967 369.177 310.474 369.467 309.986 369.76Z" fill="black"/>
<path fill-rule="evenodd" clip-rule="evenodd" d="M182.602 258.788C168.411 234.207 176.833 202.777 201.413 188.585L212.327 182.284C212.345 182.274 212.363 182.263 212.381 182.253L208.311 184.603C183.731 198.794 175.309 230.225 189.5 254.805L196.019 266.095C202.608 277.508 212.914 285.437 224.525 289.237C223.506 291.017 222.695 292.768 222.108 294.466C208.693 291.378 196.546 282.94 189.12 270.078L182.602 258.788Z" fill="white" fill-opacity="0.5"/>
<path fill-rule="evenodd" clip-rule="evenodd" d="M201.428 188.612C176.863 202.795 168.446 234.207 182.629 258.772L189.147 270.062C196.564 282.908 208.692 291.338 222.088 294.43C222.672 292.749 223.474 291.016 224.479 289.255C212.876 285.448 202.578 277.518 195.992 266.11L189.474 254.82C175.699 230.962 183.216 200.654 206.13 185.898L201.428 188.612ZM206.773 185.526C207.278 185.211 207.791 184.903 208.311 184.603L212.381 182.253C212.363 182.263 212.345 182.274 212.327 182.284L201.413 188.585C176.833 202.777 168.411 234.207 182.602 258.788L189.12 270.078C196.546 282.94 208.693 291.378 222.108 294.466C222.692 292.777 223.498 291.035 224.509 289.264C224.514 289.255 224.52 289.246 224.525 289.237C224.515 289.234 224.505 289.231 224.495 289.227C212.896 285.424 202.602 277.498 196.019 266.095L189.5 254.805C175.609 230.745 183.385 200.121 206.773 185.526Z" fill="black"/>
<path fill-rule="evenodd" clip-rule="evenodd" d="M241.159 360.221C230.461 341.692 236.809 318 255.338 307.302C256.116 306.853 256.904 306.434 257.699 306.044C240.938 317.307 235.542 339.796 245.791 357.547L265.582 391.826C265.339 395.502 265.748 399.166 266.861 402.665C264.839 400.518 263.031 398.105 261.493 395.44L241.159 360.221Z" fill="white" fill-opacity="0.5"/>
<path fill-rule="evenodd" clip-rule="evenodd" d="M255.353 307.329C236.84 318.018 230.496 341.692 241.185 360.205L261.519 395.425C263.033 398.047 264.808 400.425 266.791 402.545C265.708 399.084 265.312 395.464 265.551 391.834L245.764 357.562C235.584 339.93 240.828 317.626 257.309 306.272C256.652 306.604 255.999 306.956 255.353 307.329ZM257.512 306.171C240.898 317.476 235.581 339.863 245.791 357.547L265.582 391.826C265.341 395.478 265.742 399.119 266.839 402.597C266.847 402.62 266.854 402.642 266.861 402.665C266.845 402.648 266.828 402.63 266.812 402.613C264.81 400.48 263.019 398.084 261.493 395.44L241.159 360.221C230.461 341.692 236.809 318 255.338 307.302C256.05 306.891 256.77 306.505 257.496 306.144C257.564 306.111 257.632 306.077 257.699 306.044C257.637 306.086 257.574 306.128 257.512 306.171Z" fill="black"/>
</g>
</g>
<path d="M509 427C509 460.689 481.689 488 448 488C414.311 488 387 460.689 387 427C387 393.311 414.311 366 448 366C481.689 366 509 393.311 509 427Z" fill="white"/>
<path fill-rule="evenodd" clip-rule="evenodd" d="M526 427C526 470.078 491.078 505 448 505C404.922 505 370 470.078 370 427C370 383.922 404.922 349 448 349C491.078 349 526 383.922 526 427ZM448 488C481.689 488 509 460.689 509 427C509 393.311 481.689 366 448 366C414.311 366 387 393.311 387 427C387 460.689 414.311 488 448 488Z" fill="#7C7C7C"/>
<path d="M426.896 418.044V411.017C426.896 405.427 429.12 400.065 433.078 396.112C437.036 392.158 442.404 389.938 448.002 389.938C453.6 389.938 458.968 392.158 462.926 396.112C466.884 400.065 469.107 405.427 469.107 411.017V418.044H472.625C474.491 418.044 476.28 418.784 477.6 420.102C478.919 421.42 479.66 423.207 479.66 425.07V453.177C479.66 455.04 478.919 456.828 477.6 458.145C476.28 459.463 474.491 460.203 472.625 460.203H423.379C421.513 460.203 419.724 459.463 418.404 458.145C417.085 456.828 416.344 455.04 416.344 453.177V425.07C416.344 421.206 419.51 418.044 423.379 418.044H426.896ZM444.484 441.688V449.663H451.52V441.688C452.861 440.915 453.909 439.721 454.502 438.292C455.094 436.863 455.198 435.279 454.797 433.784C454.397 432.29 453.513 430.97 452.285 430.029C451.056 429.087 449.551 428.576 448.002 428.576C446.453 428.576 444.948 429.087 443.719 430.029C442.491 430.97 441.607 432.29 441.207 433.784C440.806 435.279 440.91 436.863 441.502 438.292C442.095 439.721 443.143 440.915 444.484 441.688ZM437.449 411.017V418.044H458.555V411.017C458.555 408.222 457.443 405.541 455.464 403.564C453.485 401.588 450.801 400.477 448.002 400.477C445.203 400.477 442.519 401.588 440.54 403.564C438.561 405.541 437.449 408.222 437.449 411.017Z" fill="#7C7C7C"/>
<defs>
<linearGradient id="paint0_linear_180_623" x1="263.186" y1="31.6562" x2="263.186" y2="498.716" gradientUnits="userSpaceOnUse">
<stop stop-color="#10D5FF"/>
<stop offset="1" stop-color="#007D7D"/>
</linearGradient>
<linearGradient id="paint1_linear_180_623" x1="263.188" y1="31.6586" x2="263.188" y2="498.718" gradientUnits="userSpaceOnUse">
<stop stop-color="#015466"/>
<stop offset="1" stop-color="#89EAFF"/>
</linearGradient>
<linearGradient id="paint2_linear_180_623" x1="263.172" y1="47.2266" x2="263.172" y2="512.848" gradientUnits="userSpaceOnUse">
<stop stop-color="#B2FEFF"/>
<stop offset="1" stop-color="white" stop-opacity="0.47"/>
</linearGradient>
</defs>
</svg>
