<svg width="6512" height="3537" viewBox="0 0 6512 3537" fill="none" xmlns="http://www.w3.org/2000/svg">
<path fill-rule="evenodd" clip-rule="evenodd" d="M3811.88 171.622C3993.24 -36.6145 4309.08 -58.4 4517.31 122.962L6196.03 1585.04C6210.71 1591.12 6229.77 1599.77 6250.69 1611.37C6251.08 1611.59 6251.51 1611.83 6252 1612.1C6270.79 1622.47 6360.61 1672.03 6429.3 1777.08C6471.26 1841.25 6518.74 1947.37 6510.1 2083.32C6501.29 2222.16 6438.23 2325.84 6379.81 2389.76C6287.22 2491.08 6179.36 2524.26 6158.33 2530.73C6157.72 2530.92 6157.18 2531.08 6156.72 2531.23C6151.34 2532.9 6146.03 2534.46 6140.79 2535.9L4429.34 3474.42C4187.21 3607.19 3883.29 3518.55 3750.52 3276.42C3617.74 3034.29 3706.39 2730.37 3948.51 2597.6L4434.63 2331.03C4410.2 2328.09 4385.39 2325.12 4360.2 2322.12C2892.9 2146.92 1242.96 2397.2 613.054 2543.26C344.049 2605.64 75.4109 2438.14 13.0343 2169.13C-49.3422 1900.13 118.163 1631.49 387.169 1569.11C1066.69 1411.54 2774.46 1148.14 4364.95 1316.36L3860.54 877.052C3652.3 695.69 3630.52 379.858 3811.88 171.622Z" fill="white"/>
</svg>
