<svg width="28672" height="24695" viewBox="0 0 28672 24695" fill="none" xmlns="http://www.w3.org/2000/svg">
<path fill-rule="evenodd" clip-rule="evenodd" d="M26658.4 0H23365.5H17902.4H10581.4H5457.46H1825.38L1782.46 1437.36L2709.8 1714.63L2561.35 2351.47L1762.3 2112.56L1752.44 2442.64L1929.61 2398.95L2705.06 2811.76L2423.97 3055.18L1740.26 2850.76L1721.12 3491.69L1958.67 3422.34L2157.28 3653.24L1888.82 4019.72L1705.19 4025.24L1683.72 4744.07L1908.8 4915.36H2418.19L2794.43 5489.37L2655.95 5926.71L2178.69 6063.37L2018.73 6637.38L2166.53 7266.05L1987.29 7758.06L1842.39 8168.06L2244.33 8851.41L1793.67 9671.41L1857.93 9944.75L2395.23 9835.42L2668.45 10655.4L2309.07 11065.4H1558.39L1611.59 12432.1L2122.98 12896.8L2600.93 14017.5L2132.1 14646.1L1657.94 15138.1L1687.65 16176.8L2322.46 16368.2L2761.85 17324.8C2574.84 17479.7 2167.6 17762.2 2034.66 17652.8C1901.72 17543.5 1675.28 18062.8 1578.68 18336.2L1944.96 19894.2H2561.59L2617.01 21042.2L1576.74 21178.9L1414.56 21971.6L1773.52 22928.2L2399.69 23310.9L1838.68 23775.6L1102.45 24210.2L1088 24694.2H12096.9H16387H27395.8L27381.4 24210.2L26645.1 23775.6L26084.1 23310.9L26710.3 22928.2L27069.3 21971.6L26907.1 21178.9L25866.8 21042.2L25922.2 19894.2H26538.9L26905.1 18336.2C26808.5 18062.8 26582.1 17543.5 26449.2 17652.8C26316.2 17762.2 25909 17479.7 25722 17324.8L26161.4 16368.2L26796.2 16176.8L26825.9 15138.1L26351.7 14646.1L25882.9 14017.5L26360.8 12896.8L26872.2 12432.1L26925.4 11065.4H26174.7L25815.4 10655.4L26088.6 9835.42L26625.9 9944.75L26690.1 9671.41L26239.5 8851.41L26641.4 8168.06L26496.5 7758.06L26317.3 7266.05L26465.1 6637.38L26305.1 6063.37L25827.9 5926.71L25689.4 5489.37L26065.6 4915.36H26575L26800.1 4744.06L26778.6 4025.24L26595 4019.72L26326.5 3653.24L26525.1 3422.34L26762.7 3491.69L26743.6 2850.76L26059.9 3055.18L25778.8 2811.76L26554.2 2398.95L26731.4 2442.64L26721.5 2112.56L25922.5 2351.47L25774 1714.63L26701.4 1437.37L26658.4 0Z" fill="url(#paint0_linear_73_220)"/>
<defs>
<linearGradient id="paint0_linear_73_220" x1="1087.88" y1="11180" x2="27396" y2="10980.9" gradientUnits="userSpaceOnUse">
<stop stop-color="#ECAF54"/>
<stop offset="0.26" stop-color="#EFD6B2"/>
<stop offset="0.74" stop-color="#EFD6B2"/>
<stop offset="1" stop-color="#ECAF54"/>
</linearGradient>
</defs>
</svg>
