<svg width="2341" height="1254" viewBox="0 0 2341 1254" fill="none" xmlns="http://www.w3.org/2000/svg">
<rect y="184.96" width="2341" height="1068.47" rx="434" fill="#004765"/>
<rect x="29.7773" y="184.96" width="2281.79" height="955.351" rx="434" fill="#1889BA"/>
<rect x="29.7773" width="2281.79" height="955.351" rx="434" fill="#3BC4FF"/>
<path d="M1501.99 694.5C1487.65 694.5 1471.99 693.667 1454.99 692C1437.99 690.667 1421.49 688.667 1405.49 686C1389.82 683.667 1375.49 681 1362.49 678C1349.49 675 1339.82 672 1333.49 669C1330.49 659 1328.49 646.833 1327.49 632.5C1326.49 618.167 1326.15 604 1326.49 590C1327.15 576 1328.32 563.333 1329.99 552C1331.99 540.333 1334.49 532.333 1337.49 528C1345.49 530 1355.32 532.5 1366.99 535.5C1378.99 538.167 1391.65 540.667 1404.99 543C1418.32 545.333 1431.82 547.333 1445.49 549C1459.15 550.667 1471.65 551.5 1482.99 551.5C1507.65 551.5 1519.99 547.333 1519.99 539C1519.99 533.333 1514.32 528 1502.99 523C1491.99 518 1478.32 512.333 1461.99 506C1448.65 501 1434.49 494.833 1419.49 487.5C1404.82 480.167 1391.15 471.333 1378.49 461C1366.15 450.667 1355.82 439 1347.49 426C1339.49 412.667 1335.49 397.5 1335.49 380.5C1335.49 361.5 1338.82 344.667 1345.49 330C1352.15 315.333 1364.65 303.167 1382.99 293.5C1401.65 283.833 1427.32 276.5 1459.99 271.5C1492.65 266.5 1534.82 264 1586.49 264C1595.82 264 1605.49 264.333 1615.49 265C1625.49 265.333 1634.99 266 1643.99 267C1653.32 268 1661.65 269.167 1668.99 270.5C1676.32 271.5 1681.82 272.667 1685.49 274C1687.49 277 1689.15 282 1690.49 289C1692.15 295.667 1693.49 303.5 1694.49 312.5C1695.82 321.5 1696.65 331.167 1696.99 341.5C1697.65 351.5 1697.99 361.333 1697.99 371C1697.99 380.333 1697.65 389 1696.99 397C1696.32 405 1695.15 411.333 1693.49 416C1681.15 410.333 1667.32 406.167 1651.99 403.5C1636.99 400.5 1619.32 399 1598.99 399C1576.99 399 1560.15 400.5 1548.49 403.5C1537.15 406.5 1531.49 410.833 1531.49 416.5C1531.49 422.167 1536.99 428 1547.99 434C1559.32 440 1572.99 446.5 1588.99 453.5C1601.32 458.833 1614.15 465.333 1627.49 473C1640.82 480.667 1652.99 489.5 1663.99 499.5C1675.32 509.167 1684.49 520.167 1691.49 532.5C1698.82 544.5 1702.49 557.667 1702.49 572C1702.49 653.667 1635.65 694.5 1501.99 694.5Z" fill="white"/>
<path d="M1286.61 565.5C1290.28 571.167 1293.11 579.167 1295.11 589.5C1297.44 599.5 1298.94 610.167 1299.61 621.5C1300.28 632.834 1300.28 644 1299.61 655C1298.94 666 1297.28 675.167 1294.61 682.5C1285.28 686.167 1274.44 688.834 1262.11 690.5C1250.11 692.5 1237.61 693.834 1224.61 694.5C1211.61 695.5 1198.78 696 1186.11 696C1173.44 696.334 1161.61 696.5 1150.61 696.5C1113.61 696.5 1084.61 695.834 1063.61 694.5C1042.94 693.167 1027.61 689.667 1017.61 684C1007.61 678.667 1001.44 670.334 999.109 659C996.776 647.667 995.609 631.834 995.609 611.5C995.609 595.834 995.443 579.667 995.109 563C995.109 546 994.943 529.834 994.609 514.5C993.609 483.834 993.109 453.167 993.109 422.5C993.109 421.167 992.943 419.667 992.609 418C992.609 416.334 992.609 414.334 992.609 412C992.276 408.334 992.109 404.334 992.109 400C992.109 395.334 992.109 390.667 992.109 386C992.109 377 991.943 367 991.609 356C991.609 344.667 992.109 334 993.109 324C994.443 313.667 996.609 304.5 999.609 296.5C1002.94 288.5 1007.78 283.167 1014.11 280.5C1024.44 276.167 1035.78 273 1048.11 271C1060.78 269 1073.61 267.667 1086.61 267C1099.61 266.333 1112.28 266.167 1124.61 266.5C1137.28 266.5 1148.78 266.5 1159.11 266.5C1167.78 266.5 1177.28 266.833 1187.61 267.5C1198.28 268.167 1209.11 269.333 1220.11 271C1231.11 272.333 1241.78 274.167 1252.11 276.5C1262.78 278.5 1272.28 281.167 1280.61 284.5C1283.61 289.833 1285.61 297 1286.61 306C1287.94 315 1288.44 324.5 1288.11 334.5C1287.78 344.5 1286.94 354.5 1285.61 364.5C1284.61 374.167 1283.28 382.834 1281.61 390.5C1277.28 391.834 1272.44 392.834 1267.11 393.5C1262.11 393.833 1255.78 394 1248.11 394C1240.78 394 1231.78 394 1221.11 394C1210.78 393.667 1198.11 393.5 1183.11 393.5H1158.11C1147.44 393.5 1138.78 393.667 1132.11 394C1125.78 394 1120.78 394.667 1117.11 396C1113.44 397.334 1110.94 399.334 1109.61 402C1108.61 404.667 1108.11 408.334 1108.11 413C1108.11 416.334 1108.44 419.667 1109.11 423C1109.78 426 1111.11 428.834 1113.11 431.5C1115.44 434.167 1118.61 436.334 1122.61 438C1126.61 439.667 1131.94 440.5 1138.61 440.5C1144.61 440.5 1152.11 440.334 1161.11 440C1170.11 439.667 1177.44 439.167 1183.11 438.5C1188.78 437.833 1194.28 437.334 1199.61 437C1205.28 436.667 1210.94 436.5 1216.61 436.5C1221.94 436.5 1226.78 437 1231.11 438C1233.11 444.334 1234.61 452 1235.61 461C1236.61 470 1237.11 479 1237.11 488C1237.11 497 1236.78 505.5 1236.11 513.5C1235.44 521.167 1234.61 526.834 1233.61 530.5C1231.28 531.167 1228.28 532 1224.61 533C1220.94 534 1217.94 534.5 1215.61 534.5C1211.28 534.5 1206.94 534.334 1202.61 534C1198.28 533.667 1193.78 533.167 1189.11 532.5C1184.44 531.834 1178.28 531.334 1170.61 531C1162.94 530.667 1156.61 530.5 1151.61 530.5C1139.61 530.5 1130.94 532.667 1125.61 537C1120.61 541 1118.11 545.667 1118.11 551C1118.11 560 1120.61 565.834 1125.61 568.5C1130.61 571.167 1140.61 572.5 1155.61 572.5C1159.94 572.5 1164.78 572.5 1170.11 572.5C1175.44 572.167 1180.78 571.834 1186.11 571.5C1191.78 570.834 1197.28 570.334 1202.61 570C1207.94 569.334 1212.61 568.834 1216.61 568.5C1225.28 567.5 1235.28 566.667 1246.61 566C1258.28 565 1268.44 564.5 1277.11 564.5C1278.78 564.5 1280.28 564.667 1281.61 565C1283.28 565 1284.94 565.167 1286.61 565.5Z" fill="white"/>
<path d="M863 259.5C871.667 258.5 882 259.333 894 262C906 264.333 917.667 267.833 929 272.5C940.667 276.833 950.833 282.167 959.5 288.5C968.167 294.833 973.5 301.333 975.5 308C975.5 308.667 975.5 309.167 975.5 309.5C975.833 309.833 975.833 310.333 975.5 311C973.5 319.333 969.833 330 964.5 343C959.5 355.667 953.667 369 947 383C940.667 397 933.833 410.833 926.5 424.5C919.167 437.833 912.5 449.167 906.5 458.5C897.833 472.167 890.167 484.167 883.5 494.5C877.167 504.5 874 512.333 874 518C874 543 875.167 567.5 877.5 591.5C880.167 615.5 881.667 639.333 882 663C872 667.667 860.5 671.167 847.5 673.5C834.833 676.167 822 677.667 809 678C796 678.333 783.5 677.5 771.5 675.5C759.5 673.833 749.5 671 741.5 667C739.167 652 737.833 638.333 737.5 626C737.5 613.667 737.833 602.167 738.5 591.5C739.167 580.833 740 570.667 741 561C742 551.333 742.5 541.333 742.5 531C742.5 524 738.833 516 731.5 507C724.5 498 714.333 485.833 701 470.5C691.333 459.167 681.833 445.167 672.5 428.5C663.5 411.5 655.5 394.333 648.5 377C641.5 359.667 635.833 343.167 631.5 327.5C627.167 311.833 625 299.667 625 291C629.667 287.333 636.5 283.667 645.5 280C654.5 276.333 664.333 273.167 675 270.5C685.667 267.833 696.5 266 707.5 265C718.833 264 729 264.333 738 266C741.667 271 745 277.333 748 285C751.333 292.333 754.667 300.5 758 309.5C761.667 318.167 765.333 327.167 769 336.5C773 345.833 777.167 354.5 781.5 362.5C785.5 369.833 790 376.667 795 383C800.333 389 804.333 392 807 392C809 392 811 390.333 813 387C815.333 383.333 817.5 379 819.5 374C821.5 369 823.5 363.667 825.5 358C827.833 352 830 346.5 832 341.5C834.667 336.167 837 329.667 839 322C841.333 314 843.667 306 846 298C848.333 290 850.833 282.5 853.5 275.5C856.167 268.5 859.333 263.167 863 259.5Z" fill="white"/>
</svg>
